<?xml version="1.0" encoding="utf-8" standalone="no"?>
<!DOCTYPE svg PUBLIC "-//W3C//DTD SVG 1.1//EN"
  "http://www.w3.org/Graphics/SVG/1.1/DTD/svg11.dtd">
<svg xmlns:xlink="http://www.w3.org/1999/xlink" width="435.77125pt" height="322.35325pt" viewBox="0 0 435.77125 322.35325" xmlns="http://www.w3.org/2000/svg" version="1.1">
 <metadata>
  <rdf:RDF xmlns:dc="http://purl.org/dc/elements/1.1/" xmlns:cc="http://creativecommons.org/ns#" xmlns:rdf="http://www.w3.org/1999/02/22-rdf-syntax-ns#">
   <cc:Work>
    <dc:type rdf:resource="http://purl.org/dc/dcmitype/StillImage"/>
    <dc:date>2024-05-03T00:20:17.730189</dc:date>
    <dc:format>image/svg+xml</dc:format>
    <dc:creator>
     <cc:Agent>
      <dc:title>Matplotlib v3.7.0, https://matplotlib.org/</dc:title>
     </cc:Agent>
    </dc:creator>
   </cc:Work>
  </rdf:RDF>
 </metadata>
 <defs>
  <style type="text/css">*{stroke-linejoin: round; stroke-linecap: butt}</style>
 </defs>
 <g id="figure_1">
  <g id="patch_1">
   <path d="M 0 322.35325 
L 435.77125 322.35325 
L 435.77125 0 
L 0 0 
z
" style="fill: #ffffff"/>
  </g>
  <g id="axes_1">
   <g id="patch_2">
    <path d="M 71.45125 273.312 
L 428.57125 273.312 
L 428.57125 7.2 
L 71.45125 7.2 
z
" style="fill: #ffffff"/>
   </g>
   <g id="PolyCollection_1">
    <defs>
     <path id="maf7bd2bc68" d="M 87.683977 -49.04125 
L 87.683977 -49.04125 
L 102.441002 -49.04125 
L 117.198027 -49.04125 
L 131.955052 -49.04125 
L 146.712076 -49.04125 
L 161.469101 -49.04125 
L 176.226126 -49.04125 
L 190.983151 -49.04125 
L 205.740176 -49.04125 
L 220.4972 -49.04125 
L 235.254225 -49.04125 
L 250.01125 -49.04125 
L 264.768275 -49.04125 
L 279.5253 -49.04125 
L 294.282324 -49.04125 
L 309.039349 -49.04125 
L 323.796374 -49.04125 
L 338.553399 -49.04125 
L 353.310424 -49.04125 
L 368.067448 -49.04125 
L 382.824473 -49.04125 
L 397.581498 -49.04125 
L 412.338523 -49.04125 
L 412.338523 -58.538526 
L 412.338523 -58.538526 
L 397.581498 -58.72073 
L 382.824473 -55.897514 
L 368.067448 -54.638977 
L 353.310424 -54.966862 
L 338.553399 -52.799622 
L 323.796374 -49.906041 
L 309.039349 -49.04125 
L 294.282324 -50.268815 
L 279.5253 -53.259026 
L 264.768275 -52.744503 
L 250.01125 -49.04125 
L 235.254225 -49.04125 
L 220.4972 -49.04125 
L 205.740176 -49.04125 
L 190.983151 -49.04125 
L 176.226126 -49.04125 
L 161.469101 -49.04125 
L 146.712076 -49.04125 
L 131.955052 -49.04125 
L 117.198027 -49.04125 
L 102.441002 -49.04125 
L 87.683977 -49.04125 
z
" style="stroke: #1f77b4"/>
    </defs>
    <g clip-path="url(#p30c52e2af0)">
     <use xlink:href="#maf7bd2bc68" x="0" y="322.35325" style="fill: #1f77b4; stroke: #1f77b4"/>
    </g>
   </g>
   <g id="PolyCollection_2">
    <defs>
     <path id="m6b2c63a211" d="M 87.683977 -49.04125 
L 87.683977 -49.04125 
L 102.441002 -49.04125 
L 117.198027 -49.04125 
L 131.955052 -49.04125 
L 146.712076 -49.04125 
L 161.469101 -49.04125 
L 176.226126 -49.04125 
L 190.983151 -49.04125 
L 205.740176 -49.04125 
L 220.4972 -49.04125 
L 235.254225 -49.04125 
L 250.01125 -49.04125 
L 264.768275 -52.744503 
L 279.5253 -53.259026 
L 294.282324 -50.268815 
L 309.039349 -49.04125 
L 323.796374 -49.906041 
L 338.553399 -52.799622 
L 353.310424 -54.966862 
L 368.067448 -54.638977 
L 382.824473 -55.897514 
L 397.581498 -58.72073 
L 412.338523 -58.538526 
L 412.338523 -58.538526 
L 412.338523 -58.538526 
L 397.581498 -58.72073 
L 382.824473 -58.61375 
L 368.067448 -54.638977 
L 353.310424 -54.966862 
L 338.553399 -52.799622 
L 323.796374 -50.421931 
L 309.039349 -49.04125 
L 294.282324 -50.268815 
L 279.5253 -53.259026 
L 264.768275 -52.744503 
L 250.01125 -49.331226 
L 235.254225 -49.04125 
L 220.4972 -49.04125 
L 205.740176 -49.04125 
L 190.983151 -49.04125 
L 176.226126 -49.04125 
L 161.469101 -49.04125 
L 146.712076 -49.04125 
L 131.955052 -49.04125 
L 117.198027 -49.04125 
L 102.441002 -49.04125 
L 87.683977 -49.04125 
z
" style="stroke: #ff7f0e"/>
    </defs>
    <g clip-path="url(#p30c52e2af0)">
     <use xlink:href="#m6b2c63a211" x="0" y="322.35325" style="fill: #ff7f0e; stroke: #ff7f0e"/>
    </g>
   </g>
   <g id="PolyCollection_3">
    <defs>
     <path id="md9a29fbcd0" d="M 87.683977 -49.04125 
L 87.683977 -49.04125 
L 102.441002 -49.04125 
L 117.198027 -49.04125 
L 131.955052 -49.04125 
L 146.712076 -49.04125 
L 161.469101 -49.04125 
L 176.226126 -49.04125 
L 190.983151 -49.04125 
L 205.740176 -49.04125 
L 220.4972 -49.04125 
L 235.254225 -49.04125 
L 250.01125 -49.331226 
L 264.768275 -52.744503 
L 279.5253 -53.259026 
L 294.282324 -50.268815 
L 309.039349 -49.04125 
L 323.796374 -50.421931 
L 338.553399 -52.799622 
L 353.310424 -54.966862 
L 368.067448 -54.638977 
L 382.824473 -58.61375 
L 397.581498 -58.72073 
L 412.338523 -58.538526 
L 412.338523 -64.152069 
L 412.338523 -64.152069 
L 397.581498 -64.311128 
L 382.824473 -62.67176 
L 368.067448 -59.284404 
L 353.310424 -57.308089 
L 338.553399 -55.521721 
L 323.796374 -51.274635 
L 309.039349 -49.04125 
L 294.282324 -50.268815 
L 279.5253 -54.372719 
L 264.768275 -53.619732 
L 250.01125 -49.331226 
L 235.254225 -50.854928 
L 220.4972 -49.04125 
L 205.740176 -49.04125 
L 190.983151 -49.04125 
L 176.226126 -49.04125 
L 161.469101 -49.04125 
L 146.712076 -49.04125 
L 131.955052 -49.04125 
L 117.198027 -49.04125 
L 102.441002 -49.04125 
L 87.683977 -49.04125 
z
" style="stroke: #2ca02c"/>
    </defs>
    <g clip-path="url(#p30c52e2af0)">
     <use xlink:href="#md9a29fbcd0" x="0" y="322.35325" style="fill: #2ca02c; stroke: #2ca02c"/>
    </g>
   </g>
   <g id="PolyCollection_4">
    <defs>
     <path id="me8a8b3b07e" d="M 87.683977 -49.04125 
L 87.683977 -49.04125 
L 102.441002 -49.04125 
L 117.198027 -49.04125 
L 131.955052 -49.04125 
L 146.712076 -49.04125 
L 161.469101 -49.04125 
L 176.226126 -49.04125 
L 190.983151 -49.04125 
L 205.740176 -49.04125 
L 220.4972 -49.04125 
L 235.254225 -50.854928 
L 250.01125 -49.331226 
L 264.768275 -53.619732 
L 279.5253 -54.372719 
L 294.282324 -50.268815 
L 309.039349 -49.04125 
L 323.796374 -51.274635 
L 338.553399 -55.521721 
L 353.310424 -57.308089 
L 368.067448 -59.284404 
L 382.824473 -62.67176 
L 397.581498 -64.311128 
L 412.338523 -64.152069 
L 412.338523 -67.784731 
L 412.338523 -67.784731 
L 397.581498 -67.221986 
L 382.824473 -66.144739 
L 368.067448 -59.284404 
L 353.310424 -57.772291 
L 338.553399 -55.521721 
L 323.796374 -51.274635 
L 309.039349 -59.500603 
L 294.282324 -56.450899 
L 279.5253 -59.048801 
L 264.768275 -56.799411 
L 250.01125 -51.682762 
L 235.254225 -51.668795 
L 220.4972 -49.04125 
L 205.740176 -49.04125 
L 190.983151 -49.04125 
L 176.226126 -49.04125 
L 161.469101 -49.04125 
L 146.712076 -49.04125 
L 131.955052 -49.04125 
L 117.198027 -49.04125 
L 102.441002 -49.04125 
L 87.683977 -49.04125 
z
" style="stroke: #d62728"/>
    </defs>
    <g clip-path="url(#p30c52e2af0)">
     <use xlink:href="#me8a8b3b07e" x="0" y="322.35325" style="fill: #d62728; stroke: #d62728"/>
    </g>
   </g>
   <g id="PolyCollection_5">
    <defs>
     <path id="m5e3f478650" d="M 87.683977 -49.04125 
L 87.683977 -49.04125 
L 102.441002 -49.04125 
L 117.198027 -49.04125 
L 131.955052 -49.04125 
L 146.712076 -49.04125 
L 161.469101 -49.04125 
L 176.226126 -49.04125 
L 190.983151 -49.04125 
L 205.740176 -49.04125 
L 220.4972 -49.04125 
L 235.254225 -51.668795 
L 250.01125 -51.682762 
L 264.768275 -56.799411 
L 279.5253 -59.048801 
L 294.282324 -56.450899 
L 309.039349 -59.500603 
L 323.796374 -51.274635 
L 338.553399 -55.521721 
L 353.310424 -57.772291 
L 368.067448 -59.284404 
L 382.824473 -66.144739 
L 397.581498 -67.221986 
L 412.338523 -67.784731 
L 412.338523 -70.679933 
L 412.338523 -70.679933 
L 397.581498 -67.221986 
L 382.824473 -66.144739 
L 368.067448 -59.284404 
L 353.310424 -57.772291 
L 338.553399 -55.521721 
L 323.796374 -51.274635 
L 309.039349 -59.500603 
L 294.282324 -56.450899 
L 279.5253 -59.048801 
L 264.768275 -56.799411 
L 250.01125 -51.682762 
L 235.254225 -51.668795 
L 220.4972 -49.04125 
L 205.740176 -49.04125 
L 190.983151 -49.04125 
L 176.226126 -49.04125 
L 161.469101 -49.04125 
L 146.712076 -49.04125 
L 131.955052 -49.04125 
L 117.198027 -49.04125 
L 102.441002 -49.04125 
L 87.683977 -49.04125 
z
" style="stroke: #9467bd"/>
    </defs>
    <g clip-path="url(#p30c52e2af0)">
     <use xlink:href="#m5e3f478650" x="0" y="322.35325" style="fill: #9467bd; stroke: #9467bd"/>
    </g>
   </g>
   <g id="PolyCollection_6">
    <defs>
     <path id="m5e3301a44f" d="M 87.683977 -49.04125 
L 87.683977 -49.04125 
L 102.441002 -49.04125 
L 117.198027 -49.04125 
L 131.955052 -49.04125 
L 146.712076 -49.04125 
L 161.469101 -49.04125 
L 176.226126 -49.04125 
L 190.983151 -49.04125 
L 205.740176 -49.04125 
L 220.4972 -49.04125 
L 235.254225 -51.668795 
L 250.01125 -51.682762 
L 264.768275 -56.799411 
L 279.5253 -59.048801 
L 294.282324 -56.450899 
L 309.039349 -59.500603 
L 323.796374 -51.274635 
L 338.553399 -55.521721 
L 353.310424 -57.772291 
L 368.067448 -59.284404 
L 382.824473 -66.144739 
L 397.581498 -67.221986 
L 412.338523 -70.679933 
L 412.338523 -78.418123 
L 412.338523 -78.418123 
L 397.581498 -72.401364 
L 382.824473 -68.497228 
L 368.067448 -59.284404 
L 353.310424 -58.039697 
L 338.553399 -59.769234 
L 323.796374 -57.052058 
L 309.039349 -59.500603 
L 294.282324 -56.450899 
L 279.5253 -59.165926 
L 264.768275 -56.799411 
L 250.01125 -51.682762 
L 235.254225 -51.668795 
L 220.4972 -49.04125 
L 205.740176 -49.04125 
L 190.983151 -49.04125 
L 176.226126 -49.04125 
L 161.469101 -49.04125 
L 146.712076 -49.04125 
L 131.955052 -49.04125 
L 117.198027 -49.04125 
L 102.441002 -49.04125 
L 87.683977 -49.04125 
z
" style="stroke: #8c564b"/>
    </defs>
    <g clip-path="url(#p30c52e2af0)">
     <use xlink:href="#m5e3301a44f" x="0" y="322.35325" style="fill: #8c564b; stroke: #8c564b"/>
    </g>
   </g>
   <g id="PolyCollection_7">
    <defs>
     <path id="md26c104a5a" d="M 87.683977 -49.04125 
L 87.683977 -49.04125 
L 102.441002 -49.04125 
L 117.198027 -49.04125 
L 131.955052 -49.04125 
L 146.712076 -49.04125 
L 161.469101 -49.04125 
L 176.226126 -49.04125 
L 190.983151 -49.04125 
L 205.740176 -49.04125 
L 220.4972 -49.04125 
L 235.254225 -51.668795 
L 250.01125 -51.682762 
L 264.768275 -56.799411 
L 279.5253 -59.165926 
L 294.282324 -56.450899 
L 309.039349 -59.500603 
L 323.796374 -57.052058 
L 338.553399 -59.769234 
L 353.310424 -58.039697 
L 368.067448 -59.284404 
L 382.824473 -68.497228 
L 397.581498 -72.401364 
L 412.338523 -78.418123 
L 412.338523 -78.418123 
L 412.338523 -78.418123 
L 397.581498 -73.771278 
L 382.824473 -68.497228 
L 368.067448 -59.284404 
L 353.310424 -58.039697 
L 338.553399 -59.769234 
L 323.796374 -57.052058 
L 309.039349 -59.500603 
L 294.282324 -56.450899 
L 279.5253 -59.165926 
L 264.768275 -56.799411 
L 250.01125 -51.682762 
L 235.254225 -51.668795 
L 220.4972 -49.04125 
L 205.740176 -49.04125 
L 190.983151 -49.04125 
L 176.226126 -49.04125 
L 161.469101 -49.04125 
L 146.712076 -49.04125 
L 131.955052 -49.04125 
L 117.198027 -49.04125 
L 102.441002 -49.04125 
L 87.683977 -49.04125 
z
" style="stroke: #e377c2"/>
    </defs>
    <g clip-path="url(#p30c52e2af0)">
     <use xlink:href="#md26c104a5a" x="0" y="322.35325" style="fill: #e377c2; stroke: #e377c2"/>
    </g>
   </g>
   <g id="PolyCollection_8">
    <defs>
     <path id="m40f154eaa0" d="M 87.683977 -49.04125 
L 87.683977 -49.04125 
L 102.441002 -49.04125 
L 117.198027 -49.04125 
L 131.955052 -49.04125 
L 146.712076 -49.04125 
L 161.469101 -49.04125 
L 176.226126 -49.04125 
L 190.983151 -49.04125 
L 205.740176 -49.04125 
L 220.4972 -49.04125 
L 235.254225 -51.668795 
L 250.01125 -51.682762 
L 264.768275 -56.799411 
L 279.5253 -59.165926 
L 294.282324 -56.450899 
L 309.039349 -59.500603 
L 323.796374 -57.052058 
L 338.553399 -59.769234 
L 353.310424 -58.039697 
L 368.067448 -59.284404 
L 382.824473 -68.497228 
L 397.581498 -73.771278 
L 412.338523 -78.418123 
L 412.338523 -78.418123 
L 412.338523 -78.418123 
L 397.581498 -73.771278 
L 382.824473 -68.497228 
L 368.067448 -59.284404 
L 353.310424 -58.039697 
L 338.553399 -59.769234 
L 323.796374 -57.052058 
L 309.039349 -59.500603 
L 294.282324 -56.450899 
L 279.5253 -59.165926 
L 264.768275 -56.799411 
L 250.01125 -51.682762 
L 235.254225 -51.668795 
L 220.4972 -49.04125 
L 205.740176 -49.04125 
L 190.983151 -49.04125 
L 176.226126 -49.04125 
L 161.469101 -49.04125 
L 146.712076 -49.04125 
L 131.955052 -49.04125 
L 117.198027 -49.04125 
L 102.441002 -49.04125 
L 87.683977 -49.04125 
z
" style="stroke: #7f7f7f"/>
    </defs>
    <g clip-path="url(#p30c52e2af0)">
     <use xlink:href="#m40f154eaa0" x="0" y="322.35325" style="fill: #7f7f7f; stroke: #7f7f7f"/>
    </g>
   </g>
   <g id="PolyCollection_9">
    <defs>
     <path id="md5ce1aaf7f" d="M 87.683977 -49.04125 
L 87.683977 -49.04125 
L 102.441002 -49.04125 
L 117.198027 -49.04125 
L 131.955052 -49.04125 
L 146.712076 -49.04125 
L 161.469101 -49.04125 
L 176.226126 -49.04125 
L 190.983151 -49.04125 
L 205.740176 -49.04125 
L 220.4972 -49.04125 
L 235.254225 -51.668795 
L 250.01125 -51.682762 
L 264.768275 -56.799411 
L 279.5253 -59.165926 
L 294.282324 -56.450899 
L 309.039349 -59.500603 
L 323.796374 -57.052058 
L 338.553399 -59.769234 
L 353.310424 -58.039697 
L 368.067448 -59.284404 
L 382.824473 -68.497228 
L 397.581498 -73.771278 
L 412.338523 -78.418123 
L 412.338523 -78.418123 
L 412.338523 -78.418123 
L 397.581498 -73.771278 
L 382.824473 -68.497228 
L 368.067448 -59.284404 
L 353.310424 -58.039697 
L 338.553399 -59.769234 
L 323.796374 -57.052058 
L 309.039349 -59.500603 
L 294.282324 -56.450899 
L 279.5253 -59.165926 
L 264.768275 -56.799411 
L 250.01125 -51.682762 
L 235.254225 -51.668795 
L 220.4972 -49.04125 
L 205.740176 -49.04125 
L 190.983151 -49.04125 
L 176.226126 -49.04125 
L 161.469101 -49.04125 
L 146.712076 -49.04125 
L 131.955052 -49.04125 
L 117.198027 -49.04125 
L 102.441002 -49.04125 
L 87.683977 -49.04125 
z
" style="stroke: #bcbd22"/>
    </defs>
    <g clip-path="url(#p30c52e2af0)">
     <use xlink:href="#md5ce1aaf7f" x="0" y="322.35325" style="fill: #bcbd22; stroke: #bcbd22"/>
    </g>
   </g>
   <g id="PolyCollection_10">
    <defs>
     <path id="m6fc0606afd" d="M 87.683977 -49.04125 
L 87.683977 -49.04125 
L 102.441002 -49.04125 
L 117.198027 -49.04125 
L 131.955052 -49.04125 
L 146.712076 -49.04125 
L 161.469101 -49.04125 
L 176.226126 -49.04125 
L 190.983151 -49.04125 
L 205.740176 -49.04125 
L 220.4972 -49.04125 
L 235.254225 -51.668795 
L 250.01125 -51.682762 
L 264.768275 -56.799411 
L 279.5253 -59.165926 
L 294.282324 -56.450899 
L 309.039349 -59.500603 
L 323.796374 -57.052058 
L 338.553399 -59.769234 
L 353.310424 -58.039697 
L 368.067448 -59.284404 
L 382.824473 -68.497228 
L 397.581498 -73.771278 
L 412.338523 -78.418123 
L 412.338523 -78.418123 
L 412.338523 -78.418123 
L 397.581498 -73.771278 
L 382.824473 -68.497228 
L 368.067448 -59.284404 
L 353.310424 -58.039697 
L 338.553399 -59.769234 
L 323.796374 -57.052058 
L 309.039349 -59.500603 
L 294.282324 -56.450899 
L 279.5253 -59.165926 
L 264.768275 -56.799411 
L 250.01125 -51.682762 
L 235.254225 -51.668795 
L 220.4972 -49.04125 
L 205.740176 -49.04125 
L 190.983151 -49.04125 
L 176.226126 -49.04125 
L 161.469101 -49.04125 
L 146.712076 -49.04125 
L 131.955052 -49.04125 
L 117.198027 -49.04125 
L 102.441002 -49.04125 
L 87.683977 -49.04125 
z
" style="stroke: #17becf"/>
    </defs>
    <g clip-path="url(#p30c52e2af0)">
     <use xlink:href="#m6fc0606afd" x="0" y="322.35325" style="fill: #17becf; stroke: #17becf"/>
    </g>
   </g>
   <g id="PolyCollection_11">
    <defs>
     <path id="md8018fc813" d="M 87.683977 -49.04125 
L 87.683977 -49.04125 
L 102.441002 -49.04125 
L 117.198027 -49.04125 
L 131.955052 -49.04125 
L 146.712076 -49.04125 
L 161.469101 -49.04125 
L 176.226126 -49.04125 
L 190.983151 -49.04125 
L 205.740176 -49.04125 
L 220.4972 -49.04125 
L 235.254225 -51.668795 
L 250.01125 -51.682762 
L 264.768275 -56.799411 
L 279.5253 -59.165926 
L 294.282324 -56.450899 
L 309.039349 -59.500603 
L 323.796374 -57.052058 
L 338.553399 -59.769234 
L 353.310424 -58.039697 
L 368.067448 -59.284404 
L 382.824473 -68.497228 
L 397.581498 -73.771278 
L 412.338523 -78.418123 
L 412.338523 -78.418123 
L 412.338523 -78.418123 
L 397.581498 -73.771278 
L 382.824473 -68.497228 
L 368.067448 -59.284404 
L 353.310424 -58.039697 
L 338.553399 -59.769234 
L 323.796374 -57.052058 
L 309.039349 -59.500603 
L 294.282324 -56.450899 
L 279.5253 -59.165926 
L 264.768275 -56.799411 
L 250.01125 -51.682762 
L 235.254225 -51.668795 
L 220.4972 -49.04125 
L 205.740176 -49.04125 
L 190.983151 -49.04125 
L 176.226126 -49.04125 
L 161.469101 -49.04125 
L 146.712076 -49.04125 
L 131.955052 -49.04125 
L 117.198027 -49.04125 
L 102.441002 -49.04125 
L 87.683977 -49.04125 
z
" style="stroke: #1f77b4"/>
    </defs>
    <g clip-path="url(#p30c52e2af0)">
     <use xlink:href="#md8018fc813" x="0" y="322.35325" style="fill: #1f77b4; stroke: #1f77b4"/>
    </g>
   </g>
   <g id="PolyCollection_12">
    <defs>
     <path id="mcacc70e4a7" d="M 87.683977 -49.04125 
L 87.683977 -49.04125 
L 102.441002 -49.04125 
L 117.198027 -49.04125 
L 131.955052 -49.04125 
L 146.712076 -49.04125 
L 161.469101 -49.04125 
L 176.226126 -49.04125 
L 190.983151 -49.04125 
L 205.740176 -49.04125 
L 220.4972 -49.04125 
L 235.254225 -51.668795 
L 250.01125 -51.682762 
L 264.768275 -56.799411 
L 279.5253 -59.165926 
L 294.282324 -56.450899 
L 309.039349 -59.500603 
L 323.796374 -57.052058 
L 338.553399 -59.769234 
L 353.310424 -58.039697 
L 368.067448 -59.284404 
L 382.824473 -68.497228 
L 397.581498 -73.771278 
L 412.338523 -78.418123 
L 412.338523 -101.258822 
L 412.338523 -101.258822 
L 397.581498 -89.11422 
L 382.824473 -87.04945 
L 368.067448 -79.560641 
L 353.310424 -70.249599 
L 338.553399 -65.818169 
L 323.796374 -57.790251 
L 309.039349 -62.317962 
L 294.282324 -58.526469 
L 279.5253 -59.908154 
L 264.768275 -56.799411 
L 250.01125 -51.682762 
L 235.254225 -51.668795 
L 220.4972 -49.04125 
L 205.740176 -49.04125 
L 190.983151 -49.04125 
L 176.226126 -49.04125 
L 161.469101 -49.04125 
L 146.712076 -49.04125 
L 131.955052 -49.04125 
L 117.198027 -49.04125 
L 102.441002 -49.04125 
L 87.683977 -49.04125 
z
" style="stroke: #ff7f0e"/>
    </defs>
    <g clip-path="url(#p30c52e2af0)">
     <use xlink:href="#mcacc70e4a7" x="0" y="322.35325" style="fill: #ff7f0e; stroke: #ff7f0e"/>
    </g>
   </g>
   <g id="PolyCollection_13">
    <defs>
     <path id="ma86663c7eb" d="M 87.683977 -49.04125 
L 87.683977 -49.04125 
L 102.441002 -49.04125 
L 117.198027 -49.04125 
L 131.955052 -49.04125 
L 146.712076 -49.04125 
L 161.469101 -49.04125 
L 176.226126 -49.04125 
L 190.983151 -49.04125 
L 205.740176 -49.04125 
L 220.4972 -49.04125 
L 235.254225 -51.668795 
L 250.01125 -51.682762 
L 264.768275 -56.799411 
L 279.5253 -59.908154 
L 294.282324 -58.526469 
L 309.039349 -62.317962 
L 323.796374 -57.790251 
L 338.553399 -65.818169 
L 353.310424 -70.249599 
L 368.067448 -79.560641 
L 382.824473 -87.04945 
L 397.581498 -89.11422 
L 412.338523 -101.258822 
L 412.338523 -101.258822 
L 412.338523 -101.258822 
L 397.581498 -90.568899 
L 382.824473 -87.04945 
L 368.067448 -79.560641 
L 353.310424 -72.948282 
L 338.553399 -66.630693 
L 323.796374 -57.909531 
L 309.039349 -64.865005 
L 294.282324 -59.385202 
L 279.5253 -61.311572 
L 264.768275 -62.574037 
L 250.01125 -51.682762 
L 235.254225 -51.668795 
L 220.4972 -49.04125 
L 205.740176 -49.04125 
L 190.983151 -49.04125 
L 176.226126 -49.04125 
L 161.469101 -49.04125 
L 146.712076 -49.04125 
L 131.955052 -49.04125 
L 117.198027 -49.04125 
L 102.441002 -49.04125 
L 87.683977 -49.04125 
z
" style="stroke: #2ca02c"/>
    </defs>
    <g clip-path="url(#p30c52e2af0)">
     <use xlink:href="#ma86663c7eb" x="0" y="322.35325" style="fill: #2ca02c; stroke: #2ca02c"/>
    </g>
   </g>
   <g id="PolyCollection_14">
    <defs>
     <path id="m35d149c48b" d="M 87.683977 -49.04125 
L 87.683977 -49.04125 
L 102.441002 -49.04125 
L 117.198027 -49.04125 
L 131.955052 -49.04125 
L 146.712076 -49.04125 
L 161.469101 -49.04125 
L 176.226126 -49.04125 
L 190.983151 -49.04125 
L 205.740176 -49.04125 
L 220.4972 -49.04125 
L 235.254225 -51.668795 
L 250.01125 -51.682762 
L 264.768275 -62.574037 
L 279.5253 -61.311572 
L 294.282324 -59.385202 
L 309.039349 -64.865005 
L 323.796374 -57.909531 
L 338.553399 -66.630693 
L 353.310424 -72.948282 
L 368.067448 -79.560641 
L 382.824473 -87.04945 
L 397.581498 -90.568899 
L 412.338523 -101.258822 
L 412.338523 -104.543931 
L 412.338523 -104.543931 
L 397.581498 -94.816518 
L 382.824473 -95.410012 
L 368.067448 -83.501801 
L 353.310424 -80.936763 
L 338.553399 -68.586844 
L 323.796374 -57.909531 
L 309.039349 -64.865005 
L 294.282324 -59.487653 
L 279.5253 -62.774747 
L 264.768275 -62.574037 
L 250.01125 -51.682762 
L 235.254225 -52.227342 
L 220.4972 -49.04125 
L 205.740176 -49.04125 
L 190.983151 -49.04125 
L 176.226126 -49.04125 
L 161.469101 -49.04125 
L 146.712076 -49.04125 
L 131.955052 -57.229156 
L 117.198027 -67.50271 
L 102.441002 -49.04125 
L 87.683977 -49.04125 
z
" style="stroke: #d62728"/>
    </defs>
    <g clip-path="url(#p30c52e2af0)">
     <use xlink:href="#m35d149c48b" x="0" y="322.35325" style="fill: #d62728; stroke: #d62728"/>
    </g>
   </g>
   <g id="PolyCollection_15">
    <defs>
     <path id="m28078a679b" d="M 87.683977 -49.04125 
L 87.683977 -49.04125 
L 102.441002 -49.04125 
L 117.198027 -67.50271 
L 131.955052 -57.229156 
L 146.712076 -49.04125 
L 161.469101 -49.04125 
L 176.226126 -49.04125 
L 190.983151 -49.04125 
L 205.740176 -49.04125 
L 220.4972 -49.04125 
L 235.254225 -52.227342 
L 250.01125 -51.682762 
L 264.768275 -62.574037 
L 279.5253 -62.774747 
L 294.282324 -59.487653 
L 309.039349 -64.865005 
L 323.796374 -57.909531 
L 338.553399 -68.586844 
L 353.310424 -80.936763 
L 368.067448 -83.501801 
L 382.824473 -95.410012 
L 397.581498 -94.816518 
L 412.338523 -104.543931 
L 412.338523 -112.702647 
L 412.338523 -112.702647 
L 397.581498 -97.19475 
L 382.824473 -100.821158 
L 368.067448 -96.151212 
L 353.310424 -91.59681 
L 338.553399 -73.004154 
L 323.796374 -62.063738 
L 309.039349 -66.695607 
L 294.282324 -59.487653 
L 279.5253 -65.109246 
L 264.768275 -64.892935 
L 250.01125 -51.682762 
L 235.254225 -52.227342 
L 220.4972 -49.04125 
L 205.740176 -49.04125 
L 190.983151 -49.04125 
L 176.226126 -49.04125 
L 161.469101 -49.04125 
L 146.712076 -49.04125 
L 131.955052 -57.229156 
L 117.198027 -67.50271 
L 102.441002 -49.04125 
L 87.683977 -49.04125 
z
" style="stroke: #9467bd"/>
    </defs>
    <g clip-path="url(#p30c52e2af0)">
     <use xlink:href="#m28078a679b" x="0" y="322.35325" style="fill: #9467bd; stroke: #9467bd"/>
    </g>
   </g>
   <g id="PolyCollection_16">
    <defs>
     <path id="m9a540a732c" d="M 87.683977 -49.04125 
L 87.683977 -49.04125 
L 102.441002 -49.04125 
L 117.198027 -67.50271 
L 131.955052 -57.229156 
L 146.712076 -49.04125 
L 161.469101 -49.04125 
L 176.226126 -49.04125 
L 190.983151 -49.04125 
L 205.740176 -49.04125 
L 220.4972 -49.04125 
L 235.254225 -52.227342 
L 250.01125 -51.682762 
L 264.768275 -64.892935 
L 279.5253 -65.109246 
L 294.282324 -59.487653 
L 309.039349 -66.695607 
L 323.796374 -62.063738 
L 338.553399 -73.004154 
L 353.310424 -91.59681 
L 368.067448 -96.151212 
L 382.824473 -100.821158 
L 397.581498 -97.19475 
L 412.338523 -112.702647 
L 412.338523 -132.827549 
L 412.338523 -132.827549 
L 397.581498 -119.497887 
L 382.824473 -124.523407 
L 368.067448 -116.757484 
L 353.310424 -119.691908 
L 338.553399 -106.444443 
L 323.796374 -90.830276 
L 309.039349 -86.868076 
L 294.282324 -77.875994 
L 279.5253 -90.609653 
L 264.768275 -90.036238 
L 250.01125 -71.631453 
L 235.254225 -78.113627 
L 220.4972 -72.901519 
L 205.740176 -61.868579 
L 190.983151 -50.428745 
L 176.226126 -49.04125 
L 161.469101 -49.04125 
L 146.712076 -49.04125 
L 131.955052 -57.229156 
L 117.198027 -72.573796 
L 102.441002 -55.72593 
L 87.683977 -49.04125 
z
" style="stroke: #8c564b"/>
    </defs>
    <g clip-path="url(#p30c52e2af0)">
     <use xlink:href="#m9a540a732c" x="0" y="322.35325" style="fill: #8c564b; stroke: #8c564b"/>
    </g>
   </g>
   <g id="PolyCollection_17">
    <defs>
     <path id="m72fc5a09fc" d="M 87.683977 -49.04125 
L 87.683977 -49.04125 
L 102.441002 -55.72593 
L 117.198027 -72.573796 
L 131.955052 -57.229156 
L 146.712076 -49.04125 
L 161.469101 -49.04125 
L 176.226126 -49.04125 
L 190.983151 -50.428745 
L 205.740176 -61.868579 
L 220.4972 -72.901519 
L 235.254225 -78.113627 
L 250.01125 -71.631453 
L 264.768275 -90.036238 
L 279.5253 -90.609653 
L 294.282324 -77.875994 
L 309.039349 -86.868076 
L 323.796374 -90.830276 
L 338.553399 -106.444443 
L 353.310424 -119.691908 
L 368.067448 -116.757484 
L 382.824473 -124.523407 
L 397.581498 -119.497887 
L 412.338523 -132.827549 
L 412.338523 -132.827549 
L 412.338523 -132.827549 
L 397.581498 -119.497887 
L 382.824473 -124.523407 
L 368.067448 -116.757484 
L 353.310424 -119.691908 
L 338.553399 -106.444443 
L 323.796374 -90.830276 
L 309.039349 -86.868076 
L 294.282324 -77.875994 
L 279.5253 -90.609653 
L 264.768275 -90.036238 
L 250.01125 -71.631453 
L 235.254225 -78.113627 
L 220.4972 -72.901519 
L 205.740176 -61.868579 
L 190.983151 -50.428745 
L 176.226126 -49.04125 
L 161.469101 -49.04125 
L 146.712076 -49.04125 
L 131.955052 -57.229156 
L 117.198027 -72.573796 
L 102.441002 -55.72593 
L 87.683977 -49.04125 
z
" style="stroke: #e377c2"/>
    </defs>
    <g clip-path="url(#p30c52e2af0)">
     <use xlink:href="#m72fc5a09fc" x="0" y="322.35325" style="fill: #e377c2; stroke: #e377c2"/>
    </g>
   </g>
   <g id="PolyCollection_18">
    <defs>
     <path id="m8e615586e9" d="M 87.683977 -49.04125 
L 87.683977 -49.04125 
L 102.441002 -55.72593 
L 117.198027 -72.573796 
L 131.955052 -57.229156 
L 146.712076 -49.04125 
L 161.469101 -49.04125 
L 176.226126 -49.04125 
L 190.983151 -50.428745 
L 205.740176 -61.868579 
L 220.4972 -72.901519 
L 235.254225 -78.113627 
L 250.01125 -71.631453 
L 264.768275 -90.036238 
L 279.5253 -90.609653 
L 294.282324 -77.875994 
L 309.039349 -86.868076 
L 323.796374 -90.830276 
L 338.553399 -106.444443 
L 353.310424 -119.691908 
L 368.067448 -116.757484 
L 382.824473 -124.523407 
L 397.581498 -119.497887 
L 412.338523 -132.827549 
L 412.338523 -156.383036 
L 412.338523 -156.383036 
L 397.581498 -142.684444 
L 382.824473 -134.529282 
L 368.067448 -121.022369 
L 353.310424 -124.268554 
L 338.553399 -111.11054 
L 323.796374 -97.20513 
L 309.039349 -93.460535 
L 294.282324 -77.875994 
L 279.5253 -90.609653 
L 264.768275 -94.577407 
L 250.01125 -71.631453 
L 235.254225 -78.113627 
L 220.4972 -72.901519 
L 205.740176 -61.868579 
L 190.983151 -50.428745 
L 176.226126 -49.04125 
L 161.469101 -49.04125 
L 146.712076 -49.04125 
L 131.955052 -57.229156 
L 117.198027 -72.573796 
L 102.441002 -55.72593 
L 87.683977 -49.04125 
z
" style="stroke: #7f7f7f"/>
    </defs>
    <g clip-path="url(#p30c52e2af0)">
     <use xlink:href="#m8e615586e9" x="0" y="322.35325" style="fill: #7f7f7f; stroke: #7f7f7f"/>
    </g>
   </g>
   <g id="PolyCollection_19">
    <defs>
     <path id="m2b976a3845" d="M 87.683977 -49.04125 
L 87.683977 -49.04125 
L 102.441002 -55.72593 
L 117.198027 -72.573796 
L 131.955052 -57.229156 
L 146.712076 -49.04125 
L 161.469101 -49.04125 
L 176.226126 -49.04125 
L 190.983151 -50.428745 
L 205.740176 -61.868579 
L 220.4972 -72.901519 
L 235.254225 -78.113627 
L 250.01125 -71.631453 
L 264.768275 -94.577407 
L 279.5253 -90.609653 
L 294.282324 -77.875994 
L 309.039349 -93.460535 
L 323.796374 -97.20513 
L 338.553399 -111.11054 
L 353.310424 -124.268554 
L 368.067448 -121.022369 
L 382.824473 -134.529282 
L 397.581498 -142.684444 
L 412.338523 -156.383036 
L 412.338523 -164.480863 
L 412.338523 -164.480863 
L 397.581498 -152.55633 
L 382.824473 -142.871306 
L 368.067448 -124.093532 
L 353.310424 -132.527344 
L 338.553399 -123.497321 
L 323.796374 -109.0476 
L 309.039349 -109.466573 
L 294.282324 -80.158903 
L 279.5253 -90.609653 
L 264.768275 -94.577407 
L 250.01125 -71.631453 
L 235.254225 -78.113627 
L 220.4972 -72.901519 
L 205.740176 -61.868579 
L 190.983151 -50.428745 
L 176.226126 -49.04125 
L 161.469101 -49.04125 
L 146.712076 -49.04125 
L 131.955052 -57.229156 
L 117.198027 -72.573796 
L 102.441002 -55.72593 
L 87.683977 -49.04125 
z
" style="stroke: #bcbd22"/>
    </defs>
    <g clip-path="url(#p30c52e2af0)">
     <use xlink:href="#m2b976a3845" x="0" y="322.35325" style="fill: #bcbd22; stroke: #bcbd22"/>
    </g>
   </g>
   <g id="PolyCollection_20">
    <defs>
     <path id="m4d4b63d7a8" d="M 87.683977 -49.04125 
L 87.683977 -49.04125 
L 102.441002 -55.72593 
L 117.198027 -72.573796 
L 131.955052 -57.229156 
L 146.712076 -49.04125 
L 161.469101 -49.04125 
L 176.226126 -49.04125 
L 190.983151 -50.428745 
L 205.740176 -61.868579 
L 220.4972 -72.901519 
L 235.254225 -78.113627 
L 250.01125 -71.631453 
L 264.768275 -94.577407 
L 279.5253 -90.609653 
L 294.282324 -80.158903 
L 309.039349 -109.466573 
L 323.796374 -109.0476 
L 338.553399 -123.497321 
L 353.310424 -132.527344 
L 368.067448 -124.093532 
L 382.824473 -142.871306 
L 397.581498 -152.55633 
L 412.338523 -164.480863 
L 412.338523 -164.480863 
L 412.338523 -164.480863 
L 397.581498 -152.55633 
L 382.824473 -142.871306 
L 368.067448 -124.093532 
L 353.310424 -132.527344 
L 338.553399 -123.497321 
L 323.796374 -109.0476 
L 309.039349 -109.466573 
L 294.282324 -80.158903 
L 279.5253 -90.609653 
L 264.768275 -94.577407 
L 250.01125 -71.631453 
L 235.254225 -78.113627 
L 220.4972 -72.901519 
L 205.740176 -61.868579 
L 190.983151 -50.428745 
L 176.226126 -49.04125 
L 161.469101 -49.04125 
L 146.712076 -49.04125 
L 131.955052 -57.229156 
L 117.198027 -72.573796 
L 102.441002 -55.72593 
L 87.683977 -49.04125 
z
" style="stroke: #17becf"/>
    </defs>
    <g clip-path="url(#p30c52e2af0)">
     <use xlink:href="#m4d4b63d7a8" x="0" y="322.35325" style="fill: #17becf; stroke: #17becf"/>
    </g>
   </g>
   <g id="PolyCollection_21">
    <defs>
     <path id="m9344683b60" d="M 87.683977 -49.04125 
L 87.683977 -49.04125 
L 102.441002 -55.72593 
L 117.198027 -72.573796 
L 131.955052 -57.229156 
L 146.712076 -49.04125 
L 161.469101 -49.04125 
L 176.226126 -49.04125 
L 190.983151 -50.428745 
L 205.740176 -61.868579 
L 220.4972 -72.901519 
L 235.254225 -78.113627 
L 250.01125 -71.631453 
L 264.768275 -94.577407 
L 279.5253 -90.609653 
L 294.282324 -80.158903 
L 309.039349 -109.466573 
L 323.796374 -109.0476 
L 338.553399 -123.497321 
L 353.310424 -132.527344 
L 368.067448 -124.093532 
L 382.824473 -142.871306 
L 397.581498 -152.55633 
L 412.338523 -164.480863 
L 412.338523 -209.791522 
L 412.338523 -209.791522 
L 397.581498 -191.221085 
L 382.824473 -184.030853 
L 368.067448 -168.894162 
L 353.310424 -177.36615 
L 338.553399 -160.876018 
L 323.796374 -145.600828 
L 309.039349 -143.808679 
L 294.282324 -100.903834 
L 279.5253 -111.997456 
L 264.768275 -121.759497 
L 250.01125 -93.90535 
L 235.254225 -98.291586 
L 220.4972 -87.202995 
L 205.740176 -71.491205 
L 190.983151 -60.641995 
L 176.226126 -60.52627 
L 161.469101 -49.04125 
L 146.712076 -49.04125 
L 131.955052 -57.229156 
L 117.198027 -72.573796 
L 102.441002 -55.72593 
L 87.683977 -49.04125 
z
" style="stroke: #1f77b4"/>
    </defs>
    <g clip-path="url(#p30c52e2af0)">
     <use xlink:href="#m9344683b60" x="0" y="322.35325" style="fill: #1f77b4; stroke: #1f77b4"/>
    </g>
   </g>
   <g id="PolyCollection_22">
    <defs>
     <path id="m3a90ee9ed9" d="M 87.683977 -49.04125 
L 87.683977 -49.04125 
L 102.441002 -55.72593 
L 117.198027 -72.573796 
L 131.955052 -57.229156 
L 146.712076 -49.04125 
L 161.469101 -49.04125 
L 176.226126 -60.52627 
L 190.983151 -60.641995 
L 205.740176 -71.491205 
L 220.4972 -87.202995 
L 235.254225 -98.291586 
L 250.01125 -93.90535 
L 264.768275 -121.759497 
L 279.5253 -111.997456 
L 294.282324 -100.903834 
L 309.039349 -143.808679 
L 323.796374 -145.600828 
L 338.553399 -160.876018 
L 353.310424 -177.36615 
L 368.067448 -168.894162 
L 382.824473 -184.030853 
L 397.581498 -191.221085 
L 412.338523 -209.791522 
L 412.338523 -210.691941 
L 412.338523 -210.691941 
L 397.581498 -199.004728 
L 382.824473 -189.026076 
L 368.067448 -168.894162 
L 353.310424 -177.36615 
L 338.553399 -160.876018 
L 323.796374 -145.600828 
L 309.039349 -143.808679 
L 294.282324 -100.903834 
L 279.5253 -111.997456 
L 264.768275 -121.759497 
L 250.01125 -93.90535 
L 235.254225 -98.291586 
L 220.4972 -87.202995 
L 205.740176 -71.491205 
L 190.983151 -60.641995 
L 176.226126 -60.52627 
L 161.469101 -49.04125 
L 146.712076 -49.04125 
L 131.955052 -57.229156 
L 117.198027 -72.573796 
L 102.441002 -55.72593 
L 87.683977 -49.04125 
z
" style="stroke: #ff7f0e"/>
    </defs>
    <g clip-path="url(#p30c52e2af0)">
     <use xlink:href="#m3a90ee9ed9" x="0" y="322.35325" style="fill: #ff7f0e; stroke: #ff7f0e"/>
    </g>
   </g>
   <g id="PolyCollection_23">
    <defs>
     <path id="m62324ea991" d="M 87.683977 -49.04125 
L 87.683977 -49.04125 
L 102.441002 -55.72593 
L 117.198027 -72.573796 
L 131.955052 -57.229156 
L 146.712076 -49.04125 
L 161.469101 -49.04125 
L 176.226126 -60.52627 
L 190.983151 -60.641995 
L 205.740176 -71.491205 
L 220.4972 -87.202995 
L 235.254225 -98.291586 
L 250.01125 -93.90535 
L 264.768275 -121.759497 
L 279.5253 -111.997456 
L 294.282324 -100.903834 
L 309.039349 -143.808679 
L 323.796374 -145.600828 
L 338.553399 -160.876018 
L 353.310424 -177.36615 
L 368.067448 -168.894162 
L 382.824473 -189.026076 
L 397.581498 -199.004728 
L 412.338523 -210.691941 
L 412.338523 -210.691941 
L 412.338523 -210.691941 
L 397.581498 -199.004728 
L 382.824473 -189.026076 
L 368.067448 -177.24925 
L 353.310424 -184.23012 
L 338.553399 -168.649034 
L 323.796374 -152.898483 
L 309.039349 -154.072902 
L 294.282324 -111.595106 
L 279.5253 -120.487852 
L 264.768275 -130.487453 
L 250.01125 -103.762523 
L 235.254225 -106.661676 
L 220.4972 -96.265858 
L 205.740176 -76.373785 
L 190.983151 -63.207105 
L 176.226126 -68.907963 
L 161.469101 -51.734981 
L 146.712076 -49.04125 
L 131.955052 -57.229156 
L 117.198027 -73.607329 
L 102.441002 -61.918149 
L 87.683977 -49.04125 
z
" style="stroke: #2ca02c"/>
    </defs>
    <g clip-path="url(#p30c52e2af0)">
     <use xlink:href="#m62324ea991" x="0" y="322.35325" style="fill: #2ca02c; stroke: #2ca02c"/>
    </g>
   </g>
   <g id="PolyCollection_24">
    <defs>
     <path id="mfa1257b8c4" d="M 87.683977 -49.04125 
L 87.683977 -49.04125 
L 102.441002 -61.918149 
L 117.198027 -73.607329 
L 131.955052 -57.229156 
L 146.712076 -49.04125 
L 161.469101 -51.734981 
L 176.226126 -68.907963 
L 190.983151 -63.207105 
L 205.740176 -76.373785 
L 220.4972 -96.265858 
L 235.254225 -106.661676 
L 250.01125 -103.762523 
L 264.768275 -130.487453 
L 279.5253 -120.487852 
L 294.282324 -111.595106 
L 309.039349 -154.072902 
L 323.796374 -152.898483 
L 338.553399 -168.649034 
L 353.310424 -184.23012 
L 368.067448 -177.24925 
L 382.824473 -189.026076 
L 397.581498 -199.004728 
L 412.338523 -210.691941 
L 412.338523 -269.583822 
L 412.338523 -269.583822 
L 397.581498 -262.447944 
L 382.824473 -250.784903 
L 368.067448 -235.080754 
L 353.310424 -246.032474 
L 338.553399 -231.175717 
L 323.796374 -211.081927 
L 309.039349 -202.587156 
L 294.282324 -165.242481 
L 279.5253 -175.854429 
L 264.768275 -179.937327 
L 250.01125 -159.840659 
L 235.254225 -162.483219 
L 220.4972 -131.605247 
L 205.740176 -113.109197 
L 190.983151 -99.812511 
L 176.226126 -97.831814 
L 161.469101 -82.883558 
L 146.712076 -75.643965 
L 131.955052 -69.426751 
L 117.198027 -93.508119 
L 102.441002 -93.499564 
L 87.683977 -49.04125 
z
" style="stroke: #d62728"/>
    </defs>
    <g clip-path="url(#p30c52e2af0)">
     <use xlink:href="#mfa1257b8c4" x="0" y="322.35325" style="fill: #d62728; stroke: #d62728"/>
    </g>
   </g>
   <g id="PolyCollection_25">
    <defs>
     <path id="me509cf7e0c" d="M 87.683977 -49.04125 
L 87.683977 -49.04125 
L 102.441002 -93.499564 
L 117.198027 -93.508119 
L 131.955052 -69.426751 
L 146.712076 -75.643965 
L 161.469101 -82.883558 
L 176.226126 -97.831814 
L 190.983151 -99.812511 
L 205.740176 -113.109197 
L 220.4972 -131.605247 
L 235.254225 -162.483219 
L 250.01125 -159.840659 
L 264.768275 -179.937327 
L 279.5253 -175.854429 
L 294.282324 -165.242481 
L 309.039349 -202.587156 
L 323.796374 -211.081927 
L 338.553399 -231.175717 
L 353.310424 -246.032474 
L 368.067448 -235.080754 
L 382.824473 -250.784903 
L 397.581498 -262.447944 
L 412.338523 -269.583822 
L 412.338523 -269.583822 
L 412.338523 -269.583822 
L 397.581498 -262.447944 
L 382.824473 -250.784903 
L 368.067448 -235.080754 
L 353.310424 -246.032474 
L 338.553399 -231.175717 
L 323.796374 -211.081927 
L 309.039349 -202.587156 
L 294.282324 -165.242481 
L 279.5253 -175.854429 
L 264.768275 -179.937327 
L 250.01125 -159.840659 
L 235.254225 -162.483219 
L 220.4972 -131.605247 
L 205.740176 -113.109197 
L 190.983151 -99.812511 
L 176.226126 -97.831814 
L 161.469101 -82.883558 
L 146.712076 -75.643965 
L 131.955052 -69.426751 
L 117.198027 -93.508119 
L 102.441002 -93.499564 
L 87.683977 -49.04125 
z
" style="stroke: #9467bd"/>
    </defs>
    <g clip-path="url(#p30c52e2af0)">
     <use xlink:href="#me509cf7e0c" x="0" y="322.35325" style="fill: #9467bd; stroke: #9467bd"/>
    </g>
   </g>
   <g id="PolyCollection_26">
    <defs>
     <path id="mb2190886f4" d="M 87.683977 -49.04125 
L 87.683977 -49.04125 
L 102.441002 -93.499564 
L 117.198027 -93.508119 
L 131.955052 -69.426751 
L 146.712076 -75.643965 
L 161.469101 -82.883558 
L 176.226126 -97.831814 
L 190.983151 -99.812511 
L 205.740176 -113.109197 
L 220.4972 -131.605247 
L 235.254225 -162.483219 
L 250.01125 -159.840659 
L 264.768275 -179.937327 
L 279.5253 -175.854429 
L 294.282324 -165.242481 
L 309.039349 -202.587156 
L 323.796374 -211.081927 
L 338.553399 -231.175717 
L 353.310424 -246.032474 
L 368.067448 -235.080754 
L 382.824473 -250.784903 
L 397.581498 -262.447944 
L 412.338523 -269.583822 
L 412.338523 -273.115761 
L 412.338523 -273.115761 
L 397.581498 -262.447944 
L 382.824473 -250.784903 
L 368.067448 -236.197462 
L 353.310424 -246.032474 
L 338.553399 -231.175717 
L 323.796374 -211.081927 
L 309.039349 -202.587156 
L 294.282324 -165.242481 
L 279.5253 -175.854429 
L 264.768275 -179.937327 
L 250.01125 -159.840659 
L 235.254225 -162.483219 
L 220.4972 -131.605247 
L 205.740176 -113.109197 
L 190.983151 -99.812511 
L 176.226126 -97.831814 
L 161.469101 -82.883558 
L 146.712076 -75.643965 
L 131.955052 -69.426751 
L 117.198027 -93.508119 
L 102.441002 -93.499564 
L 87.683977 -49.04125 
z
" style="stroke: #8c564b"/>
    </defs>
    <g clip-path="url(#p30c52e2af0)">
     <use xlink:href="#mb2190886f4" x="0" y="322.35325" style="fill: #8c564b; stroke: #8c564b"/>
    </g>
   </g>
   <g id="PolyCollection_27">
    <defs>
     <path id="md1ae78100a" d="M 87.683977 -49.04125 
L 87.683977 -49.04125 
L 102.441002 -93.499564 
L 117.198027 -93.508119 
L 131.955052 -69.426751 
L 146.712076 -75.643965 
L 161.469101 -82.883558 
L 176.226126 -97.831814 
L 190.983151 -99.812511 
L 205.740176 -113.109197 
L 220.4972 -131.605247 
L 235.254225 -162.483219 
L 250.01125 -159.840659 
L 264.768275 -179.937327 
L 279.5253 -175.854429 
L 294.282324 -165.242481 
L 309.039349 -202.587156 
L 323.796374 -211.081927 
L 338.553399 -231.175717 
L 353.310424 -246.032474 
L 368.067448 -236.197462 
L 382.824473 -250.784903 
L 397.581498 -262.447944 
L 412.338523 -273.115761 
L 412.338523 -273.115761 
L 412.338523 -273.115761 
L 397.581498 -262.447944 
L 382.824473 -250.784903 
L 368.067448 -238.189892 
L 353.310424 -246.032474 
L 338.553399 -232.970711 
L 323.796374 -217.174185 
L 309.039349 -202.587156 
L 294.282324 -165.242481 
L 279.5253 -175.854429 
L 264.768275 -179.937327 
L 250.01125 -159.840659 
L 235.254225 -162.483219 
L 220.4972 -131.605247 
L 205.740176 -113.109197 
L 190.983151 -99.812511 
L 176.226126 -97.831814 
L 161.469101 -82.883558 
L 146.712076 -75.643965 
L 131.955052 -69.426751 
L 117.198027 -93.508119 
L 102.441002 -93.499564 
L 87.683977 -49.04125 
z
" style="stroke: #e377c2"/>
    </defs>
    <g clip-path="url(#p30c52e2af0)">
     <use xlink:href="#md1ae78100a" x="0" y="322.35325" style="fill: #e377c2; stroke: #e377c2"/>
    </g>
   </g>
   <g id="PolyCollection_28">
    <defs>
     <path id="m2b1e7c0b11" d="M 87.683977 -49.04125 
L 87.683977 -49.04125 
L 102.441002 -93.499564 
L 117.198027 -93.508119 
L 131.955052 -69.426751 
L 146.712076 -75.643965 
L 161.469101 -82.883558 
L 176.226126 -97.831814 
L 190.983151 -99.812511 
L 205.740176 -113.109197 
L 220.4972 -131.605247 
L 235.254225 -162.483219 
L 250.01125 -159.840659 
L 264.768275 -179.937327 
L 279.5253 -175.854429 
L 294.282324 -165.242481 
L 309.039349 -202.587156 
L 323.796374 -217.174185 
L 338.553399 -232.970711 
L 353.310424 -246.032474 
L 368.067448 -238.189892 
L 382.824473 -250.784903 
L 397.581498 -262.447944 
L 412.338523 -273.115761 
L 412.338523 -278.354483 
L 412.338523 -278.354483 
L 397.581498 -262.447944 
L 382.824473 -250.784903 
L 368.067448 -238.189892 
L 353.310424 -246.032474 
L 338.553399 -232.970711 
L 323.796374 -217.174185 
L 309.039349 -202.587156 
L 294.282324 -165.242481 
L 279.5253 -175.854429 
L 264.768275 -179.937327 
L 250.01125 -159.840659 
L 235.254225 -162.483219 
L 220.4972 -131.605247 
L 205.740176 -113.109197 
L 190.983151 -99.812511 
L 176.226126 -97.831814 
L 161.469101 -82.883558 
L 146.712076 -75.643965 
L 131.955052 -69.426751 
L 117.198027 -93.508119 
L 102.441002 -93.499564 
L 87.683977 -49.04125 
z
" style="stroke: #7f7f7f"/>
    </defs>
    <g clip-path="url(#p30c52e2af0)">
     <use xlink:href="#m2b1e7c0b11" x="0" y="322.35325" style="fill: #7f7f7f; stroke: #7f7f7f"/>
    </g>
   </g>
   <g id="PolyCollection_29">
    <defs>
     <path id="mef85a1349c" d="M 87.683977 -49.04125 
L 87.683977 -49.04125 
L 102.441002 -93.499564 
L 117.198027 -93.508119 
L 131.955052 -69.426751 
L 146.712076 -75.643965 
L 161.469101 -82.883558 
L 176.226126 -97.831814 
L 190.983151 -99.812511 
L 205.740176 -113.109197 
L 220.4972 -131.605247 
L 235.254225 -162.483219 
L 250.01125 -159.840659 
L 264.768275 -179.937327 
L 279.5253 -175.854429 
L 294.282324 -165.242481 
L 309.039349 -202.587156 
L 323.796374 -217.174185 
L 338.553399 -232.970711 
L 353.310424 -246.032474 
L 368.067448 -238.189892 
L 382.824473 -250.784903 
L 397.581498 -262.447944 
L 412.338523 -278.354483 
L 412.338523 -278.354483 
L 412.338523 -278.354483 
L 397.581498 -266.08449 
L 382.824473 -256.911803 
L 368.067448 -238.189892 
L 353.310424 -246.032474 
L 338.553399 -232.970711 
L 323.796374 -217.174185 
L 309.039349 -206.408732 
L 294.282324 -165.242481 
L 279.5253 -175.854429 
L 264.768275 -179.937327 
L 250.01125 -159.840659 
L 235.254225 -162.483219 
L 220.4972 -131.605247 
L 205.740176 -113.109197 
L 190.983151 -99.812511 
L 176.226126 -97.831814 
L 161.469101 -82.883558 
L 146.712076 -75.643965 
L 131.955052 -69.426751 
L 117.198027 -93.508119 
L 102.441002 -93.499564 
L 87.683977 -49.04125 
z
" style="stroke: #bcbd22"/>
    </defs>
    <g clip-path="url(#p30c52e2af0)">
     <use xlink:href="#mef85a1349c" x="0" y="322.35325" style="fill: #bcbd22; stroke: #bcbd22"/>
    </g>
   </g>
   <g id="PolyCollection_30">
    <defs>
     <path id="m6286313de4" d="M 87.683977 -49.04125 
L 87.683977 -49.04125 
L 102.441002 -93.499564 
L 117.198027 -93.508119 
L 131.955052 -69.426751 
L 146.712076 -75.643965 
L 161.469101 -82.883558 
L 176.226126 -97.831814 
L 190.983151 -99.812511 
L 205.740176 -113.109197 
L 220.4972 -131.605247 
L 235.254225 -162.483219 
L 250.01125 -159.840659 
L 264.768275 -179.937327 
L 279.5253 -175.854429 
L 294.282324 -165.242481 
L 309.039349 -206.408732 
L 323.796374 -217.174185 
L 338.553399 -232.970711 
L 353.310424 -246.032474 
L 368.067448 -238.189892 
L 382.824473 -256.911803 
L 397.581498 -266.08449 
L 412.338523 -278.354483 
L 412.338523 -290.494665 
L 412.338523 -290.494665 
L 397.581498 -272.024262 
L 382.824473 -257.12185 
L 368.067448 -238.189892 
L 353.310424 -246.032474 
L 338.553399 -232.970711 
L 323.796374 -217.700441 
L 309.039349 -206.408732 
L 294.282324 -165.242481 
L 279.5253 -175.854429 
L 264.768275 -179.937327 
L 250.01125 -159.840659 
L 235.254225 -162.483219 
L 220.4972 -131.605247 
L 205.740176 -113.109197 
L 190.983151 -99.812511 
L 176.226126 -97.831814 
L 161.469101 -82.883558 
L 146.712076 -75.643965 
L 131.955052 -69.426751 
L 117.198027 -93.508119 
L 102.441002 -93.499564 
L 87.683977 -49.04125 
z
" style="stroke: #17becf"/>
    </defs>
    <g clip-path="url(#p30c52e2af0)">
     <use xlink:href="#m6286313de4" x="0" y="322.35325" style="fill: #17becf; stroke: #17becf"/>
    </g>
   </g>
   <g id="PolyCollection_31">
    <defs>
     <path id="m284556ade6" d="M 87.683977 -49.04125 
L 87.683977 -49.04125 
L 102.441002 -93.499564 
L 117.198027 -93.508119 
L 131.955052 -69.426751 
L 146.712076 -75.643965 
L 161.469101 -82.883558 
L 176.226126 -97.831814 
L 190.983151 -99.812511 
L 205.740176 -113.109197 
L 220.4972 -131.605247 
L 235.254225 -162.483219 
L 250.01125 -159.840659 
L 264.768275 -179.937327 
L 279.5253 -175.854429 
L 294.282324 -165.242481 
L 309.039349 -206.408732 
L 323.796374 -217.700441 
L 338.553399 -232.970711 
L 353.310424 -246.032474 
L 368.067448 -238.189892 
L 382.824473 -257.12185 
L 397.581498 -272.024262 
L 412.338523 -290.494665 
L 412.338523 -302.48125 
L 412.338523 -302.48125 
L 397.581498 -272.024262 
L 382.824473 -257.12185 
L 368.067448 -238.189892 
L 353.310424 -246.032474 
L 338.553399 -232.970711 
L 323.796374 -217.700441 
L 309.039349 -206.408732 
L 294.282324 -165.242481 
L 279.5253 -175.854429 
L 264.768275 -179.937327 
L 250.01125 -159.840659 
L 235.254225 -162.483219 
L 220.4972 -131.605247 
L 205.740176 -113.109197 
L 190.983151 -99.812511 
L 176.226126 -97.831814 
L 161.469101 -82.883558 
L 146.712076 -75.643965 
L 131.955052 -69.426751 
L 117.198027 -93.508119 
L 102.441002 -93.499564 
L 87.683977 -49.04125 
z
" style="stroke: #1f77b4"/>
    </defs>
    <g clip-path="url(#p30c52e2af0)">
     <use xlink:href="#m284556ade6" x="0" y="322.35325" style="fill: #1f77b4; stroke: #1f77b4"/>
    </g>
   </g>
   <g id="matplotlib.axis_1">
    <g id="xtick_1">
     <g id="line2d_1">
      <defs>
       <path id="m8c5f5af126" d="M 0 0 
L 0 3.5 
" style="stroke: #000000; stroke-width: 0.8"/>
      </defs>
      <g>
       <use xlink:href="#m8c5f5af126" x="146.712076" y="273.312" style="stroke: #000000; stroke-width: 0.8"/>
      </g>
     </g>
     <g id="text_1">
      <!-- 1980 -->
      <g transform="translate(100.902076 307.666375) scale(0.36 -0.36)">
       <defs>
        <path id="DejaVuSans-31" d="M 794 531 
L 1825 531 
L 1825 4091 
L 703 3866 
L 703 4441 
L 1819 4666 
L 2450 4666 
L 2450 531 
L 3481 531 
L 3481 0 
L 794 0 
L 794 531 
z
" transform="scale(0.015625)"/>
        <path id="DejaVuSans-39" d="M 703 97 
L 703 672 
Q 941 559 1184 500 
Q 1428 441 1663 441 
Q 2288 441 2617 861 
Q 2947 1281 2994 2138 
Q 2813 1869 2534 1725 
Q 2256 1581 1919 1581 
Q 1219 1581 811 2004 
Q 403 2428 403 3163 
Q 403 3881 828 4315 
Q 1253 4750 1959 4750 
Q 2769 4750 3195 4129 
Q 3622 3509 3622 2328 
Q 3622 1225 3098 567 
Q 2575 -91 1691 -91 
Q 1453 -91 1209 -44 
Q 966 3 703 97 
z
M 1959 2075 
Q 2384 2075 2632 2365 
Q 2881 2656 2881 3163 
Q 2881 3666 2632 3958 
Q 2384 4250 1959 4250 
Q 1534 4250 1286 3958 
Q 1038 3666 1038 3163 
Q 1038 2656 1286 2365 
Q 1534 2075 1959 2075 
z
" transform="scale(0.015625)"/>
        <path id="DejaVuSans-38" d="M 2034 2216 
Q 1584 2216 1326 1975 
Q 1069 1734 1069 1313 
Q 1069 891 1326 650 
Q 1584 409 2034 409 
Q 2484 409 2743 651 
Q 3003 894 3003 1313 
Q 3003 1734 2745 1975 
Q 2488 2216 2034 2216 
z
M 1403 2484 
Q 997 2584 770 2862 
Q 544 3141 544 3541 
Q 544 4100 942 4425 
Q 1341 4750 2034 4750 
Q 2731 4750 3128 4425 
Q 3525 4100 3525 3541 
Q 3525 3141 3298 2862 
Q 3072 2584 2669 2484 
Q 3125 2378 3379 2068 
Q 3634 1759 3634 1313 
Q 3634 634 3220 271 
Q 2806 -91 2034 -91 
Q 1263 -91 848 271 
Q 434 634 434 1313 
Q 434 1759 690 2068 
Q 947 2378 1403 2484 
z
M 1172 3481 
Q 1172 3119 1398 2916 
Q 1625 2713 2034 2713 
Q 2441 2713 2670 2916 
Q 2900 3119 2900 3481 
Q 2900 3844 2670 4047 
Q 2441 4250 2034 4250 
Q 1625 4250 1398 4047 
Q 1172 3844 1172 3481 
z
" transform="scale(0.015625)"/>
        <path id="DejaVuSans-30" d="M 2034 4250 
Q 1547 4250 1301 3770 
Q 1056 3291 1056 2328 
Q 1056 1369 1301 889 
Q 1547 409 2034 409 
Q 2525 409 2770 889 
Q 3016 1369 3016 2328 
Q 3016 3291 2770 3770 
Q 2525 4250 2034 4250 
z
M 2034 4750 
Q 2819 4750 3233 4129 
Q 3647 3509 3647 2328 
Q 3647 1150 3233 529 
Q 2819 -91 2034 -91 
Q 1250 -91 836 529 
Q 422 1150 422 2328 
Q 422 3509 836 4129 
Q 1250 4750 2034 4750 
z
" transform="scale(0.015625)"/>
       </defs>
       <use xlink:href="#DejaVuSans-31"/>
       <use xlink:href="#DejaVuSans-39" x="63.623047"/>
       <use xlink:href="#DejaVuSans-38" x="127.246094"/>
       <use xlink:href="#DejaVuSans-30" x="190.869141"/>
      </g>
     </g>
    </g>
    <g id="xtick_2">
     <g id="line2d_2">
      <g>
       <use xlink:href="#m8c5f5af126" x="294.282324" y="273.312" style="stroke: #000000; stroke-width: 0.8"/>
      </g>
     </g>
     <g id="text_2">
      <!-- 2000 -->
      <g transform="translate(248.472324 307.666375) scale(0.36 -0.36)">
       <defs>
        <path id="DejaVuSans-32" d="M 1228 531 
L 3431 531 
L 3431 0 
L 469 0 
L 469 531 
Q 828 903 1448 1529 
Q 2069 2156 2228 2338 
Q 2531 2678 2651 2914 
Q 2772 3150 2772 3378 
Q 2772 3750 2511 3984 
Q 2250 4219 1831 4219 
Q 1534 4219 1204 4116 
Q 875 4013 500 3803 
L 500 4441 
Q 881 4594 1212 4672 
Q 1544 4750 1819 4750 
Q 2544 4750 2975 4387 
Q 3406 4025 3406 3419 
Q 3406 3131 3298 2873 
Q 3191 2616 2906 2266 
Q 2828 2175 2409 1742 
Q 1991 1309 1228 531 
z
" transform="scale(0.015625)"/>
       </defs>
       <use xlink:href="#DejaVuSans-32"/>
       <use xlink:href="#DejaVuSans-30" x="63.623047"/>
       <use xlink:href="#DejaVuSans-30" x="127.246094"/>
       <use xlink:href="#DejaVuSans-30" x="190.869141"/>
      </g>
     </g>
    </g>
   </g>
   <g id="matplotlib.axis_2">
    <g id="ytick_1">
     <g id="line2d_3">
      <defs>
       <path id="mf66827286f" d="M 0 0 
L -3.5 0 
" style="stroke: #000000; stroke-width: 0.8"/>
      </defs>
      <g>
       <use xlink:href="#mf66827286f" x="71.45125" y="273.312" style="stroke: #000000; stroke-width: 0.8"/>
      </g>
     </g>
     <g id="text_3">
      <!-- 0.0 -->
      <g transform="translate(7.2 286.989187) scale(0.36 -0.36)">
       <defs>
        <path id="DejaVuSans-2e" d="M 684 794 
L 1344 794 
L 1344 0 
L 684 0 
L 684 794 
z
" transform="scale(0.015625)"/>
       </defs>
       <use xlink:href="#DejaVuSans-30"/>
       <use xlink:href="#DejaVuSans-2e" x="63.623047"/>
       <use xlink:href="#DejaVuSans-30" x="95.410156"/>
      </g>
     </g>
    </g>
    <g id="ytick_2">
     <g id="line2d_4">
      <g>
       <use xlink:href="#mf66827286f" x="71.45125" y="116.34399" style="stroke: #000000; stroke-width: 0.8"/>
      </g>
     </g>
     <g id="text_4">
      <!-- 0.5 -->
      <g transform="translate(7.2 130.021178) scale(0.36 -0.36)">
       <defs>
        <path id="DejaVuSans-35" d="M 691 4666 
L 3169 4666 
L 3169 4134 
L 1269 4134 
L 1269 2991 
Q 1406 3038 1543 3061 
Q 1681 3084 1819 3084 
Q 2600 3084 3056 2656 
Q 3513 2228 3513 1497 
Q 3513 744 3044 326 
Q 2575 -91 1722 -91 
Q 1428 -91 1123 -41 
Q 819 9 494 109 
L 494 744 
Q 775 591 1075 516 
Q 1375 441 1709 441 
Q 2250 441 2565 725 
Q 2881 1009 2881 1497 
Q 2881 1984 2565 2268 
Q 2250 2553 1709 2553 
Q 1456 2553 1204 2497 
Q 953 2441 691 2322 
L 691 4666 
z
" transform="scale(0.015625)"/>
       </defs>
       <use xlink:href="#DejaVuSans-30"/>
       <use xlink:href="#DejaVuSans-2e" x="63.623047"/>
       <use xlink:href="#DejaVuSans-35" x="95.410156"/>
      </g>
     </g>
    </g>
   </g>
   <g id="line2d_5">
    <path d="M 87.683977 273.312 
L 102.441002 273.312 
L 117.198027 273.312 
L 131.955052 273.312 
L 146.712076 273.312 
L 161.469101 273.312 
L 176.226126 273.312 
L 190.983151 273.312 
L 205.740176 273.312 
L 220.4972 273.312 
L 235.254225 273.312 
L 250.01125 273.312 
L 264.768275 269.608747 
L 279.5253 269.094224 
L 294.282324 272.084435 
L 309.039349 273.312 
L 323.796374 272.447209 
L 338.553399 269.553628 
L 353.310424 267.386388 
L 368.067448 267.714273 
L 382.824473 266.455736 
L 397.581498 263.63252 
L 412.338523 263.814724 
" clip-path="url(#p30c52e2af0)" style="fill: none; stroke: #1f77b4; stroke-width: 1.5; stroke-linecap: square"/>
   </g>
   <g id="line2d_6">
    <path d="M 87.683977 273.312 
L 102.441002 273.312 
L 117.198027 273.312 
L 131.955052 273.312 
L 146.712076 273.312 
L 161.469101 273.312 
L 176.226126 273.312 
L 190.983151 273.312 
L 205.740176 273.312 
L 220.4972 273.312 
L 235.254225 273.312 
L 250.01125 273.022024 
L 264.768275 269.608747 
L 279.5253 269.094224 
L 294.282324 272.084435 
L 309.039349 273.312 
L 323.796374 271.931319 
L 338.553399 269.553628 
L 353.310424 267.386388 
L 368.067448 267.714273 
L 382.824473 263.7395 
L 397.581498 263.63252 
L 412.338523 263.814724 
" clip-path="url(#p30c52e2af0)" style="fill: none; stroke: #ff7f0e; stroke-width: 1.5; stroke-linecap: square"/>
   </g>
   <g id="line2d_7">
    <path d="M 87.683977 273.312 
L 102.441002 273.312 
L 117.198027 273.312 
L 131.955052 273.312 
L 146.712076 273.312 
L 161.469101 273.312 
L 176.226126 273.312 
L 190.983151 273.312 
L 205.740176 273.312 
L 220.4972 273.312 
L 235.254225 271.498322 
L 250.01125 273.022024 
L 264.768275 268.733518 
L 279.5253 267.980531 
L 294.282324 272.084435 
L 309.039349 273.312 
L 323.796374 271.078615 
L 338.553399 266.831529 
L 353.310424 265.045161 
L 368.067448 263.068846 
L 382.824473 259.68149 
L 397.581498 258.042122 
L 412.338523 258.201181 
" clip-path="url(#p30c52e2af0)" style="fill: none; stroke: #2ca02c; stroke-width: 1.5; stroke-linecap: square"/>
   </g>
   <g id="line2d_8">
    <path d="M 87.683977 273.312 
L 102.441002 273.312 
L 117.198027 273.312 
L 131.955052 273.312 
L 146.712076 273.312 
L 161.469101 273.312 
L 176.226126 273.312 
L 190.983151 273.312 
L 205.740176 273.312 
L 220.4972 273.312 
L 235.254225 270.684455 
L 250.01125 270.670488 
L 264.768275 265.553839 
L 279.5253 263.304449 
L 294.282324 265.902351 
L 309.039349 262.852647 
L 323.796374 271.078615 
L 338.553399 266.831529 
L 353.310424 264.580959 
L 368.067448 263.068846 
L 382.824473 256.208511 
L 397.581498 255.131264 
L 412.338523 254.568519 
" clip-path="url(#p30c52e2af0)" style="fill: none; stroke: #d62728; stroke-width: 1.5; stroke-linecap: square"/>
   </g>
   <g id="line2d_9">
    <path d="M 87.683977 273.312 
L 102.441002 273.312 
L 117.198027 273.312 
L 131.955052 273.312 
L 146.712076 273.312 
L 161.469101 273.312 
L 176.226126 273.312 
L 190.983151 273.312 
L 205.740176 273.312 
L 220.4972 273.312 
L 235.254225 270.684455 
L 250.01125 270.670488 
L 264.768275 265.553839 
L 279.5253 263.304449 
L 294.282324 265.902351 
L 309.039349 262.852647 
L 323.796374 271.078615 
L 338.553399 266.831529 
L 353.310424 264.580959 
L 368.067448 263.068846 
L 382.824473 256.208511 
L 397.581498 255.131264 
L 412.338523 251.673317 
" clip-path="url(#p30c52e2af0)" style="fill: none; stroke: #9467bd; stroke-width: 1.5; stroke-linecap: square"/>
   </g>
   <g id="line2d_10">
    <path d="M 87.683977 273.312 
L 102.441002 273.312 
L 117.198027 273.312 
L 131.955052 273.312 
L 146.712076 273.312 
L 161.469101 273.312 
L 176.226126 273.312 
L 190.983151 273.312 
L 205.740176 273.312 
L 220.4972 273.312 
L 235.254225 270.684455 
L 250.01125 270.670488 
L 264.768275 265.553839 
L 279.5253 263.187324 
L 294.282324 265.902351 
L 309.039349 262.852647 
L 323.796374 265.301192 
L 338.553399 262.584016 
L 353.310424 264.313553 
L 368.067448 263.068846 
L 382.824473 253.856022 
L 397.581498 249.951886 
L 412.338523 243.935127 
" clip-path="url(#p30c52e2af0)" style="fill: none; stroke: #8c564b; stroke-width: 1.5; stroke-linecap: square"/>
   </g>
   <g id="line2d_11">
    <path d="M 87.683977 273.312 
L 102.441002 273.312 
L 117.198027 273.312 
L 131.955052 273.312 
L 146.712076 273.312 
L 161.469101 273.312 
L 176.226126 273.312 
L 190.983151 273.312 
L 205.740176 273.312 
L 220.4972 273.312 
L 235.254225 270.684455 
L 250.01125 270.670488 
L 264.768275 265.553839 
L 279.5253 263.187324 
L 294.282324 265.902351 
L 309.039349 262.852647 
L 323.796374 265.301192 
L 338.553399 262.584016 
L 353.310424 264.313553 
L 368.067448 263.068846 
L 382.824473 253.856022 
L 397.581498 248.581972 
L 412.338523 243.935127 
" clip-path="url(#p30c52e2af0)" style="fill: none; stroke: #e377c2; stroke-width: 1.5; stroke-linecap: square"/>
   </g>
   <g id="line2d_12">
    <path d="M 87.683977 273.312 
L 102.441002 273.312 
L 117.198027 273.312 
L 131.955052 273.312 
L 146.712076 273.312 
L 161.469101 273.312 
L 176.226126 273.312 
L 190.983151 273.312 
L 205.740176 273.312 
L 220.4972 273.312 
L 235.254225 270.684455 
L 250.01125 270.670488 
L 264.768275 265.553839 
L 279.5253 263.187324 
L 294.282324 265.902351 
L 309.039349 262.852647 
L 323.796374 265.301192 
L 338.553399 262.584016 
L 353.310424 264.313553 
L 368.067448 263.068846 
L 382.824473 253.856022 
L 397.581498 248.581972 
L 412.338523 243.935127 
" clip-path="url(#p30c52e2af0)" style="fill: none; stroke: #7f7f7f; stroke-width: 1.5; stroke-linecap: square"/>
   </g>
   <g id="line2d_13">
    <path d="M 87.683977 273.312 
L 102.441002 273.312 
L 117.198027 273.312 
L 131.955052 273.312 
L 146.712076 273.312 
L 161.469101 273.312 
L 176.226126 273.312 
L 190.983151 273.312 
L 205.740176 273.312 
L 220.4972 273.312 
L 235.254225 270.684455 
L 250.01125 270.670488 
L 264.768275 265.553839 
L 279.5253 263.187324 
L 294.282324 265.902351 
L 309.039349 262.852647 
L 323.796374 265.301192 
L 338.553399 262.584016 
L 353.310424 264.313553 
L 368.067448 263.068846 
L 382.824473 253.856022 
L 397.581498 248.581972 
L 412.338523 243.935127 
" clip-path="url(#p30c52e2af0)" style="fill: none; stroke: #bcbd22; stroke-width: 1.5; stroke-linecap: square"/>
   </g>
   <g id="line2d_14">
    <path d="M 87.683977 273.312 
L 102.441002 273.312 
L 117.198027 273.312 
L 131.955052 273.312 
L 146.712076 273.312 
L 161.469101 273.312 
L 176.226126 273.312 
L 190.983151 273.312 
L 205.740176 273.312 
L 220.4972 273.312 
L 235.254225 270.684455 
L 250.01125 270.670488 
L 264.768275 265.553839 
L 279.5253 263.187324 
L 294.282324 265.902351 
L 309.039349 262.852647 
L 323.796374 265.301192 
L 338.553399 262.584016 
L 353.310424 264.313553 
L 368.067448 263.068846 
L 382.824473 253.856022 
L 397.581498 248.581972 
L 412.338523 243.935127 
" clip-path="url(#p30c52e2af0)" style="fill: none; stroke: #17becf; stroke-width: 1.5; stroke-linecap: square"/>
   </g>
   <g id="line2d_15">
    <path d="M 87.683977 273.312 
L 102.441002 273.312 
L 117.198027 273.312 
L 131.955052 273.312 
L 146.712076 273.312 
L 161.469101 273.312 
L 176.226126 273.312 
L 190.983151 273.312 
L 205.740176 273.312 
L 220.4972 273.312 
L 235.254225 270.684455 
L 250.01125 270.670488 
L 264.768275 265.553839 
L 279.5253 263.187324 
L 294.282324 265.902351 
L 309.039349 262.852647 
L 323.796374 265.301192 
L 338.553399 262.584016 
L 353.310424 264.313553 
L 368.067448 263.068846 
L 382.824473 253.856022 
L 397.581498 248.581972 
L 412.338523 243.935127 
" clip-path="url(#p30c52e2af0)" style="fill: none; stroke: #1f77b4; stroke-width: 1.5; stroke-linecap: square"/>
   </g>
   <g id="line2d_16">
    <path d="M 87.683977 273.312 
L 102.441002 273.312 
L 117.198027 273.312 
L 131.955052 273.312 
L 146.712076 273.312 
L 161.469101 273.312 
L 176.226126 273.312 
L 190.983151 273.312 
L 205.740176 273.312 
L 220.4972 273.312 
L 235.254225 270.684455 
L 250.01125 270.670488 
L 264.768275 265.553839 
L 279.5253 262.445096 
L 294.282324 263.826781 
L 309.039349 260.035288 
L 323.796374 264.562999 
L 338.553399 256.535081 
L 353.310424 252.103651 
L 368.067448 242.792609 
L 382.824473 235.3038 
L 397.581498 233.23903 
L 412.338523 221.094428 
" clip-path="url(#p30c52e2af0)" style="fill: none; stroke: #ff7f0e; stroke-width: 1.5; stroke-linecap: square"/>
   </g>
   <g id="line2d_17">
    <path d="M 87.683977 273.312 
L 102.441002 273.312 
L 117.198027 273.312 
L 131.955052 273.312 
L 146.712076 273.312 
L 161.469101 273.312 
L 176.226126 273.312 
L 190.983151 273.312 
L 205.740176 273.312 
L 220.4972 273.312 
L 235.254225 270.684455 
L 250.01125 270.670488 
L 264.768275 259.779213 
L 279.5253 261.041678 
L 294.282324 262.968048 
L 309.039349 257.488245 
L 323.796374 264.443719 
L 338.553399 255.722557 
L 353.310424 249.404968 
L 368.067448 242.792609 
L 382.824473 235.3038 
L 397.581498 231.784351 
L 412.338523 221.094428 
" clip-path="url(#p30c52e2af0)" style="fill: none; stroke: #2ca02c; stroke-width: 1.5; stroke-linecap: square"/>
   </g>
   <g id="line2d_18">
    <path d="M 87.683977 273.312 
L 102.441002 273.312 
L 117.198027 254.85054 
L 131.955052 265.124094 
L 146.712076 273.312 
L 161.469101 273.312 
L 176.226126 273.312 
L 190.983151 273.312 
L 205.740176 273.312 
L 220.4972 273.312 
L 235.254225 270.125908 
L 250.01125 270.670488 
L 264.768275 259.779213 
L 279.5253 259.578503 
L 294.282324 262.865597 
L 309.039349 257.488245 
L 323.796374 264.443719 
L 338.553399 253.766406 
L 353.310424 241.416487 
L 368.067448 238.851449 
L 382.824473 226.943238 
L 397.581498 227.536732 
L 412.338523 217.809319 
" clip-path="url(#p30c52e2af0)" style="fill: none; stroke: #d62728; stroke-width: 1.5; stroke-linecap: square"/>
   </g>
   <g id="line2d_19">
    <path d="M 87.683977 273.312 
L 102.441002 273.312 
L 117.198027 254.85054 
L 131.955052 265.124094 
L 146.712076 273.312 
L 161.469101 273.312 
L 176.226126 273.312 
L 190.983151 273.312 
L 205.740176 273.312 
L 220.4972 273.312 
L 235.254225 270.125908 
L 250.01125 270.670488 
L 264.768275 257.460315 
L 279.5253 257.244004 
L 294.282324 262.865597 
L 309.039349 255.657643 
L 323.796374 260.289512 
L 338.553399 249.349096 
L 353.310424 230.75644 
L 368.067448 226.202038 
L 382.824473 221.532092 
L 397.581498 225.1585 
L 412.338523 209.650603 
" clip-path="url(#p30c52e2af0)" style="fill: none; stroke: #9467bd; stroke-width: 1.5; stroke-linecap: square"/>
   </g>
   <g id="line2d_20">
    <path d="M 87.683977 273.312 
L 102.441002 266.62732 
L 117.198027 249.779454 
L 131.955052 265.124094 
L 146.712076 273.312 
L 161.469101 273.312 
L 176.226126 273.312 
L 190.983151 271.924505 
L 205.740176 260.484671 
L 220.4972 249.451731 
L 235.254225 244.239623 
L 250.01125 250.721797 
L 264.768275 232.317012 
L 279.5253 231.743597 
L 294.282324 244.477256 
L 309.039349 235.485174 
L 323.796374 231.522974 
L 338.553399 215.908807 
L 353.310424 202.661342 
L 368.067448 205.595766 
L 382.824473 197.829843 
L 397.581498 202.855363 
L 412.338523 189.525701 
" clip-path="url(#p30c52e2af0)" style="fill: none; stroke: #8c564b; stroke-width: 1.5; stroke-linecap: square"/>
   </g>
   <g id="line2d_21">
    <path d="M 87.683977 273.312 
L 102.441002 266.62732 
L 117.198027 249.779454 
L 131.955052 265.124094 
L 146.712076 273.312 
L 161.469101 273.312 
L 176.226126 273.312 
L 190.983151 271.924505 
L 205.740176 260.484671 
L 220.4972 249.451731 
L 235.254225 244.239623 
L 250.01125 250.721797 
L 264.768275 232.317012 
L 279.5253 231.743597 
L 294.282324 244.477256 
L 309.039349 235.485174 
L 323.796374 231.522974 
L 338.553399 215.908807 
L 353.310424 202.661342 
L 368.067448 205.595766 
L 382.824473 197.829843 
L 397.581498 202.855363 
L 412.338523 189.525701 
" clip-path="url(#p30c52e2af0)" style="fill: none; stroke: #e377c2; stroke-width: 1.5; stroke-linecap: square"/>
   </g>
   <g id="line2d_22">
    <path d="M 87.683977 273.312 
L 102.441002 266.62732 
L 117.198027 249.779454 
L 131.955052 265.124094 
L 146.712076 273.312 
L 161.469101 273.312 
L 176.226126 273.312 
L 190.983151 271.924505 
L 205.740176 260.484671 
L 220.4972 249.451731 
L 235.254225 244.239623 
L 250.01125 250.721797 
L 264.768275 227.775843 
L 279.5253 231.743597 
L 294.282324 244.477256 
L 309.039349 228.892715 
L 323.796374 225.14812 
L 338.553399 211.24271 
L 353.310424 198.084696 
L 368.067448 201.330881 
L 382.824473 187.823968 
L 397.581498 179.668806 
L 412.338523 165.970214 
" clip-path="url(#p30c52e2af0)" style="fill: none; stroke: #7f7f7f; stroke-width: 1.5; stroke-linecap: square"/>
   </g>
   <g id="line2d_23">
    <path d="M 87.683977 273.312 
L 102.441002 266.62732 
L 117.198027 249.779454 
L 131.955052 265.124094 
L 146.712076 273.312 
L 161.469101 273.312 
L 176.226126 273.312 
L 190.983151 271.924505 
L 205.740176 260.484671 
L 220.4972 249.451731 
L 235.254225 244.239623 
L 250.01125 250.721797 
L 264.768275 227.775843 
L 279.5253 231.743597 
L 294.282324 242.194347 
L 309.039349 212.886677 
L 323.796374 213.30565 
L 338.553399 198.855929 
L 353.310424 189.825906 
L 368.067448 198.259718 
L 382.824473 179.481944 
L 397.581498 169.79692 
L 412.338523 157.872387 
" clip-path="url(#p30c52e2af0)" style="fill: none; stroke: #bcbd22; stroke-width: 1.5; stroke-linecap: square"/>
   </g>
   <g id="line2d_24">
    <path d="M 87.683977 273.312 
L 102.441002 266.62732 
L 117.198027 249.779454 
L 131.955052 265.124094 
L 146.712076 273.312 
L 161.469101 273.312 
L 176.226126 273.312 
L 190.983151 271.924505 
L 205.740176 260.484671 
L 220.4972 249.451731 
L 235.254225 244.239623 
L 250.01125 250.721797 
L 264.768275 227.775843 
L 279.5253 231.743597 
L 294.282324 242.194347 
L 309.039349 212.886677 
L 323.796374 213.30565 
L 338.553399 198.855929 
L 353.310424 189.825906 
L 368.067448 198.259718 
L 382.824473 179.481944 
L 397.581498 169.79692 
L 412.338523 157.872387 
" clip-path="url(#p30c52e2af0)" style="fill: none; stroke: #17becf; stroke-width: 1.5; stroke-linecap: square"/>
   </g>
   <g id="line2d_25">
    <path d="M 87.683977 273.312 
L 102.441002 266.62732 
L 117.198027 249.779454 
L 131.955052 265.124094 
L 146.712076 273.312 
L 161.469101 273.312 
L 176.226126 261.82698 
L 190.983151 261.711255 
L 205.740176 250.862045 
L 220.4972 235.150255 
L 235.254225 224.061664 
L 250.01125 228.4479 
L 264.768275 200.593753 
L 279.5253 210.355794 
L 294.282324 221.449416 
L 309.039349 178.544571 
L 323.796374 176.752422 
L 338.553399 161.477232 
L 353.310424 144.9871 
L 368.067448 153.459088 
L 382.824473 138.322397 
L 397.581498 131.132165 
L 412.338523 112.561728 
" clip-path="url(#p30c52e2af0)" style="fill: none; stroke: #1f77b4; stroke-width: 1.5; stroke-linecap: square"/>
   </g>
   <g id="line2d_26">
    <path d="M 87.683977 273.312 
L 102.441002 266.62732 
L 117.198027 249.779454 
L 131.955052 265.124094 
L 146.712076 273.312 
L 161.469101 273.312 
L 176.226126 261.82698 
L 190.983151 261.711255 
L 205.740176 250.862045 
L 220.4972 235.150255 
L 235.254225 224.061664 
L 250.01125 228.4479 
L 264.768275 200.593753 
L 279.5253 210.355794 
L 294.282324 221.449416 
L 309.039349 178.544571 
L 323.796374 176.752422 
L 338.553399 161.477232 
L 353.310424 144.9871 
L 368.067448 153.459088 
L 382.824473 133.327174 
L 397.581498 123.348522 
L 412.338523 111.661309 
" clip-path="url(#p30c52e2af0)" style="fill: none; stroke: #ff7f0e; stroke-width: 1.5; stroke-linecap: square"/>
   </g>
   <g id="line2d_27">
    <path d="M 87.683977 273.312 
L 102.441002 260.435101 
L 117.198027 248.745921 
L 131.955052 265.124094 
L 146.712076 273.312 
L 161.469101 270.618269 
L 176.226126 253.445287 
L 190.983151 259.146145 
L 205.740176 245.979465 
L 220.4972 226.087392 
L 235.254225 215.691574 
L 250.01125 218.590727 
L 264.768275 191.865797 
L 279.5253 201.865398 
L 294.282324 210.758144 
L 309.039349 168.280348 
L 323.796374 169.454767 
L 338.553399 153.704216 
L 353.310424 138.12313 
L 368.067448 145.104 
L 382.824473 133.327174 
L 397.581498 123.348522 
L 412.338523 111.661309 
" clip-path="url(#p30c52e2af0)" style="fill: none; stroke: #2ca02c; stroke-width: 1.5; stroke-linecap: square"/>
   </g>
   <g id="line2d_28">
    <path d="M 87.683977 273.312 
L 102.441002 228.853686 
L 117.198027 228.845131 
L 131.955052 252.926499 
L 146.712076 246.709285 
L 161.469101 239.469692 
L 176.226126 224.521436 
L 190.983151 222.540739 
L 205.740176 209.244053 
L 220.4972 190.748003 
L 235.254225 159.870031 
L 250.01125 162.512591 
L 264.768275 142.415923 
L 279.5253 146.498821 
L 294.282324 157.110769 
L 309.039349 119.766094 
L 323.796374 111.271323 
L 338.553399 91.177533 
L 353.310424 76.320776 
L 368.067448 87.272496 
L 382.824473 71.568347 
L 397.581498 59.905306 
L 412.338523 52.769428 
" clip-path="url(#p30c52e2af0)" style="fill: none; stroke: #d62728; stroke-width: 1.5; stroke-linecap: square"/>
   </g>
   <g id="line2d_29">
    <path d="M 87.683977 273.312 
L 102.441002 228.853686 
L 117.198027 228.845131 
L 131.955052 252.926499 
L 146.712076 246.709285 
L 161.469101 239.469692 
L 176.226126 224.521436 
L 190.983151 222.540739 
L 205.740176 209.244053 
L 220.4972 190.748003 
L 235.254225 159.870031 
L 250.01125 162.512591 
L 264.768275 142.415923 
L 279.5253 146.498821 
L 294.282324 157.110769 
L 309.039349 119.766094 
L 323.796374 111.271323 
L 338.553399 91.177533 
L 353.310424 76.320776 
L 368.067448 87.272496 
L 382.824473 71.568347 
L 397.581498 59.905306 
L 412.338523 52.769428 
" clip-path="url(#p30c52e2af0)" style="fill: none; stroke: #9467bd; stroke-width: 1.5; stroke-linecap: square"/>
   </g>
   <g id="line2d_30">
    <path d="M 87.683977 273.312 
L 102.441002 228.853686 
L 117.198027 228.845131 
L 131.955052 252.926499 
L 146.712076 246.709285 
L 161.469101 239.469692 
L 176.226126 224.521436 
L 190.983151 222.540739 
L 205.740176 209.244053 
L 220.4972 190.748003 
L 235.254225 159.870031 
L 250.01125 162.512591 
L 264.768275 142.415923 
L 279.5253 146.498821 
L 294.282324 157.110769 
L 309.039349 119.766094 
L 323.796374 111.271323 
L 338.553399 91.177533 
L 353.310424 76.320776 
L 368.067448 86.155788 
L 382.824473 71.568347 
L 397.581498 59.905306 
L 412.338523 49.237489 
" clip-path="url(#p30c52e2af0)" style="fill: none; stroke: #8c564b; stroke-width: 1.5; stroke-linecap: square"/>
   </g>
   <g id="line2d_31">
    <path d="M 87.683977 273.312 
L 102.441002 228.853686 
L 117.198027 228.845131 
L 131.955052 252.926499 
L 146.712076 246.709285 
L 161.469101 239.469692 
L 176.226126 224.521436 
L 190.983151 222.540739 
L 205.740176 209.244053 
L 220.4972 190.748003 
L 235.254225 159.870031 
L 250.01125 162.512591 
L 264.768275 142.415923 
L 279.5253 146.498821 
L 294.282324 157.110769 
L 309.039349 119.766094 
L 323.796374 105.179065 
L 338.553399 89.382539 
L 353.310424 76.320776 
L 368.067448 84.163358 
L 382.824473 71.568347 
L 397.581498 59.905306 
L 412.338523 49.237489 
" clip-path="url(#p30c52e2af0)" style="fill: none; stroke: #e377c2; stroke-width: 1.5; stroke-linecap: square"/>
   </g>
   <g id="line2d_32">
    <path d="M 87.683977 273.312 
L 102.441002 228.853686 
L 117.198027 228.845131 
L 131.955052 252.926499 
L 146.712076 246.709285 
L 161.469101 239.469692 
L 176.226126 224.521436 
L 190.983151 222.540739 
L 205.740176 209.244053 
L 220.4972 190.748003 
L 235.254225 159.870031 
L 250.01125 162.512591 
L 264.768275 142.415923 
L 279.5253 146.498821 
L 294.282324 157.110769 
L 309.039349 119.766094 
L 323.796374 105.179065 
L 338.553399 89.382539 
L 353.310424 76.320776 
L 368.067448 84.163358 
L 382.824473 71.568347 
L 397.581498 59.905306 
L 412.338523 43.998767 
" clip-path="url(#p30c52e2af0)" style="fill: none; stroke: #7f7f7f; stroke-width: 1.5; stroke-linecap: square"/>
   </g>
   <g id="line2d_33">
    <path d="M 87.683977 273.312 
L 102.441002 228.853686 
L 117.198027 228.845131 
L 131.955052 252.926499 
L 146.712076 246.709285 
L 161.469101 239.469692 
L 176.226126 224.521436 
L 190.983151 222.540739 
L 205.740176 209.244053 
L 220.4972 190.748003 
L 235.254225 159.870031 
L 250.01125 162.512591 
L 264.768275 142.415923 
L 279.5253 146.498821 
L 294.282324 157.110769 
L 309.039349 115.944518 
L 323.796374 105.179065 
L 338.553399 89.382539 
L 353.310424 76.320776 
L 368.067448 84.163358 
L 382.824473 65.441447 
L 397.581498 56.26876 
L 412.338523 43.998767 
" clip-path="url(#p30c52e2af0)" style="fill: none; stroke: #bcbd22; stroke-width: 1.5; stroke-linecap: square"/>
   </g>
   <g id="line2d_34">
    <path d="M 87.683977 273.312 
L 102.441002 228.853686 
L 117.198027 228.845131 
L 131.955052 252.926499 
L 146.712076 246.709285 
L 161.469101 239.469692 
L 176.226126 224.521436 
L 190.983151 222.540739 
L 205.740176 209.244053 
L 220.4972 190.748003 
L 235.254225 159.870031 
L 250.01125 162.512591 
L 264.768275 142.415923 
L 279.5253 146.498821 
L 294.282324 157.110769 
L 309.039349 115.944518 
L 323.796374 104.652809 
L 338.553399 89.382539 
L 353.310424 76.320776 
L 368.067448 84.163358 
L 382.824473 65.2314 
L 397.581498 50.328988 
L 412.338523 31.858585 
" clip-path="url(#p30c52e2af0)" style="fill: none; stroke: #17becf; stroke-width: 1.5; stroke-linecap: square"/>
   </g>
   <g id="line2d_35">
    <path d="M 87.683977 273.312 
L 102.441002 228.853686 
L 117.198027 228.845131 
L 131.955052 252.926499 
L 146.712076 246.709285 
L 161.469101 239.469692 
L 176.226126 224.521436 
L 190.983151 222.540739 
L 205.740176 209.244053 
L 220.4972 190.748003 
L 235.254225 159.870031 
L 250.01125 162.512591 
L 264.768275 142.415923 
L 279.5253 146.498821 
L 294.282324 157.110769 
L 309.039349 115.944518 
L 323.796374 104.652809 
L 338.553399 89.382539 
L 353.310424 76.320776 
L 368.067448 84.163358 
L 382.824473 65.2314 
L 397.581498 50.328988 
L 412.338523 19.872 
" clip-path="url(#p30c52e2af0)" style="fill: none; stroke: #1f77b4; stroke-width: 1.5; stroke-linecap: square"/>
   </g>
   <g id="patch_3">
    <path d="M 71.45125 273.312 
L 71.45125 7.2 
" style="fill: none; stroke: #000000; stroke-width: 0.8; stroke-linejoin: miter; stroke-linecap: square"/>
   </g>
   <g id="patch_4">
    <path d="M 428.57125 273.312 
L 428.57125 7.2 
" style="fill: none; stroke: #000000; stroke-width: 0.8; stroke-linejoin: miter; stroke-linecap: square"/>
   </g>
   <g id="patch_5">
    <path d="M 71.45125 273.312 
L 428.57125 273.312 
" style="fill: none; stroke: #000000; stroke-width: 0.8; stroke-linejoin: miter; stroke-linecap: square"/>
   </g>
   <g id="patch_6">
    <path d="M 71.45125 7.2 
L 428.57125 7.2 
" style="fill: none; stroke: #000000; stroke-width: 0.8; stroke-linejoin: miter; stroke-linecap: square"/>
   </g>
  </g>
 </g>
 <defs>
  <clipPath id="p30c52e2af0">
   <rect x="71.45125" y="7.2" width="357.12" height="266.112"/>
  </clipPath>
 </defs>
</svg>
