<?xml version="1.0" encoding="utf-8" standalone="no"?>
<!DOCTYPE svg PUBLIC "-//W3C//DTD SVG 1.1//EN"
  "http://www.w3.org/Graphics/SVG/1.1/DTD/svg11.dtd">
<svg xmlns:xlink="http://www.w3.org/1999/xlink" width="1274.445pt" height="508.125pt" viewBox="0 0 1274.445 508.125" xmlns="http://www.w3.org/2000/svg" version="1.1">
 <metadata>
  <rdf:RDF xmlns:dc="http://purl.org/dc/elements/1.1/" xmlns:cc="http://creativecommons.org/ns#" xmlns:rdf="http://www.w3.org/1999/02/22-rdf-syntax-ns#">
   <cc:Work>
    <dc:type rdf:resource="http://purl.org/dc/dcmitype/StillImage"/>
    <dc:date>2024-05-03T12:39:53.224036</dc:date>
    <dc:format>image/svg+xml</dc:format>
    <dc:creator>
     <cc:Agent>
      <dc:title>Matplotlib v3.7.0, https://matplotlib.org/</dc:title>
     </cc:Agent>
    </dc:creator>
   </cc:Work>
  </rdf:RDF>
 </metadata>
 <defs>
  <style type="text/css">*{stroke-linejoin: round; stroke-linecap: butt}</style>
 </defs>
 <g id="figure_1">
  <g id="patch_1">
   <path d="M 0 508.125 
L 1274.445 508.125 
L 1274.445 -0 
L 0 -0 
z
" style="fill: #ffffff"/>
  </g>
  <g id="axes_1">
   <g id="patch_2">
    <path d="M 39.645 478.44 
L 1267.245 478.44 
L 1267.245 7.2 
L 39.645 7.2 
z
" style="fill: #ffffff"/>
   </g>
   <g id="PolyCollection_1">
    <defs>
     <path id="m5108ea3a5a" d="M 95.445 -29.685 
L 95.445 -29.685 
L 146.172273 -29.685 
L 196.899545 -29.685 
L 247.626818 -29.685 
L 298.354091 -29.685 
L 349.081364 -29.685 
L 399.808636 -29.685 
L 450.535909 -29.685 
L 501.263182 -29.685 
L 551.990455 -29.685 
L 602.717727 -29.685 
L 653.445 -29.685 
L 704.172273 -29.685 
L 754.899545 -29.685 
L 805.626818 -29.685 
L 856.354091 -29.685 
L 907.081364 -29.685 
L 957.808636 -29.685 
L 1008.535909 -29.685 
L 1059.263182 -29.685 
L 1109.990455 -29.685 
L 1160.717727 -29.685 
L 1211.445 -29.685 
L 1211.445 -133.972705 
L 1211.445 -133.972705 
L 1160.717727 -142.032362 
L 1109.990455 -139.049589 
L 1059.263182 -132.094954 
L 1008.535909 -139.126669 
L 957.808636 -140.409336 
L 907.081364 -132.718182 
L 856.354091 -115.595659 
L 805.626818 -124.685559 
L 754.899545 -127.729979 
L 704.172273 -117.252485 
L 653.445 -128.990033 
L 602.717727 -128.535649 
L 551.990455 -92.265169 
L 501.263182 -94.737293 
L 450.535909 -94.507072 
L 399.808636 -80.90432 
L 349.081364 -84.843938 
L 298.354091 -76.793974 
L 247.626818 -51.284907 
L 196.899545 -64.925982 
L 146.172273 -85.610421 
L 95.445 -29.685 
z
" style="stroke: #000000"/>
    </defs>
    <g clip-path="url(#p578ff1a3ce)">
     <use xlink:href="#m5108ea3a5a" x="0" y="508.125" style="stroke: #000000"/>
    </g>
   </g>
   <g id="PolyCollection_2">
    <defs>
     <path id="m5e626d91d1" d="M 95.445 -29.685 
L 95.445 -29.685 
L 146.172273 -85.610421 
L 196.899545 -64.925982 
L 247.626818 -51.284907 
L 298.354091 -76.793974 
L 349.081364 -84.843938 
L 399.808636 -80.90432 
L 450.535909 -94.507072 
L 501.263182 -94.737293 
L 551.990455 -92.265169 
L 602.717727 -128.535649 
L 653.445 -128.990033 
L 704.172273 -117.252485 
L 754.899545 -127.729979 
L 805.626818 -124.685559 
L 856.354091 -115.595659 
L 907.081364 -132.718182 
L 957.808636 -140.409336 
L 1008.535909 -139.126669 
L 1059.263182 -132.094954 
L 1109.990455 -139.049589 
L 1160.717727 -142.032362 
L 1211.445 -133.972705 
L 1211.445 -214.210329 
L 1211.445 -214.210329 
L 1160.717727 -210.501199 
L 1109.990455 -211.936287 
L 1059.263182 -211.429402 
L 1008.535909 -218.52872 
L 957.808636 -206.600777 
L 907.081364 -197.447855 
L 856.354091 -176.409804 
L 805.626818 -161.421374 
L 754.899545 -165.604214 
L 704.172273 -165.387437 
L 653.445 -168.433393 
L 602.717727 -164.267451 
L 551.990455 -117.590698 
L 501.263182 -111.777361 
L 450.535909 -112.593037 
L 399.808636 -101.242375 
L 349.081364 -84.843938 
L 298.354091 -76.793974 
L 247.626818 -51.284907 
L 196.899545 -64.925982 
L 146.172273 -85.610421 
L 95.445 -29.685 
z
" style="stroke: #4b0055"/>
    </defs>
    <g clip-path="url(#p578ff1a3ce)">
     <use xlink:href="#m5e626d91d1" x="0" y="508.125" style="fill: #4b0055; stroke: #4b0055"/>
    </g>
   </g>
   <g id="PolyCollection_3">
    <defs>
     <path id="ma3be0d352d" d="M 95.445 -29.685 
L 95.445 -29.685 
L 146.172273 -85.610421 
L 196.899545 -64.925982 
L 247.626818 -51.284907 
L 298.354091 -76.793974 
L 349.081364 -84.843938 
L 399.808636 -101.242375 
L 450.535909 -112.593037 
L 501.263182 -111.777361 
L 551.990455 -117.590698 
L 602.717727 -164.267451 
L 653.445 -168.433393 
L 704.172273 -165.387437 
L 754.899545 -165.604214 
L 805.626818 -161.421374 
L 856.354091 -176.409804 
L 907.081364 -197.447855 
L 957.808636 -206.600777 
L 1008.535909 -218.52872 
L 1059.263182 -211.429402 
L 1109.990455 -211.936287 
L 1160.717727 -210.501199 
L 1211.445 -214.210329 
L 1211.445 -255.923171 
L 1211.445 -255.923171 
L 1160.717727 -251.560726 
L 1109.990455 -229.655024 
L 1059.263182 -218.981804 
L 1008.535909 -226.633197 
L 957.808636 -214.863656 
L 907.081364 -208.736661 
L 856.354091 -188.08395 
L 805.626818 -161.421374 
L 754.899545 -165.604214 
L 704.172273 -173.42909 
L 653.445 -168.433393 
L 602.717727 -164.267451 
L 551.990455 -117.590698 
L 501.263182 -111.777361 
L 450.535909 -112.593037 
L 399.808636 -101.242375 
L 349.081364 -84.843938 
L 298.354091 -76.793974 
L 247.626818 -51.284907 
L 196.899545 -64.925982 
L 146.172273 -85.610421 
L 95.445 -29.685 
z
" style="stroke: #7d008e"/>
    </defs>
    <g clip-path="url(#p578ff1a3ce)">
     <use xlink:href="#ma3be0d352d" x="0" y="508.125" style="fill: #7d008e; stroke: #7d008e"/>
    </g>
   </g>
   <g id="PolyCollection_4">
    <defs>
     <path id="m46921e9dd8" d="M 95.445 -29.685 
L 95.445 -29.685 
L 146.172273 -85.610421 
L 196.899545 -64.925982 
L 247.626818 -51.284907 
L 298.354091 -76.793974 
L 349.081364 -84.843938 
L 399.808636 -101.242375 
L 450.535909 -112.593037 
L 501.263182 -111.777361 
L 551.990455 -117.590698 
L 602.717727 -164.267451 
L 653.445 -168.433393 
L 704.172273 -173.42909 
L 754.899545 -165.604214 
L 805.626818 -161.421374 
L 856.354091 -188.08395 
L 907.081364 -208.736661 
L 957.808636 -214.863656 
L 1008.535909 -226.633197 
L 1059.263182 -218.981804 
L 1109.990455 -229.655024 
L 1160.717727 -251.560726 
L 1211.445 -255.923171 
L 1211.445 -296.370242 
L 1211.445 -296.370242 
L 1160.717727 -278.73052 
L 1109.990455 -262.507916 
L 1059.263182 -254.887641 
L 1008.535909 -248.254898 
L 957.808636 -225.575312 
L 907.081364 -210.043878 
L 856.354091 -193.073024 
L 805.626818 -165.096862 
L 754.899545 -166.918576 
L 704.172273 -173.42909 
L 653.445 -168.433393 
L 602.717727 -164.267451 
L 551.990455 -117.590698 
L 501.263182 -111.777361 
L 450.535909 -112.593037 
L 399.808636 -101.242375 
L 349.081364 -84.843938 
L 298.354091 -76.793974 
L 247.626818 -51.284907 
L 196.899545 -64.925982 
L 146.172273 -85.610421 
L 95.445 -29.685 
z
" style="stroke: #870098"/>
    </defs>
    <g clip-path="url(#p578ff1a3ce)">
     <use xlink:href="#m46921e9dd8" x="0" y="508.125" style="fill: #870098; stroke: #870098"/>
    </g>
   </g>
   <g id="PolyCollection_5">
    <defs>
     <path id="mabc74422d2" d="M 95.445 -29.685 
L 95.445 -29.685 
L 146.172273 -85.610421 
L 196.899545 -64.925982 
L 247.626818 -51.284907 
L 298.354091 -76.793974 
L 349.081364 -84.843938 
L 399.808636 -101.242375 
L 450.535909 -112.593037 
L 501.263182 -111.777361 
L 551.990455 -117.590698 
L 602.717727 -164.267451 
L 653.445 -168.433393 
L 704.172273 -173.42909 
L 754.899545 -166.918576 
L 805.626818 -165.096862 
L 856.354091 -193.073024 
L 907.081364 -210.043878 
L 957.808636 -225.575312 
L 1008.535909 -248.254898 
L 1059.263182 -254.887641 
L 1109.990455 -262.507916 
L 1160.717727 -278.73052 
L 1211.445 -296.370242 
L 1211.445 -332.008088 
L 1211.445 -332.008088 
L 1160.717727 -318.225658 
L 1109.990455 -304.480647 
L 1059.263182 -291.377914 
L 1008.535909 -298.006635 
L 957.808636 -284.792491 
L 907.081364 -260.984622 
L 856.354091 -228.795104 
L 805.626818 -197.659551 
L 754.899545 -212.075547 
L 704.172273 -217.953688 
L 653.445 -203.759199 
L 602.717727 -210.107748 
L 551.990455 -159.843259 
L 501.263182 -134.492422 
L 450.535909 -115.050059 
L 399.808636 -101.242375 
L 349.081364 -84.843938 
L 298.354091 -76.793974 
L 247.626818 -51.284907 
L 196.899545 -73.90603 
L 146.172273 -97.447875 
L 95.445 -29.685 
z
" style="stroke: #2d00a4"/>
    </defs>
    <g clip-path="url(#p578ff1a3ce)">
     <use xlink:href="#mabc74422d2" x="0" y="508.125" style="fill: #2d00a4; stroke: #2d00a4"/>
    </g>
   </g>
   <g id="PolyCollection_6">
    <defs>
     <path id="m22659c5b80" d="M 95.445 -29.685 
L 95.445 -29.685 
L 146.172273 -97.447875 
L 196.899545 -73.90603 
L 247.626818 -51.284907 
L 298.354091 -76.793974 
L 349.081364 -84.843938 
L 399.808636 -101.242375 
L 450.535909 -115.050059 
L 501.263182 -134.492422 
L 551.990455 -159.843259 
L 602.717727 -210.107748 
L 653.445 -203.759199 
L 704.172273 -217.953688 
L 754.899545 -212.075547 
L 805.626818 -197.659551 
L 856.354091 -228.795104 
L 907.081364 -260.984622 
L 957.808636 -284.792491 
L 1008.535909 -298.006635 
L 1059.263182 -291.377914 
L 1109.990455 -304.480647 
L 1160.717727 -318.225658 
L 1211.445 -332.008088 
L 1211.445 -353.506327 
L 1211.445 -353.506327 
L 1160.717727 -328.744003 
L 1109.990455 -304.852605 
L 1059.263182 -291.377914 
L 1008.535909 -298.006635 
L 957.808636 -284.792491 
L 907.081364 -261.916535 
L 856.354091 -228.795104 
L 805.626818 -197.659551 
L 754.899545 -212.075547 
L 704.172273 -217.953688 
L 653.445 -203.759199 
L 602.717727 -210.107748 
L 551.990455 -159.843259 
L 501.263182 -134.492422 
L 450.535909 -115.050059 
L 399.808636 -101.242375 
L 349.081364 -84.843938 
L 298.354091 -76.793974 
L 247.626818 -51.284907 
L 196.899545 -73.90603 
L 146.172273 -97.447875 
L 95.445 -29.685 
z
" style="stroke: #0000b9"/>
    </defs>
    <g clip-path="url(#p578ff1a3ce)">
     <use xlink:href="#m22659c5b80" x="0" y="508.125" style="fill: #0000b9; stroke: #0000b9"/>
    </g>
   </g>
   <g id="PolyCollection_7">
    <defs>
     <path id="m1f7473c4a6" d="M 95.445 -29.685 
L 95.445 -29.685 
L 146.172273 -97.447875 
L 196.899545 -73.90603 
L 247.626818 -51.284907 
L 298.354091 -76.793974 
L 349.081364 -84.843938 
L 399.808636 -101.242375 
L 450.535909 -115.050059 
L 501.263182 -134.492422 
L 551.990455 -159.843259 
L 602.717727 -210.107748 
L 653.445 -203.759199 
L 704.172273 -217.953688 
L 754.899545 -212.075547 
L 805.626818 -197.659551 
L 856.354091 -228.795104 
L 907.081364 -261.916535 
L 957.808636 -284.792491 
L 1008.535909 -298.006635 
L 1059.263182 -291.377914 
L 1109.990455 -304.852605 
L 1160.717727 -328.744003 
L 1211.445 -353.506327 
L 1211.445 -374.732571 
L 1211.445 -374.732571 
L 1160.717727 -328.744003 
L 1109.990455 -304.852605 
L 1059.263182 -291.377914 
L 1008.535909 -298.006635 
L 957.808636 -284.792491 
L 907.081364 -261.916535 
L 856.354091 -228.795104 
L 805.626818 -197.659551 
L 754.899545 -212.075547 
L 704.172273 -217.953688 
L 653.445 -203.759199 
L 602.717727 -210.107748 
L 551.990455 -159.843259 
L 501.263182 -134.492422 
L 450.535909 -115.050059 
L 399.808636 -101.242375 
L 349.081364 -84.843938 
L 298.354091 -76.793974 
L 247.626818 -51.284907 
L 196.899545 -73.90603 
L 146.172273 -97.447875 
L 95.445 -29.685 
z
" style="stroke: #0000dd"/>
    </defs>
    <g clip-path="url(#p578ff1a3ce)">
     <use xlink:href="#m1f7473c4a6" x="0" y="508.125" style="fill: #0000dd; stroke: #0000dd"/>
    </g>
   </g>
   <g id="PolyCollection_8">
    <defs>
     <path id="mf199857ef8" d="M 95.445 -29.685 
L 95.445 -29.685 
L 146.172273 -97.447875 
L 196.899545 -73.90603 
L 247.626818 -51.284907 
L 298.354091 -76.793974 
L 349.081364 -84.843938 
L 399.808636 -101.242375 
L 450.535909 -115.050059 
L 501.263182 -134.492422 
L 551.990455 -159.843259 
L 602.717727 -210.107748 
L 653.445 -203.759199 
L 704.172273 -217.953688 
L 754.899545 -212.075547 
L 805.626818 -197.659551 
L 856.354091 -228.795104 
L 907.081364 -261.916535 
L 957.808636 -284.792491 
L 1008.535909 -298.006635 
L 1059.263182 -291.377914 
L 1109.990455 -304.852605 
L 1160.717727 -328.744003 
L 1211.445 -374.732571 
L 1211.445 -391.550664 
L 1211.445 -391.550664 
L 1160.717727 -345.884749 
L 1109.990455 -316.993905 
L 1059.263182 -301.290556 
L 1008.535909 -308.499906 
L 957.808636 -291.44794 
L 907.081364 -263.447935 
L 856.354091 -228.795104 
L 805.626818 -199.833364 
L 754.899545 -219.544526 
L 704.172273 -224.511532 
L 653.445 -203.759199 
L 602.717727 -210.107748 
L 551.990455 -159.843259 
L 501.263182 -134.492422 
L 450.535909 -115.050059 
L 399.808636 -101.242375 
L 349.081364 -84.843938 
L 298.354091 -76.793974 
L 247.626818 -51.284907 
L 196.899545 -73.90603 
L 146.172273 -97.447875 
L 95.445 -29.685 
z
" style="stroke: #004bdd"/>
    </defs>
    <g clip-path="url(#p578ff1a3ce)">
     <use xlink:href="#mf199857ef8" x="0" y="508.125" style="fill: #004bdd; stroke: #004bdd"/>
    </g>
   </g>
   <g id="PolyCollection_9">
    <defs>
     <path id="m8e2f471084" d="M 95.445 -29.685 
L 95.445 -29.685 
L 146.172273 -97.447875 
L 196.899545 -73.90603 
L 247.626818 -51.284907 
L 298.354091 -76.793974 
L 349.081364 -84.843938 
L 399.808636 -101.242375 
L 450.535909 -115.050059 
L 501.263182 -134.492422 
L 551.990455 -159.843259 
L 602.717727 -210.107748 
L 653.445 -203.759199 
L 704.172273 -224.511532 
L 754.899545 -219.544526 
L 805.626818 -199.833364 
L 856.354091 -228.795104 
L 907.081364 -263.447935 
L 957.808636 -291.44794 
L 1008.535909 -308.499906 
L 1059.263182 -301.290556 
L 1109.990455 -316.993905 
L 1160.717727 -345.884749 
L 1211.445 -391.550664 
L 1211.445 -405.99839 
L 1211.445 -405.99839 
L 1160.717727 -350.096201 
L 1109.990455 -326.576143 
L 1059.263182 -323.690555 
L 1008.535909 -327.377072 
L 957.808636 -299.27026 
L 907.081364 -270.804343 
L 856.354091 -232.036796 
L 805.626818 -199.833364 
L 754.899545 -223.678534 
L 704.172273 -228.617916 
L 653.445 -203.759199 
L 602.717727 -210.107748 
L 551.990455 -159.843259 
L 501.263182 -134.492422 
L 450.535909 -115.050059 
L 399.808636 -101.242375 
L 349.081364 -84.843938 
L 298.354091 -76.793974 
L 247.626818 -51.284907 
L 196.899545 -73.90603 
L 146.172273 -97.447875 
L 95.445 -29.685 
z
" style="stroke: #0082dd"/>
    </defs>
    <g clip-path="url(#p578ff1a3ce)">
     <use xlink:href="#m8e2f471084" x="0" y="508.125" style="fill: #0082dd; stroke: #0082dd"/>
    </g>
   </g>
   <g id="PolyCollection_10">
    <defs>
     <path id="m9dc4cf3c1b" d="M 95.445 -29.685 
L 95.445 -29.685 
L 146.172273 -97.447875 
L 196.899545 -73.90603 
L 247.626818 -51.284907 
L 298.354091 -76.793974 
L 349.081364 -84.843938 
L 399.808636 -101.242375 
L 450.535909 -115.050059 
L 501.263182 -134.492422 
L 551.990455 -159.843259 
L 602.717727 -210.107748 
L 653.445 -203.759199 
L 704.172273 -228.617916 
L 754.899545 -223.678534 
L 805.626818 -199.833364 
L 856.354091 -232.036796 
L 907.081364 -270.804343 
L 957.808636 -299.27026 
L 1008.535909 -327.377072 
L 1059.263182 -323.690555 
L 1109.990455 -326.576143 
L 1160.717727 -350.096201 
L 1211.445 -405.99839 
L 1211.445 -420.338293 
L 1211.445 -420.338293 
L 1160.717727 -367.577668 
L 1109.990455 -341.348478 
L 1059.263182 -329.129073 
L 1008.535909 -342.002013 
L 957.808636 -321.205187 
L 907.081364 -291.775383 
L 856.354091 -260.380821 
L 805.626818 -203.876015 
L 754.899545 -223.678534 
L 704.172273 -228.617916 
L 653.445 -203.759199 
L 602.717727 -210.107748 
L 551.990455 -159.843259 
L 501.263182 -134.492422 
L 450.535909 -115.050059 
L 399.808636 -101.242375 
L 349.081364 -84.843938 
L 298.354091 -76.793974 
L 247.626818 -51.284907 
L 196.899545 -73.90603 
L 146.172273 -97.447875 
L 95.445 -29.685 
z
" style="stroke: #0098dd"/>
    </defs>
    <g clip-path="url(#p578ff1a3ce)">
     <use xlink:href="#m9dc4cf3c1b" x="0" y="508.125" style="fill: #0098dd; stroke: #0098dd"/>
    </g>
   </g>
   <g id="PolyCollection_11">
    <defs>
     <path id="m2fa8698357" d="M 95.445 -29.685 
L 95.445 -29.685 
L 146.172273 -97.447875 
L 196.899545 -73.90603 
L 247.626818 -51.284907 
L 298.354091 -76.793974 
L 349.081364 -84.843938 
L 399.808636 -101.242375 
L 450.535909 -115.050059 
L 501.263182 -134.492422 
L 551.990455 -159.843259 
L 602.717727 -210.107748 
L 653.445 -203.759199 
L 704.172273 -228.617916 
L 754.899545 -223.678534 
L 805.626818 -203.876015 
L 856.354091 -260.380821 
L 907.081364 -291.775383 
L 957.808636 -321.205187 
L 1008.535909 -342.002013 
L 1059.263182 -329.129073 
L 1109.990455 -341.348478 
L 1160.717727 -367.577668 
L 1211.445 -420.338293 
L 1211.445 -434.041337 
L 1211.445 -434.041337 
L 1160.717727 -376.749483 
L 1109.990455 -345.514344 
L 1059.263182 -329.129073 
L 1008.535909 -342.475546 
L 957.808636 -328.726824 
L 907.081364 -302.006237 
L 856.354091 -260.380821 
L 805.626818 -203.876015 
L 754.899545 -223.885943 
L 704.172273 -228.617916 
L 653.445 -203.759199 
L 602.717727 -210.107748 
L 551.990455 -159.843259 
L 501.263182 -134.492422 
L 450.535909 -115.050059 
L 399.808636 -101.242375 
L 349.081364 -84.843938 
L 298.354091 -76.793974 
L 247.626818 -51.284907 
L 196.899545 -73.90603 
L 146.172273 -97.447875 
L 95.445 -29.685 
z
" style="stroke: #00a4bb"/>
    </defs>
    <g clip-path="url(#p578ff1a3ce)">
     <use xlink:href="#m2fa8698357" x="0" y="508.125" style="fill: #00a4bb; stroke: #00a4bb"/>
    </g>
   </g>
   <g id="PolyCollection_12">
    <defs>
     <path id="ma6c7254be4" d="M 95.445 -29.685 
L 95.445 -29.685 
L 146.172273 -97.447875 
L 196.899545 -73.90603 
L 247.626818 -51.284907 
L 298.354091 -76.793974 
L 349.081364 -84.843938 
L 399.808636 -101.242375 
L 450.535909 -115.050059 
L 501.263182 -134.492422 
L 551.990455 -159.843259 
L 602.717727 -210.107748 
L 653.445 -203.759199 
L 704.172273 -228.617916 
L 754.899545 -223.885943 
L 805.626818 -203.876015 
L 856.354091 -260.380821 
L 907.081364 -302.006237 
L 957.808636 -328.726824 
L 1008.535909 -342.475546 
L 1059.263182 -329.129073 
L 1109.990455 -345.514344 
L 1160.717727 -376.749483 
L 1211.445 -434.041337 
L 1211.445 -443.981987 
L 1211.445 -443.981987 
L 1160.717727 -386.649146 
L 1109.990455 -352.700405 
L 1059.263182 -337.355349 
L 1008.535909 -346.621469 
L 957.808636 -333.547209 
L 907.081364 -303.516233 
L 856.354091 -260.380821 
L 805.626818 -203.876015 
L 754.899545 -225.858108 
L 704.172273 -230.1678 
L 653.445 -203.759199 
L 602.717727 -213.31947 
L 551.990455 -159.843259 
L 501.263182 -134.492422 
L 450.535909 -115.050059 
L 399.808636 -101.242375 
L 349.081364 -84.843938 
L 298.354091 -76.793974 
L 247.626818 -51.284907 
L 196.899545 -73.90603 
L 146.172273 -97.447875 
L 95.445 -29.685 
z
" style="stroke: #00aaa0"/>
    </defs>
    <g clip-path="url(#p578ff1a3ce)">
     <use xlink:href="#ma6c7254be4" x="0" y="508.125" style="fill: #00aaa0; stroke: #00aaa0"/>
    </g>
   </g>
   <g id="PolyCollection_13">
    <defs>
     <path id="m695b21bd3a" d="M 95.445 -29.685 
L 95.445 -29.685 
L 146.172273 -97.447875 
L 196.899545 -73.90603 
L 247.626818 -51.284907 
L 298.354091 -76.793974 
L 349.081364 -84.843938 
L 399.808636 -101.242375 
L 450.535909 -115.050059 
L 501.263182 -134.492422 
L 551.990455 -159.843259 
L 602.717727 -213.31947 
L 653.445 -203.759199 
L 704.172273 -230.1678 
L 754.899545 -225.858108 
L 805.626818 -203.876015 
L 856.354091 -260.380821 
L 907.081364 -303.516233 
L 957.808636 -333.547209 
L 1008.535909 -346.621469 
L 1059.263182 -337.355349 
L 1109.990455 -352.700405 
L 1160.717727 -386.649146 
L 1211.445 -443.981987 
L 1211.445 -453.258891 
L 1211.445 -453.258891 
L 1160.717727 -386.649146 
L 1109.990455 -352.700405 
L 1059.263182 -337.355349 
L 1008.535909 -346.621469 
L 957.808636 -333.547209 
L 907.081364 -303.516233 
L 856.354091 -260.380821 
L 805.626818 -203.876015 
L 754.899545 -225.858108 
L 704.172273 -230.1678 
L 653.445 -203.759199 
L 602.717727 -213.31947 
L 551.990455 -159.843259 
L 501.263182 -134.492422 
L 450.535909 -115.050059 
L 399.808636 -101.242375 
L 349.081364 -84.843938 
L 298.354091 -76.793974 
L 247.626818 -51.284907 
L 196.899545 -73.90603 
L 146.172273 -97.447875 
L 95.445 -29.685 
z
" style="stroke: #00aa88"/>
    </defs>
    <g clip-path="url(#p578ff1a3ce)">
     <use xlink:href="#m695b21bd3a" x="0" y="508.125" style="fill: #00aa88; stroke: #00aa88"/>
    </g>
   </g>
   <g id="PolyCollection_14">
    <defs>
     <path id="m1d804ddcbd" d="M 95.445 -29.685 
L 95.445 -29.685 
L 146.172273 -97.447875 
L 196.899545 -73.90603 
L 247.626818 -51.284907 
L 298.354091 -76.793974 
L 349.081364 -84.843938 
L 399.808636 -101.242375 
L 450.535909 -115.050059 
L 501.263182 -134.492422 
L 551.990455 -159.843259 
L 602.717727 -213.31947 
L 653.445 -203.759199 
L 704.172273 -230.1678 
L 754.899545 -225.858108 
L 805.626818 -203.876015 
L 856.354091 -260.380821 
L 907.081364 -303.516233 
L 957.808636 -333.547209 
L 1008.535909 -346.621469 
L 1059.263182 -337.355349 
L 1109.990455 -352.700405 
L 1160.717727 -386.649146 
L 1211.445 -453.258891 
L 1211.445 -459.691729 
L 1211.445 -459.691729 
L 1160.717727 -391.80379 
L 1109.990455 -358.850471 
L 1059.263182 -337.355349 
L 1008.535909 -347.443492 
L 957.808636 -333.547209 
L 907.081364 -303.516233 
L 856.354091 -278.902592 
L 805.626818 -214.823454 
L 754.899545 -234.13867 
L 704.172273 -235.798482 
L 653.445 -207.923377 
L 602.717727 -214.760691 
L 551.990455 -159.843259 
L 501.263182 -134.492422 
L 450.535909 -115.050059 
L 399.808636 -101.242375 
L 349.081364 -84.843938 
L 298.354091 -76.793974 
L 247.626818 -51.284907 
L 196.899545 -73.90603 
L 146.172273 -97.447875 
L 95.445 -29.685 
z
" style="stroke: #009f33"/>
    </defs>
    <g clip-path="url(#p578ff1a3ce)">
     <use xlink:href="#m1d804ddcbd" x="0" y="508.125" style="fill: #009f33; stroke: #009f33"/>
    </g>
   </g>
   <g id="PolyCollection_15">
    <defs>
     <path id="mb8e5de58a6" d="M 95.445 -29.685 
L 95.445 -29.685 
L 146.172273 -97.447875 
L 196.899545 -73.90603 
L 247.626818 -51.284907 
L 298.354091 -76.793974 
L 349.081364 -84.843938 
L 399.808636 -101.242375 
L 450.535909 -115.050059 
L 501.263182 -134.492422 
L 551.990455 -159.843259 
L 602.717727 -214.760691 
L 653.445 -207.923377 
L 704.172273 -235.798482 
L 754.899545 -234.13867 
L 805.626818 -214.823454 
L 856.354091 -278.902592 
L 907.081364 -303.516233 
L 957.808636 -333.547209 
L 1008.535909 -347.443492 
L 1059.263182 -337.355349 
L 1109.990455 -358.850471 
L 1160.717727 -391.80379 
L 1211.445 -459.691729 
L 1211.445 -465.946205 
L 1211.445 -465.946205 
L 1160.717727 -391.80379 
L 1109.990455 -358.850471 
L 1059.263182 -339.332853 
L 1008.535909 -347.443492 
L 957.808636 -333.547209 
L 907.081364 -303.516233 
L 856.354091 -278.902592 
L 805.626818 -214.823454 
L 754.899545 -234.13867 
L 704.172273 -235.798482 
L 653.445 -207.923377 
L 602.717727 -214.760691 
L 551.990455 -159.843259 
L 501.263182 -134.492422 
L 450.535909 -115.050059 
L 399.808636 -101.242375 
L 349.081364 -84.843938 
L 298.354091 -76.793974 
L 247.626818 -51.284907 
L 196.899545 -73.90603 
L 146.172273 -97.447875 
L 95.445 -29.685 
z
" style="stroke: #00a400"/>
    </defs>
    <g clip-path="url(#p578ff1a3ce)">
     <use xlink:href="#mb8e5de58a6" x="0" y="508.125" style="fill: #00a400; stroke: #00a400"/>
    </g>
   </g>
   <g id="PolyCollection_16">
    <defs>
     <path id="ma9eda20870" d="M 95.445 -29.685 
L 95.445 -29.685 
L 146.172273 -97.447875 
L 196.899545 -73.90603 
L 247.626818 -51.284907 
L 298.354091 -76.793974 
L 349.081364 -84.843938 
L 399.808636 -101.242375 
L 450.535909 -115.050059 
L 501.263182 -134.492422 
L 551.990455 -159.843259 
L 602.717727 -214.760691 
L 653.445 -207.923377 
L 704.172273 -235.798482 
L 754.899545 -234.13867 
L 805.626818 -214.823454 
L 856.354091 -278.902592 
L 907.081364 -303.516233 
L 957.808636 -333.547209 
L 1008.535909 -347.443492 
L 1059.263182 -339.332853 
L 1109.990455 -358.850471 
L 1160.717727 -391.80379 
L 1211.445 -465.946205 
L 1211.445 -471.763586 
L 1211.445 -471.763586 
L 1160.717727 -399.325615 
L 1109.990455 -373.655634 
L 1059.263182 -346.311989 
L 1008.535909 -361.58976 
L 957.808636 -337.011227 
L 907.081364 -303.516233 
L 856.354091 -278.902592 
L 805.626818 -215.004877 
L 754.899545 -236.729708 
L 704.172273 -235.798482 
L 653.445 -207.923377 
L 602.717727 -215.749785 
L 551.990455 -159.843259 
L 501.263182 -134.492422 
L 450.535909 -115.050059 
L 399.808636 -101.242375 
L 349.081364 -84.843938 
L 298.354091 -76.793974 
L 247.626818 -65.784324 
L 196.899545 -106.598199 
L 146.172273 -97.447875 
L 95.445 -29.685 
z
" style="stroke: #00bc00"/>
    </defs>
    <g clip-path="url(#p578ff1a3ce)">
     <use xlink:href="#ma9eda20870" x="0" y="508.125" style="fill: #00bc00; stroke: #00bc00"/>
    </g>
   </g>
   <g id="PolyCollection_17">
    <defs>
     <path id="m1d4241f6b1" d="M 95.445 -29.685 
L 95.445 -29.685 
L 146.172273 -97.447875 
L 196.899545 -106.598199 
L 247.626818 -65.784324 
L 298.354091 -76.793974 
L 349.081364 -84.843938 
L 399.808636 -101.242375 
L 450.535909 -115.050059 
L 501.263182 -134.492422 
L 551.990455 -159.843259 
L 602.717727 -215.749785 
L 653.445 -207.923377 
L 704.172273 -235.798482 
L 754.899545 -236.729708 
L 805.626818 -215.004877 
L 856.354091 -278.902592 
L 907.081364 -303.516233 
L 957.808636 -337.011227 
L 1008.535909 -361.58976 
L 1059.263182 -346.311989 
L 1109.990455 -373.655634 
L 1160.717727 -399.325615 
L 1211.445 -471.763586 
L 1211.445 -476.890507 
L 1211.445 -476.890507 
L 1160.717727 -399.325615 
L 1109.990455 -373.655634 
L 1059.263182 -346.311989 
L 1008.535909 -361.58976 
L 957.808636 -337.011227 
L 907.081364 -303.516233 
L 856.354091 -278.902592 
L 805.626818 -215.004877 
L 754.899545 -236.729708 
L 704.172273 -235.798482 
L 653.445 -207.923377 
L 602.717727 -215.749785 
L 551.990455 -159.843259 
L 501.263182 -134.492422 
L 450.535909 -115.050059 
L 399.808636 -101.242375 
L 349.081364 -84.843938 
L 298.354091 -76.793974 
L 247.626818 -65.784324 
L 196.899545 -106.598199 
L 146.172273 -97.447875 
L 95.445 -29.685 
z
" style="stroke: #00d200"/>
    </defs>
    <g clip-path="url(#p578ff1a3ce)">
     <use xlink:href="#m1d4241f6b1" x="0" y="508.125" style="fill: #00d200; stroke: #00d200"/>
    </g>
   </g>
   <g id="PolyCollection_18">
    <defs>
     <path id="m60ee4df0ff" d="M 95.445 -29.685 
L 95.445 -29.685 
L 146.172273 -97.447875 
L 196.899545 -106.598199 
L 247.626818 -65.784324 
L 298.354091 -76.793974 
L 349.081364 -84.843938 
L 399.808636 -101.242375 
L 450.535909 -115.050059 
L 501.263182 -134.492422 
L 551.990455 -159.843259 
L 602.717727 -215.749785 
L 653.445 -207.923377 
L 704.172273 -235.798482 
L 754.899545 -236.729708 
L 805.626818 -215.004877 
L 856.354091 -278.902592 
L 907.081364 -303.516233 
L 957.808636 -337.011227 
L 1008.535909 -361.58976 
L 1059.263182 -346.311989 
L 1109.990455 -373.655634 
L 1160.717727 -399.325615 
L 1211.445 -476.890507 
L 1211.445 -478.485 
L 1211.445 -478.485 
L 1160.717727 -413.109149 
L 1109.990455 -382.501341 
L 1059.263182 -346.311989 
L 1008.535909 -361.58976 
L 957.808636 -337.011227 
L 907.081364 -303.516233 
L 856.354091 -278.902592 
L 805.626818 -215.004877 
L 754.899545 -236.729708 
L 704.172273 -235.798482 
L 653.445 -207.923377 
L 602.717727 -215.749785 
L 551.990455 -159.843259 
L 501.263182 -134.492422 
L 450.535909 -115.050059 
L 399.808636 -101.242375 
L 349.081364 -84.843938 
L 298.354091 -76.793974 
L 247.626818 -65.784324 
L 196.899545 -106.598199 
L 146.172273 -97.447875 
L 95.445 -29.685 
z
" style="stroke: #00ea00"/>
    </defs>
    <g clip-path="url(#p578ff1a3ce)">
     <use xlink:href="#m60ee4df0ff" x="0" y="508.125" style="fill: #00ea00; stroke: #00ea00"/>
    </g>
   </g>
   <g id="PolyCollection_19">
    <defs>
     <path id="m9fd8939d59" d="M 95.445 -29.685 
L 95.445 -29.685 
L 146.172273 -97.447875 
L 196.899545 -106.598199 
L 247.626818 -65.784324 
L 298.354091 -76.793974 
L 349.081364 -84.843938 
L 399.808636 -101.242375 
L 450.535909 -115.050059 
L 501.263182 -134.492422 
L 551.990455 -159.843259 
L 602.717727 -215.749785 
L 653.445 -207.923377 
L 704.172273 -235.798482 
L 754.899545 -236.729708 
L 805.626818 -215.004877 
L 856.354091 -278.902592 
L 907.081364 -303.516233 
L 957.808636 -337.011227 
L 1008.535909 -361.58976 
L 1059.263182 -346.311989 
L 1109.990455 -382.501341 
L 1160.717727 -413.109149 
L 1211.445 -478.485 
L 1211.445 -478.485 
L 1211.445 -478.485 
L 1160.717727 -413.109149 
L 1109.990455 -387.311343 
L 1059.263182 -346.311989 
L 1008.535909 -361.58976 
L 957.808636 -337.011227 
L 907.081364 -304.429789 
L 856.354091 -278.902592 
L 805.626818 -215.004877 
L 754.899545 -236.729708 
L 704.172273 -235.798482 
L 653.445 -208.436876 
L 602.717727 -215.749785 
L 551.990455 -159.843259 
L 501.263182 -134.492422 
L 450.535909 -115.050059 
L 399.808636 -101.242375 
L 349.081364 -84.843938 
L 298.354091 -76.793974 
L 247.626818 -65.784324 
L 196.899545 -106.598199 
L 146.172273 -97.447875 
L 95.445 -29.685 
z
" style="stroke: #00ff00"/>
    </defs>
    <g clip-path="url(#p578ff1a3ce)">
     <use xlink:href="#m9fd8939d59" x="0" y="508.125" style="fill: #00ff00; stroke: #00ff00"/>
    </g>
   </g>
   <g id="PolyCollection_20">
    <defs>
     <path id="mc55b1c113c" d="M 95.445 -29.685 
L 95.445 -29.685 
L 146.172273 -97.447875 
L 196.899545 -106.598199 
L 247.626818 -65.784324 
L 298.354091 -76.793974 
L 349.081364 -84.843938 
L 399.808636 -101.242375 
L 450.535909 -115.050059 
L 501.263182 -134.492422 
L 551.990455 -159.843259 
L 602.717727 -215.749785 
L 653.445 -208.436876 
L 704.172273 -235.798482 
L 754.899545 -236.729708 
L 805.626818 -215.004877 
L 856.354091 -278.902592 
L 907.081364 -304.429789 
L 957.808636 -337.011227 
L 1008.535909 -361.58976 
L 1059.263182 -346.311989 
L 1109.990455 -387.311343 
L 1160.717727 -413.109149 
L 1211.445 -478.485 
L 1211.445 -478.485 
L 1211.445 -478.485 
L 1160.717727 -415.535039 
L 1109.990455 -387.311343 
L 1059.263182 -346.311989 
L 1008.535909 -361.58976 
L 957.808636 -337.011227 
L 907.081364 -304.429789 
L 856.354091 -278.902592 
L 805.626818 -215.004877 
L 754.899545 -236.729708 
L 704.172273 -235.798482 
L 653.445 -208.436876 
L 602.717727 -215.749785 
L 551.990455 -159.843259 
L 501.263182 -134.492422 
L 450.535909 -115.050059 
L 399.808636 -101.242375 
L 349.081364 -84.843938 
L 298.354091 -76.793974 
L 247.626818 -65.784324 
L 196.899545 -106.598199 
L 146.172273 -97.447875 
L 95.445 -29.685 
z
" style="stroke: #84ff00"/>
    </defs>
    <g clip-path="url(#p578ff1a3ce)">
     <use xlink:href="#mc55b1c113c" x="0" y="508.125" style="fill: #84ff00; stroke: #84ff00"/>
    </g>
   </g>
   <g id="PolyCollection_21">
    <defs>
     <path id="mdb9d426a28" d="M 95.445 -29.685 
L 95.445 -29.685 
L 146.172273 -97.447875 
L 196.899545 -106.598199 
L 247.626818 -65.784324 
L 298.354091 -76.793974 
L 349.081364 -84.843938 
L 399.808636 -101.242375 
L 450.535909 -115.050059 
L 501.263182 -134.492422 
L 551.990455 -159.843259 
L 602.717727 -215.749785 
L 653.445 -208.436876 
L 704.172273 -235.798482 
L 754.899545 -236.729708 
L 805.626818 -215.004877 
L 856.354091 -278.902592 
L 907.081364 -304.429789 
L 957.808636 -337.011227 
L 1008.535909 -361.58976 
L 1059.263182 -346.311989 
L 1109.990455 -387.311343 
L 1160.717727 -415.535039 
L 1211.445 -478.485 
L 1211.445 -478.485 
L 1211.445 -478.485 
L 1160.717727 -415.535039 
L 1109.990455 -387.311343 
L 1059.263182 -346.311989 
L 1008.535909 -361.58976 
L 957.808636 -337.011227 
L 907.081364 -304.429789 
L 856.354091 -278.902592 
L 805.626818 -215.004877 
L 754.899545 -236.729708 
L 704.172273 -235.798482 
L 653.445 -208.436876 
L 602.717727 -215.749785 
L 551.990455 -159.843259 
L 501.263182 -134.492422 
L 450.535909 -115.050059 
L 399.808636 -101.242375 
L 349.081364 -84.843938 
L 298.354091 -76.793974 
L 247.626818 -65.784324 
L 196.899545 -106.598199 
L 146.172273 -97.447875 
L 95.445 -29.685 
z
" style="stroke: #ccf900"/>
    </defs>
    <g clip-path="url(#p578ff1a3ce)">
     <use xlink:href="#mdb9d426a28" x="0" y="508.125" style="fill: #ccf900; stroke: #ccf900"/>
    </g>
   </g>
   <g id="PolyCollection_22">
    <defs>
     <path id="m11fbf38d8a" d="M 95.445 -29.685 
L 95.445 -29.685 
L 146.172273 -97.447875 
L 196.899545 -106.598199 
L 247.626818 -65.784324 
L 298.354091 -76.793974 
L 349.081364 -84.843938 
L 399.808636 -101.242375 
L 450.535909 -115.050059 
L 501.263182 -134.492422 
L 551.990455 -159.843259 
L 602.717727 -215.749785 
L 653.445 -208.436876 
L 704.172273 -235.798482 
L 754.899545 -236.729708 
L 805.626818 -215.004877 
L 856.354091 -278.902592 
L 907.081364 -304.429789 
L 957.808636 -337.011227 
L 1008.535909 -361.58976 
L 1059.263182 -346.311989 
L 1109.990455 -387.311343 
L 1160.717727 -415.535039 
L 1211.445 -478.485 
L 1211.445 -478.485 
L 1211.445 -478.485 
L 1160.717727 -415.535039 
L 1109.990455 -387.311343 
L 1059.263182 -346.311989 
L 1008.535909 -361.58976 
L 957.808636 -337.011227 
L 907.081364 -304.429789 
L 856.354091 -278.902592 
L 805.626818 -215.004877 
L 754.899545 -236.729708 
L 704.172273 -235.798482 
L 653.445 -208.436876 
L 602.717727 -215.749785 
L 551.990455 -159.843259 
L 501.263182 -134.492422 
L 450.535909 -115.050059 
L 399.808636 -101.242375 
L 349.081364 -84.843938 
L 298.354091 -76.793974 
L 247.626818 -65.784324 
L 196.899545 -106.598199 
L 146.172273 -97.447875 
L 95.445 -29.685 
z
" style="stroke: #efed00"/>
    </defs>
    <g clip-path="url(#p578ff1a3ce)">
     <use xlink:href="#m11fbf38d8a" x="0" y="508.125" style="fill: #efed00; stroke: #efed00"/>
    </g>
   </g>
   <g id="PolyCollection_23">
    <defs>
     <path id="m0bcbb04593" d="M 95.445 -29.685 
L 95.445 -29.685 
L 146.172273 -97.447875 
L 196.899545 -106.598199 
L 247.626818 -65.784324 
L 298.354091 -76.793974 
L 349.081364 -84.843938 
L 399.808636 -101.242375 
L 450.535909 -115.050059 
L 501.263182 -134.492422 
L 551.990455 -159.843259 
L 602.717727 -215.749785 
L 653.445 -208.436876 
L 704.172273 -235.798482 
L 754.899545 -236.729708 
L 805.626818 -215.004877 
L 856.354091 -278.902592 
L 907.081364 -304.429789 
L 957.808636 -337.011227 
L 1008.535909 -361.58976 
L 1059.263182 -346.311989 
L 1109.990455 -387.311343 
L 1160.717727 -415.535039 
L 1211.445 -478.485 
L 1211.445 -478.485 
L 1211.445 -478.485 
L 1160.717727 -415.535039 
L 1109.990455 -387.311343 
L 1059.263182 -346.311989 
L 1008.535909 -361.58976 
L 957.808636 -337.011227 
L 907.081364 -304.429789 
L 856.354091 -278.902592 
L 805.626818 -215.004877 
L 754.899545 -236.729708 
L 704.172273 -235.798482 
L 653.445 -208.436876 
L 602.717727 -215.749785 
L 551.990455 -159.843259 
L 501.263182 -134.492422 
L 450.535909 -115.050059 
L 399.808636 -101.242375 
L 349.081364 -84.843938 
L 298.354091 -76.793974 
L 247.626818 -65.784324 
L 196.899545 -106.598199 
L 146.172273 -97.447875 
L 95.445 -29.685 
z
" style="stroke: #f9d700"/>
    </defs>
    <g clip-path="url(#p578ff1a3ce)">
     <use xlink:href="#m0bcbb04593" x="0" y="508.125" style="fill: #f9d700; stroke: #f9d700"/>
    </g>
   </g>
   <g id="PolyCollection_24">
    <defs>
     <path id="m0ea5370a04" d="M 95.445 -29.685 
L 95.445 -29.685 
L 146.172273 -97.447875 
L 196.899545 -106.598199 
L 247.626818 -65.784324 
L 298.354091 -76.793974 
L 349.081364 -84.843938 
L 399.808636 -101.242375 
L 450.535909 -115.050059 
L 501.263182 -134.492422 
L 551.990455 -159.843259 
L 602.717727 -215.749785 
L 653.445 -208.436876 
L 704.172273 -235.798482 
L 754.899545 -236.729708 
L 805.626818 -215.004877 
L 856.354091 -278.902592 
L 907.081364 -304.429789 
L 957.808636 -337.011227 
L 1008.535909 -361.58976 
L 1059.263182 -346.311989 
L 1109.990455 -387.311343 
L 1160.717727 -415.535039 
L 1211.445 -478.485 
L 1211.445 -478.485 
L 1211.445 -478.485 
L 1160.717727 -415.535039 
L 1109.990455 -387.311343 
L 1059.263182 -346.311989 
L 1008.535909 -361.58976 
L 957.808636 -337.011227 
L 907.081364 -304.429789 
L 856.354091 -278.902592 
L 805.626818 -215.004877 
L 754.899545 -236.729708 
L 704.172273 -235.798482 
L 653.445 -208.436876 
L 602.717727 -215.749785 
L 551.990455 -159.843259 
L 501.263182 -134.492422 
L 450.535909 -115.050059 
L 399.808636 -101.242375 
L 349.081364 -84.843938 
L 298.354091 -76.793974 
L 247.626818 -65.784324 
L 196.899545 -106.598199 
L 146.172273 -97.447875 
L 95.445 -29.685 
z
" style="stroke: #ffb900"/>
    </defs>
    <g clip-path="url(#p578ff1a3ce)">
     <use xlink:href="#m0ea5370a04" x="0" y="508.125" style="fill: #ffb900; stroke: #ffb900"/>
    </g>
   </g>
   <g id="PolyCollection_25">
    <defs>
     <path id="m0933339279" d="M 95.445 -29.685 
L 95.445 -29.685 
L 146.172273 -97.447875 
L 196.899545 -106.598199 
L 247.626818 -65.784324 
L 298.354091 -76.793974 
L 349.081364 -84.843938 
L 399.808636 -101.242375 
L 450.535909 -115.050059 
L 501.263182 -134.492422 
L 551.990455 -159.843259 
L 602.717727 -215.749785 
L 653.445 -208.436876 
L 704.172273 -235.798482 
L 754.899545 -236.729708 
L 805.626818 -215.004877 
L 856.354091 -278.902592 
L 907.081364 -304.429789 
L 957.808636 -337.011227 
L 1008.535909 -361.58976 
L 1059.263182 -346.311989 
L 1109.990455 -387.311343 
L 1160.717727 -415.535039 
L 1211.445 -478.485 
L 1211.445 -478.485 
L 1211.445 -478.485 
L 1160.717727 -418.111033 
L 1109.990455 -387.311343 
L 1059.263182 -346.311989 
L 1008.535909 -366.368679 
L 957.808636 -338.45007 
L 907.081364 -304.641014 
L 856.354091 -283.41298 
L 805.626818 -216.525551 
L 754.899545 -239.214927 
L 704.172273 -246.024381 
L 653.445 -208.436876 
L 602.717727 -215.749785 
L 551.990455 -159.843259 
L 501.263182 -134.492422 
L 450.535909 -115.050059 
L 399.808636 -101.242375 
L 349.081364 -84.843938 
L 298.354091 -76.793974 
L 247.626818 -65.784324 
L 196.899545 -106.598199 
L 146.172273 -97.447875 
L 95.445 -29.685 
z
" style="stroke: #ff9900"/>
    </defs>
    <g clip-path="url(#p578ff1a3ce)">
     <use xlink:href="#m0933339279" x="0" y="508.125" style="fill: #ff9900; stroke: #ff9900"/>
    </g>
   </g>
   <g id="PolyCollection_26">
    <defs>
     <path id="mae7d85f870" d="M 95.445 -29.685 
L 95.445 -29.685 
L 146.172273 -97.447875 
L 196.899545 -106.598199 
L 247.626818 -65.784324 
L 298.354091 -76.793974 
L 349.081364 -84.843938 
L 399.808636 -101.242375 
L 450.535909 -115.050059 
L 501.263182 -134.492422 
L 551.990455 -159.843259 
L 602.717727 -215.749785 
L 653.445 -208.436876 
L 704.172273 -246.024381 
L 754.899545 -239.214927 
L 805.626818 -216.525551 
L 856.354091 -283.41298 
L 907.081364 -304.641014 
L 957.808636 -338.45007 
L 1008.535909 -366.368679 
L 1059.263182 -346.311989 
L 1109.990455 -387.311343 
L 1160.717727 -418.111033 
L 1211.445 -478.485 
L 1211.445 -478.485 
L 1211.445 -478.485 
L 1160.717727 -418.111033 
L 1109.990455 -387.311343 
L 1059.263182 -346.311989 
L 1008.535909 -366.368679 
L 957.808636 -338.45007 
L 907.081364 -304.641014 
L 856.354091 -283.41298 
L 805.626818 -216.525551 
L 754.899545 -239.214927 
L 704.172273 -246.024381 
L 653.445 -208.436876 
L 602.717727 -215.749785 
L 551.990455 -159.843259 
L 501.263182 -134.492422 
L 450.535909 -115.050059 
L 399.808636 -101.242375 
L 349.081364 -84.843938 
L 298.354091 -76.793974 
L 247.626818 -65.784324 
L 196.899545 -106.598199 
L 146.172273 -97.447875 
L 95.445 -29.685 
z
" style="stroke: #ff2d00"/>
    </defs>
    <g clip-path="url(#p578ff1a3ce)">
     <use xlink:href="#mae7d85f870" x="0" y="508.125" style="fill: #ff2d00; stroke: #ff2d00"/>
    </g>
   </g>
   <g id="PolyCollection_27">
    <defs>
     <path id="m35b45bc50a" d="M 95.445 -29.685 
L 95.445 -29.685 
L 146.172273 -97.447875 
L 196.899545 -106.598199 
L 247.626818 -65.784324 
L 298.354091 -76.793974 
L 349.081364 -84.843938 
L 399.808636 -101.242375 
L 450.535909 -115.050059 
L 501.263182 -134.492422 
L 551.990455 -159.843259 
L 602.717727 -215.749785 
L 653.445 -208.436876 
L 704.172273 -246.024381 
L 754.899545 -239.214927 
L 805.626818 -216.525551 
L 856.354091 -283.41298 
L 907.081364 -304.641014 
L 957.808636 -338.45007 
L 1008.535909 -366.368679 
L 1059.263182 -346.311989 
L 1109.990455 -387.311343 
L 1160.717727 -418.111033 
L 1211.445 -478.485 
L 1211.445 -478.485 
L 1211.445 -478.485 
L 1160.717727 -418.111033 
L 1109.990455 -387.311343 
L 1059.263182 -346.311989 
L 1008.535909 -366.368679 
L 957.808636 -338.45007 
L 907.081364 -304.641014 
L 856.354091 -283.41298 
L 805.626818 -216.525551 
L 754.899545 -239.214927 
L 704.172273 -246.024381 
L 653.445 -208.436876 
L 602.717727 -215.749785 
L 551.990455 -159.843259 
L 501.263182 -134.492422 
L 450.535909 -115.050059 
L 399.808636 -101.242375 
L 349.081364 -84.843938 
L 298.354091 -76.793974 
L 247.626818 -65.784324 
L 196.899545 -106.598199 
L 146.172273 -97.447875 
L 95.445 -29.685 
z
" style="stroke: #f40000"/>
    </defs>
    <g clip-path="url(#p578ff1a3ce)">
     <use xlink:href="#m35b45bc50a" x="0" y="508.125" style="fill: #f40000; stroke: #f40000"/>
    </g>
   </g>
   <g id="PolyCollection_28">
    <defs>
     <path id="m6e11e10370" d="M 95.445 -29.685 
L 95.445 -29.685 
L 146.172273 -97.447875 
L 196.899545 -106.598199 
L 247.626818 -65.784324 
L 298.354091 -76.793974 
L 349.081364 -84.843938 
L 399.808636 -101.242375 
L 450.535909 -115.050059 
L 501.263182 -134.492422 
L 551.990455 -159.843259 
L 602.717727 -215.749785 
L 653.445 -208.436876 
L 704.172273 -246.024381 
L 754.899545 -239.214927 
L 805.626818 -216.525551 
L 856.354091 -283.41298 
L 907.081364 -304.641014 
L 957.808636 -338.45007 
L 1008.535909 -366.368679 
L 1059.263182 -346.311989 
L 1109.990455 -387.311343 
L 1160.717727 -418.111033 
L 1211.445 -478.485 
L 1211.445 -478.485 
L 1211.445 -478.485 
L 1160.717727 -418.111033 
L 1109.990455 -387.311343 
L 1059.263182 -361.107458 
L 1008.535909 -378.523627 
L 957.808636 -352.214786 
L 907.081364 -317.563945 
L 856.354091 -301.589209 
L 805.626818 -235.458013 
L 754.899545 -254.250005 
L 704.172273 -261.480136 
L 653.445 -225.892287 
L 602.717727 -230.571819 
L 551.990455 -175.892078 
L 501.263182 -143.138656 
L 450.535909 -119.592442 
L 399.808636 -116.084957 
L 349.081364 -89.614087 
L 298.354091 -76.793974 
L 247.626818 -65.784324 
L 196.899545 -108.428414 
L 146.172273 -108.413264 
L 95.445 -29.685 
z
" style="stroke: #dc0000"/>
    </defs>
    <g clip-path="url(#p578ff1a3ce)">
     <use xlink:href="#m6e11e10370" x="0" y="508.125" style="fill: #dc0000; stroke: #dc0000"/>
    </g>
   </g>
   <g id="PolyCollection_29">
    <defs>
     <path id="me67001e9ec" d="M 95.445 -29.685 
L 95.445 -29.685 
L 146.172273 -108.413264 
L 196.899545 -108.428414 
L 247.626818 -65.784324 
L 298.354091 -76.793974 
L 349.081364 -89.614087 
L 399.808636 -116.084957 
L 450.535909 -119.592442 
L 501.263182 -143.138656 
L 551.990455 -175.892078 
L 602.717727 -230.571819 
L 653.445 -225.892287 
L 704.172273 -261.480136 
L 754.899545 -254.250005 
L 805.626818 -235.458013 
L 856.354091 -301.589209 
L 907.081364 -317.563945 
L 957.808636 -352.214786 
L 1008.535909 -378.523627 
L 1059.263182 -361.107458 
L 1109.990455 -387.311343 
L 1160.717727 -418.111033 
L 1211.445 -478.485 
L 1211.445 -478.485 
L 1211.445 -478.485 
L 1160.717727 -418.111033 
L 1109.990455 -387.311343 
L 1059.263182 -361.107458 
L 1008.535909 -378.523627 
L 957.808636 -352.214786 
L 907.081364 -317.563945 
L 856.354091 -301.589209 
L 805.626818 -235.458013 
L 754.899545 -254.250005 
L 704.172273 -261.480136 
L 653.445 -225.892287 
L 602.717727 -230.571819 
L 551.990455 -175.892078 
L 501.263182 -143.138656 
L 450.535909 -119.592442 
L 399.808636 -116.084957 
L 349.081364 -89.614087 
L 298.354091 -76.793974 
L 247.626818 -65.784324 
L 196.899545 -108.428414 
L 146.172273 -108.413264 
L 95.445 -29.685 
z
" style="stroke: #d20000"/>
    </defs>
    <g clip-path="url(#p578ff1a3ce)">
     <use xlink:href="#me67001e9ec" x="0" y="508.125" style="fill: #d20000; stroke: #d20000"/>
    </g>
   </g>
   <g id="PolyCollection_30">
    <defs>
     <path id="m53c43c78d7" d="M 95.445 -29.685 
L 95.445 -29.685 
L 146.172273 -108.413264 
L 196.899545 -108.428414 
L 247.626818 -65.784324 
L 298.354091 -76.793974 
L 349.081364 -89.614087 
L 399.808636 -116.084957 
L 450.535909 -119.592442 
L 501.263182 -143.138656 
L 551.990455 -175.892078 
L 602.717727 -230.571819 
L 653.445 -225.892287 
L 704.172273 -261.480136 
L 754.899545 -254.250005 
L 805.626818 -235.458013 
L 856.354091 -301.589209 
L 907.081364 -317.563945 
L 957.808636 -352.214786 
L 1008.535909 -378.523627 
L 1059.263182 -361.107458 
L 1109.990455 -387.311343 
L 1160.717727 -418.111033 
L 1211.445 -478.485 
L 1211.445 -478.485 
L 1211.445 -478.485 
L 1160.717727 -418.111033 
L 1109.990455 -387.311343 
L 1059.263182 -364.635719 
L 1008.535909 -378.523627 
L 957.808636 -355.393421 
L 907.081364 -328.352318 
L 856.354091 -301.589209 
L 805.626818 -235.458013 
L 754.899545 -254.250005 
L 704.172273 -261.480136 
L 653.445 -225.892287 
L 602.717727 -230.571819 
L 551.990455 -175.892078 
L 501.263182 -143.138656 
L 450.535909 -119.592442 
L 399.808636 -116.084957 
L 349.081364 -89.614087 
L 298.354091 -76.793974 
L 247.626818 -65.784324 
L 196.899545 -108.428414 
L 146.172273 -108.413264 
L 95.445 -29.685 
z
" style="stroke: #cc4c4c"/>
    </defs>
    <g clip-path="url(#p578ff1a3ce)">
     <use xlink:href="#m53c43c78d7" x="0" y="508.125" style="fill: #cc4c4c; stroke: #cc4c4c"/>
    </g>
   </g>
   <g id="PolyCollection_31">
    <defs>
     <path id="m47d740b724" d="M 95.445 -29.685 
L 95.445 -29.685 
L 146.172273 -108.413264 
L 196.899545 -108.428414 
L 247.626818 -65.784324 
L 298.354091 -76.793974 
L 349.081364 -89.614087 
L 399.808636 -116.084957 
L 450.535909 -119.592442 
L 501.263182 -143.138656 
L 551.990455 -175.892078 
L 602.717727 -230.571819 
L 653.445 -225.892287 
L 704.172273 -261.480136 
L 754.899545 -254.250005 
L 805.626818 -235.458013 
L 856.354091 -301.589209 
L 907.081364 -328.352318 
L 957.808636 -355.393421 
L 1008.535909 -378.523627 
L 1059.263182 -364.635719 
L 1109.990455 -387.311343 
L 1160.717727 -418.111033 
L 1211.445 -478.485 
L 1211.445 -478.485 
L 1211.445 -478.485 
L 1160.717727 -424.55075 
L 1109.990455 -398.161062 
L 1059.263182 -364.635719 
L 1008.535909 -378.523627 
L 957.808636 -355.393421 
L 907.081364 -328.352318 
L 856.354091 -308.356583 
L 805.626818 -235.458013 
L 754.899545 -254.250005 
L 704.172273 -261.480136 
L 653.445 -225.892287 
L 602.717727 -230.571819 
L 551.990455 -175.892078 
L 501.263182 -143.138656 
L 450.535909 -119.592442 
L 399.808636 -116.084957 
L 349.081364 -89.614087 
L 298.354091 -76.793974 
L 247.626818 -65.784324 
L 196.899545 -108.428414 
L 146.172273 -108.413264 
L 95.445 -29.685 
z
" style="stroke: #cccccc"/>
    </defs>
    <g clip-path="url(#p578ff1a3ce)">
     <use xlink:href="#m47d740b724" x="0" y="508.125" style="fill: #cccccc; stroke: #cccccc"/>
    </g>
   </g>
   <g id="matplotlib.axis_1">
    <g id="xtick_1">
     <g id="line2d_1">
      <defs>
       <path id="mfa1a85edc4" d="M 0 0 
L 0 3.5 
" style="stroke: #000000; stroke-width: 0.8"/>
      </defs>
      <g>
       <use xlink:href="#mfa1a85edc4" x="44.717727" y="478.44" style="stroke: #000000; stroke-width: 0.8"/>
      </g>
     </g>
     <g id="text_1">
      <!-- 1970 -->
      <g transform="translate(24.357727 497.5975) scale(0.16 -0.16)">
       <defs>
        <path id="DejaVuSans-31" d="M 794 531 
L 1825 531 
L 1825 4091 
L 703 3866 
L 703 4441 
L 1819 4666 
L 2450 4666 
L 2450 531 
L 3481 531 
L 3481 0 
L 794 0 
L 794 531 
z
" transform="scale(0.015625)"/>
        <path id="DejaVuSans-39" d="M 703 97 
L 703 672 
Q 941 559 1184 500 
Q 1428 441 1663 441 
Q 2288 441 2617 861 
Q 2947 1281 2994 2138 
Q 2813 1869 2534 1725 
Q 2256 1581 1919 1581 
Q 1219 1581 811 2004 
Q 403 2428 403 3163 
Q 403 3881 828 4315 
Q 1253 4750 1959 4750 
Q 2769 4750 3195 4129 
Q 3622 3509 3622 2328 
Q 3622 1225 3098 567 
Q 2575 -91 1691 -91 
Q 1453 -91 1209 -44 
Q 966 3 703 97 
z
M 1959 2075 
Q 2384 2075 2632 2365 
Q 2881 2656 2881 3163 
Q 2881 3666 2632 3958 
Q 2384 4250 1959 4250 
Q 1534 4250 1286 3958 
Q 1038 3666 1038 3163 
Q 1038 2656 1286 2365 
Q 1534 2075 1959 2075 
z
" transform="scale(0.015625)"/>
        <path id="DejaVuSans-37" d="M 525 4666 
L 3525 4666 
L 3525 4397 
L 1831 0 
L 1172 0 
L 2766 4134 
L 525 4134 
L 525 4666 
z
" transform="scale(0.015625)"/>
        <path id="DejaVuSans-30" d="M 2034 4250 
Q 1547 4250 1301 3770 
Q 1056 3291 1056 2328 
Q 1056 1369 1301 889 
Q 1547 409 2034 409 
Q 2525 409 2770 889 
Q 3016 1369 3016 2328 
Q 3016 3291 2770 3770 
Q 2525 4250 2034 4250 
z
M 2034 4750 
Q 2819 4750 3233 4129 
Q 3647 3509 3647 2328 
Q 3647 1150 3233 529 
Q 2819 -91 2034 -91 
Q 1250 -91 836 529 
Q 422 1150 422 2328 
Q 422 3509 836 4129 
Q 1250 4750 2034 4750 
z
" transform="scale(0.015625)"/>
       </defs>
       <use xlink:href="#DejaVuSans-31"/>
       <use xlink:href="#DejaVuSans-39" x="63.623047"/>
       <use xlink:href="#DejaVuSans-37" x="127.246094"/>
       <use xlink:href="#DejaVuSans-30" x="190.869141"/>
      </g>
     </g>
    </g>
    <g id="xtick_2">
     <g id="line2d_2">
      <g>
       <use xlink:href="#mfa1a85edc4" x="298.354091" y="478.44" style="stroke: #000000; stroke-width: 0.8"/>
      </g>
     </g>
     <g id="text_2">
      <!-- 1980 -->
      <g transform="translate(277.994091 497.5975) scale(0.16 -0.16)">
       <defs>
        <path id="DejaVuSans-38" d="M 2034 2216 
Q 1584 2216 1326 1975 
Q 1069 1734 1069 1313 
Q 1069 891 1326 650 
Q 1584 409 2034 409 
Q 2484 409 2743 651 
Q 3003 894 3003 1313 
Q 3003 1734 2745 1975 
Q 2488 2216 2034 2216 
z
M 1403 2484 
Q 997 2584 770 2862 
Q 544 3141 544 3541 
Q 544 4100 942 4425 
Q 1341 4750 2034 4750 
Q 2731 4750 3128 4425 
Q 3525 4100 3525 3541 
Q 3525 3141 3298 2862 
Q 3072 2584 2669 2484 
Q 3125 2378 3379 2068 
Q 3634 1759 3634 1313 
Q 3634 634 3220 271 
Q 2806 -91 2034 -91 
Q 1263 -91 848 271 
Q 434 634 434 1313 
Q 434 1759 690 2068 
Q 947 2378 1403 2484 
z
M 1172 3481 
Q 1172 3119 1398 2916 
Q 1625 2713 2034 2713 
Q 2441 2713 2670 2916 
Q 2900 3119 2900 3481 
Q 2900 3844 2670 4047 
Q 2441 4250 2034 4250 
Q 1625 4250 1398 4047 
Q 1172 3844 1172 3481 
z
" transform="scale(0.015625)"/>
       </defs>
       <use xlink:href="#DejaVuSans-31"/>
       <use xlink:href="#DejaVuSans-39" x="63.623047"/>
       <use xlink:href="#DejaVuSans-38" x="127.246094"/>
       <use xlink:href="#DejaVuSans-30" x="190.869141"/>
      </g>
     </g>
    </g>
    <g id="xtick_3">
     <g id="line2d_3">
      <g>
       <use xlink:href="#mfa1a85edc4" x="551.990455" y="478.44" style="stroke: #000000; stroke-width: 0.8"/>
      </g>
     </g>
     <g id="text_3">
      <!-- 1990 -->
      <g transform="translate(531.630455 497.5975) scale(0.16 -0.16)">
       <use xlink:href="#DejaVuSans-31"/>
       <use xlink:href="#DejaVuSans-39" x="63.623047"/>
       <use xlink:href="#DejaVuSans-39" x="127.246094"/>
       <use xlink:href="#DejaVuSans-30" x="190.869141"/>
      </g>
     </g>
    </g>
    <g id="xtick_4">
     <g id="line2d_4">
      <g>
       <use xlink:href="#mfa1a85edc4" x="805.626818" y="478.44" style="stroke: #000000; stroke-width: 0.8"/>
      </g>
     </g>
     <g id="text_4">
      <!-- 2000 -->
      <g transform="translate(785.266818 497.5975) scale(0.16 -0.16)">
       <defs>
        <path id="DejaVuSans-32" d="M 1228 531 
L 3431 531 
L 3431 0 
L 469 0 
L 469 531 
Q 828 903 1448 1529 
Q 2069 2156 2228 2338 
Q 2531 2678 2651 2914 
Q 2772 3150 2772 3378 
Q 2772 3750 2511 3984 
Q 2250 4219 1831 4219 
Q 1534 4219 1204 4116 
Q 875 4013 500 3803 
L 500 4441 
Q 881 4594 1212 4672 
Q 1544 4750 1819 4750 
Q 2544 4750 2975 4387 
Q 3406 4025 3406 3419 
Q 3406 3131 3298 2873 
Q 3191 2616 2906 2266 
Q 2828 2175 2409 1742 
Q 1991 1309 1228 531 
z
" transform="scale(0.015625)"/>
       </defs>
       <use xlink:href="#DejaVuSans-32"/>
       <use xlink:href="#DejaVuSans-30" x="63.623047"/>
       <use xlink:href="#DejaVuSans-30" x="127.246094"/>
       <use xlink:href="#DejaVuSans-30" x="190.869141"/>
      </g>
     </g>
    </g>
    <g id="xtick_5">
     <g id="line2d_5">
      <g>
       <use xlink:href="#mfa1a85edc4" x="1059.263182" y="478.44" style="stroke: #000000; stroke-width: 0.8"/>
      </g>
     </g>
     <g id="text_5">
      <!-- 2010 -->
      <g transform="translate(1038.903182 497.5975) scale(0.16 -0.16)">
       <use xlink:href="#DejaVuSans-32"/>
       <use xlink:href="#DejaVuSans-30" x="63.623047"/>
       <use xlink:href="#DejaVuSans-31" x="127.246094"/>
       <use xlink:href="#DejaVuSans-30" x="190.869141"/>
      </g>
     </g>
    </g>
   </g>
   <g id="matplotlib.axis_2">
    <g id="ytick_1">
     <g id="line2d_6">
      <defs>
       <path id="m4e835160ee" d="M 0 0 
L -3.5 0 
" style="stroke: #000000; stroke-width: 0.8"/>
      </defs>
      <g>
       <use xlink:href="#m4e835160ee" x="39.645" y="478.44" style="stroke: #000000; stroke-width: 0.8"/>
      </g>
     </g>
     <g id="text_6">
      <!-- 0.0 -->
      <g transform="translate(7.2 484.51875) scale(0.16 -0.16)">
       <defs>
        <path id="DejaVuSans-2e" d="M 684 794 
L 1344 794 
L 1344 0 
L 684 0 
L 684 794 
z
" transform="scale(0.015625)"/>
       </defs>
       <use xlink:href="#DejaVuSans-30"/>
       <use xlink:href="#DejaVuSans-2e" x="63.623047"/>
       <use xlink:href="#DejaVuSans-30" x="95.410156"/>
      </g>
     </g>
    </g>
    <g id="ytick_2">
     <g id="line2d_7">
      <g>
       <use xlink:href="#m4e835160ee" x="39.645" y="422.847163" style="stroke: #000000; stroke-width: 0.8"/>
      </g>
     </g>
     <g id="text_7">
      <!-- 0.1 -->
      <g transform="translate(7.2 428.925913) scale(0.16 -0.16)">
       <use xlink:href="#DejaVuSans-30"/>
       <use xlink:href="#DejaVuSans-2e" x="63.623047"/>
       <use xlink:href="#DejaVuSans-31" x="95.410156"/>
      </g>
     </g>
    </g>
    <g id="ytick_3">
     <g id="line2d_8">
      <g>
       <use xlink:href="#m4e835160ee" x="39.645" y="367.254326" style="stroke: #000000; stroke-width: 0.8"/>
      </g>
     </g>
     <g id="text_8">
      <!-- 0.2 -->
      <g transform="translate(7.2 373.333076) scale(0.16 -0.16)">
       <use xlink:href="#DejaVuSans-30"/>
       <use xlink:href="#DejaVuSans-2e" x="63.623047"/>
       <use xlink:href="#DejaVuSans-32" x="95.410156"/>
      </g>
     </g>
    </g>
    <g id="ytick_4">
     <g id="line2d_9">
      <g>
       <use xlink:href="#m4e835160ee" x="39.645" y="311.66149" style="stroke: #000000; stroke-width: 0.8"/>
      </g>
     </g>
     <g id="text_9">
      <!-- 0.3 -->
      <g transform="translate(7.2 317.74024) scale(0.16 -0.16)">
       <defs>
        <path id="DejaVuSans-33" d="M 2597 2516 
Q 3050 2419 3304 2112 
Q 3559 1806 3559 1356 
Q 3559 666 3084 287 
Q 2609 -91 1734 -91 
Q 1441 -91 1130 -33 
Q 819 25 488 141 
L 488 750 
Q 750 597 1062 519 
Q 1375 441 1716 441 
Q 2309 441 2620 675 
Q 2931 909 2931 1356 
Q 2931 1769 2642 2001 
Q 2353 2234 1838 2234 
L 1294 2234 
L 1294 2753 
L 1863 2753 
Q 2328 2753 2575 2939 
Q 2822 3125 2822 3475 
Q 2822 3834 2567 4026 
Q 2313 4219 1838 4219 
Q 1578 4219 1281 4162 
Q 984 4106 628 3988 
L 628 4550 
Q 988 4650 1302 4700 
Q 1616 4750 1894 4750 
Q 2613 4750 3031 4423 
Q 3450 4097 3450 3541 
Q 3450 3153 3228 2886 
Q 3006 2619 2597 2516 
z
" transform="scale(0.015625)"/>
       </defs>
       <use xlink:href="#DejaVuSans-30"/>
       <use xlink:href="#DejaVuSans-2e" x="63.623047"/>
       <use xlink:href="#DejaVuSans-33" x="95.410156"/>
      </g>
     </g>
    </g>
    <g id="ytick_5">
     <g id="line2d_10">
      <g>
       <use xlink:href="#m4e835160ee" x="39.645" y="256.068653" style="stroke: #000000; stroke-width: 0.8"/>
      </g>
     </g>
     <g id="text_10">
      <!-- 0.4 -->
      <g transform="translate(7.2 262.147403) scale(0.16 -0.16)">
       <defs>
        <path id="DejaVuSans-34" d="M 2419 4116 
L 825 1625 
L 2419 1625 
L 2419 4116 
z
M 2253 4666 
L 3047 4666 
L 3047 1625 
L 3713 1625 
L 3713 1100 
L 3047 1100 
L 3047 0 
L 2419 0 
L 2419 1100 
L 313 1100 
L 313 1709 
L 2253 4666 
z
" transform="scale(0.015625)"/>
       </defs>
       <use xlink:href="#DejaVuSans-30"/>
       <use xlink:href="#DejaVuSans-2e" x="63.623047"/>
       <use xlink:href="#DejaVuSans-34" x="95.410156"/>
      </g>
     </g>
    </g>
    <g id="ytick_6">
     <g id="line2d_11">
      <g>
       <use xlink:href="#m4e835160ee" x="39.645" y="200.475816" style="stroke: #000000; stroke-width: 0.8"/>
      </g>
     </g>
     <g id="text_11">
      <!-- 0.5 -->
      <g transform="translate(7.2 206.554566) scale(0.16 -0.16)">
       <defs>
        <path id="DejaVuSans-35" d="M 691 4666 
L 3169 4666 
L 3169 4134 
L 1269 4134 
L 1269 2991 
Q 1406 3038 1543 3061 
Q 1681 3084 1819 3084 
Q 2600 3084 3056 2656 
Q 3513 2228 3513 1497 
Q 3513 744 3044 326 
Q 2575 -91 1722 -91 
Q 1428 -91 1123 -41 
Q 819 9 494 109 
L 494 744 
Q 775 591 1075 516 
Q 1375 441 1709 441 
Q 2250 441 2565 725 
Q 2881 1009 2881 1497 
Q 2881 1984 2565 2268 
Q 2250 2553 1709 2553 
Q 1456 2553 1204 2497 
Q 953 2441 691 2322 
L 691 4666 
z
" transform="scale(0.015625)"/>
       </defs>
       <use xlink:href="#DejaVuSans-30"/>
       <use xlink:href="#DejaVuSans-2e" x="63.623047"/>
       <use xlink:href="#DejaVuSans-35" x="95.410156"/>
      </g>
     </g>
    </g>
    <g id="ytick_7">
     <g id="line2d_12">
      <g>
       <use xlink:href="#m4e835160ee" x="39.645" y="144.882979" style="stroke: #000000; stroke-width: 0.8"/>
      </g>
     </g>
     <g id="text_12">
      <!-- 0.6 -->
      <g transform="translate(7.2 150.961729) scale(0.16 -0.16)">
       <defs>
        <path id="DejaVuSans-36" d="M 2113 2584 
Q 1688 2584 1439 2293 
Q 1191 2003 1191 1497 
Q 1191 994 1439 701 
Q 1688 409 2113 409 
Q 2538 409 2786 701 
Q 3034 994 3034 1497 
Q 3034 2003 2786 2293 
Q 2538 2584 2113 2584 
z
M 3366 4563 
L 3366 3988 
Q 3128 4100 2886 4159 
Q 2644 4219 2406 4219 
Q 1781 4219 1451 3797 
Q 1122 3375 1075 2522 
Q 1259 2794 1537 2939 
Q 1816 3084 2150 3084 
Q 2853 3084 3261 2657 
Q 3669 2231 3669 1497 
Q 3669 778 3244 343 
Q 2819 -91 2113 -91 
Q 1303 -91 875 529 
Q 447 1150 447 2328 
Q 447 3434 972 4092 
Q 1497 4750 2381 4750 
Q 2619 4750 2861 4703 
Q 3103 4656 3366 4563 
z
" transform="scale(0.015625)"/>
       </defs>
       <use xlink:href="#DejaVuSans-30"/>
       <use xlink:href="#DejaVuSans-2e" x="63.623047"/>
       <use xlink:href="#DejaVuSans-36" x="95.410156"/>
      </g>
     </g>
    </g>
    <g id="ytick_8">
     <g id="line2d_13">
      <g>
       <use xlink:href="#m4e835160ee" x="39.645" y="89.290142" style="stroke: #000000; stroke-width: 0.8"/>
      </g>
     </g>
     <g id="text_13">
      <!-- 0.7 -->
      <g transform="translate(7.2 95.368892) scale(0.16 -0.16)">
       <use xlink:href="#DejaVuSans-30"/>
       <use xlink:href="#DejaVuSans-2e" x="63.623047"/>
       <use xlink:href="#DejaVuSans-37" x="95.410156"/>
      </g>
     </g>
    </g>
    <g id="ytick_9">
     <g id="line2d_14">
      <g>
       <use xlink:href="#m4e835160ee" x="39.645" y="33.697306" style="stroke: #000000; stroke-width: 0.8"/>
      </g>
     </g>
     <g id="text_14">
      <!-- 0.8 -->
      <g transform="translate(7.2 39.776056) scale(0.16 -0.16)">
       <use xlink:href="#DejaVuSans-30"/>
       <use xlink:href="#DejaVuSans-2e" x="63.623047"/>
       <use xlink:href="#DejaVuSans-38" x="95.410156"/>
      </g>
     </g>
    </g>
   </g>
   <g id="line2d_15">
    <path d="M 95.445 478.44 
L 146.172273 422.514579 
L 196.899545 443.199018 
L 247.626818 456.840093 
L 298.354091 431.331026 
L 349.081364 423.281062 
L 399.808636 427.22068 
L 450.535909 413.617928 
L 501.263182 413.387707 
L 551.990455 415.859831 
L 602.717727 379.589351 
L 653.445 379.134967 
L 704.172273 390.872515 
L 754.899545 380.395021 
L 805.626818 383.439441 
L 856.354091 392.529341 
L 907.081364 375.406818 
L 957.808636 367.715664 
L 1008.535909 368.998331 
L 1059.263182 376.030046 
L 1109.990455 369.075411 
L 1160.717727 366.092638 
L 1211.445 374.152295 
" clip-path="url(#p578ff1a3ce)" style="fill: none; stroke: #000000; stroke-width: 1.5; stroke-linecap: square"/>
   </g>
   <g id="line2d_16">
    <path d="M 95.445 478.44 
L 146.172273 422.514579 
L 196.899545 443.199018 
L 247.626818 456.840093 
L 298.354091 431.331026 
L 349.081364 423.281062 
L 399.808636 406.882625 
L 450.535909 395.531963 
L 501.263182 396.347639 
L 551.990455 390.534302 
L 602.717727 343.857549 
L 653.445 339.691607 
L 704.172273 342.737563 
L 754.899545 342.520786 
L 805.626818 346.703626 
L 856.354091 331.715196 
L 907.081364 310.677145 
L 957.808636 301.524223 
L 1008.535909 289.59628 
L 1059.263182 296.695598 
L 1109.990455 296.188713 
L 1160.717727 297.623801 
L 1211.445 293.914671 
" clip-path="url(#p578ff1a3ce)" style="fill: none; stroke: #4b0055; stroke-width: 1.5; stroke-linecap: square"/>
   </g>
   <g id="line2d_17">
    <path d="M 95.445 478.44 
L 146.172273 422.514579 
L 196.899545 443.199018 
L 247.626818 456.840093 
L 298.354091 431.331026 
L 349.081364 423.281062 
L 399.808636 406.882625 
L 450.535909 395.531963 
L 501.263182 396.347639 
L 551.990455 390.534302 
L 602.717727 343.857549 
L 653.445 339.691607 
L 704.172273 334.69591 
L 754.899545 342.520786 
L 805.626818 346.703626 
L 856.354091 320.04105 
L 907.081364 299.388339 
L 957.808636 293.261344 
L 1008.535909 281.491803 
L 1059.263182 289.143196 
L 1109.990455 278.469976 
L 1160.717727 256.564274 
L 1211.445 252.201829 
" clip-path="url(#p578ff1a3ce)" style="fill: none; stroke: #7d008e; stroke-width: 1.5; stroke-linecap: square"/>
   </g>
   <g id="line2d_18">
    <path d="M 95.445 478.44 
L 146.172273 422.514579 
L 196.899545 443.199018 
L 247.626818 456.840093 
L 298.354091 431.331026 
L 349.081364 423.281062 
L 399.808636 406.882625 
L 450.535909 395.531963 
L 501.263182 396.347639 
L 551.990455 390.534302 
L 602.717727 343.857549 
L 653.445 339.691607 
L 704.172273 334.69591 
L 754.899545 341.206424 
L 805.626818 343.028138 
L 856.354091 315.051976 
L 907.081364 298.081122 
L 957.808636 282.549688 
L 1008.535909 259.870102 
L 1059.263182 253.237359 
L 1109.990455 245.617084 
L 1160.717727 229.39448 
L 1211.445 211.754758 
" clip-path="url(#p578ff1a3ce)" style="fill: none; stroke: #870098; stroke-width: 1.5; stroke-linecap: square"/>
   </g>
   <g id="line2d_19">
    <path d="M 95.445 478.44 
L 146.172273 410.677125 
L 196.899545 434.21897 
L 247.626818 456.840093 
L 298.354091 431.331026 
L 349.081364 423.281062 
L 399.808636 406.882625 
L 450.535909 393.074941 
L 501.263182 373.632578 
L 551.990455 348.281741 
L 602.717727 298.017252 
L 653.445 304.365801 
L 704.172273 290.171312 
L 754.899545 296.049453 
L 805.626818 310.465449 
L 856.354091 279.329896 
L 907.081364 247.140378 
L 957.808636 223.332509 
L 1008.535909 210.118365 
L 1059.263182 216.747086 
L 1109.990455 203.644353 
L 1160.717727 189.899342 
L 1211.445 176.116912 
" clip-path="url(#p578ff1a3ce)" style="fill: none; stroke: #2d00a4; stroke-width: 1.5; stroke-linecap: square"/>
   </g>
   <g id="line2d_20">
    <path d="M 95.445 478.44 
L 146.172273 410.677125 
L 196.899545 434.21897 
L 247.626818 456.840093 
L 298.354091 431.331026 
L 349.081364 423.281062 
L 399.808636 406.882625 
L 450.535909 393.074941 
L 501.263182 373.632578 
L 551.990455 348.281741 
L 602.717727 298.017252 
L 653.445 304.365801 
L 704.172273 290.171312 
L 754.899545 296.049453 
L 805.626818 310.465449 
L 856.354091 279.329896 
L 907.081364 246.208465 
L 957.808636 223.332509 
L 1008.535909 210.118365 
L 1059.263182 216.747086 
L 1109.990455 203.272395 
L 1160.717727 179.380997 
L 1211.445 154.618673 
" clip-path="url(#p578ff1a3ce)" style="fill: none; stroke: #0000b9; stroke-width: 1.5; stroke-linecap: square"/>
   </g>
   <g id="line2d_21">
    <path d="M 95.445 478.44 
L 146.172273 410.677125 
L 196.899545 434.21897 
L 247.626818 456.840093 
L 298.354091 431.331026 
L 349.081364 423.281062 
L 399.808636 406.882625 
L 450.535909 393.074941 
L 501.263182 373.632578 
L 551.990455 348.281741 
L 602.717727 298.017252 
L 653.445 304.365801 
L 704.172273 290.171312 
L 754.899545 296.049453 
L 805.626818 310.465449 
L 856.354091 279.329896 
L 907.081364 246.208465 
L 957.808636 223.332509 
L 1008.535909 210.118365 
L 1059.263182 216.747086 
L 1109.990455 203.272395 
L 1160.717727 179.380997 
L 1211.445 133.392429 
" clip-path="url(#p578ff1a3ce)" style="fill: none; stroke: #0000dd; stroke-width: 1.5; stroke-linecap: square"/>
   </g>
   <g id="line2d_22">
    <path d="M 95.445 478.44 
L 146.172273 410.677125 
L 196.899545 434.21897 
L 247.626818 456.840093 
L 298.354091 431.331026 
L 349.081364 423.281062 
L 399.808636 406.882625 
L 450.535909 393.074941 
L 501.263182 373.632578 
L 551.990455 348.281741 
L 602.717727 298.017252 
L 653.445 304.365801 
L 704.172273 283.613468 
L 754.899545 288.580474 
L 805.626818 308.291636 
L 856.354091 279.329896 
L 907.081364 244.677065 
L 957.808636 216.67706 
L 1008.535909 199.625094 
L 1059.263182 206.834444 
L 1109.990455 191.131095 
L 1160.717727 162.240251 
L 1211.445 116.574336 
" clip-path="url(#p578ff1a3ce)" style="fill: none; stroke: #004bdd; stroke-width: 1.5; stroke-linecap: square"/>
   </g>
   <g id="line2d_23">
    <path d="M 95.445 478.44 
L 146.172273 410.677125 
L 196.899545 434.21897 
L 247.626818 456.840093 
L 298.354091 431.331026 
L 349.081364 423.281062 
L 399.808636 406.882625 
L 450.535909 393.074941 
L 501.263182 373.632578 
L 551.990455 348.281741 
L 602.717727 298.017252 
L 653.445 304.365801 
L 704.172273 279.507084 
L 754.899545 284.446466 
L 805.626818 308.291636 
L 856.354091 276.088204 
L 907.081364 237.320657 
L 957.808636 208.85474 
L 1008.535909 180.747928 
L 1059.263182 184.434445 
L 1109.990455 181.548857 
L 1160.717727 158.028799 
L 1211.445 102.12661 
" clip-path="url(#p578ff1a3ce)" style="fill: none; stroke: #0082dd; stroke-width: 1.5; stroke-linecap: square"/>
   </g>
   <g id="line2d_24">
    <path d="M 95.445 478.44 
L 146.172273 410.677125 
L 196.899545 434.21897 
L 247.626818 456.840093 
L 298.354091 431.331026 
L 349.081364 423.281062 
L 399.808636 406.882625 
L 450.535909 393.074941 
L 501.263182 373.632578 
L 551.990455 348.281741 
L 602.717727 298.017252 
L 653.445 304.365801 
L 704.172273 279.507084 
L 754.899545 284.446466 
L 805.626818 304.248985 
L 856.354091 247.744179 
L 907.081364 216.349617 
L 957.808636 186.919813 
L 1008.535909 166.122987 
L 1059.263182 178.995927 
L 1109.990455 166.776522 
L 1160.717727 140.547332 
L 1211.445 87.786707 
" clip-path="url(#p578ff1a3ce)" style="fill: none; stroke: #0098dd; stroke-width: 1.5; stroke-linecap: square"/>
   </g>
   <g id="line2d_25">
    <path d="M 95.445 478.44 
L 146.172273 410.677125 
L 196.899545 434.21897 
L 247.626818 456.840093 
L 298.354091 431.331026 
L 349.081364 423.281062 
L 399.808636 406.882625 
L 450.535909 393.074941 
L 501.263182 373.632578 
L 551.990455 348.281741 
L 602.717727 298.017252 
L 653.445 304.365801 
L 704.172273 279.507084 
L 754.899545 284.239057 
L 805.626818 304.248985 
L 856.354091 247.744179 
L 907.081364 206.118763 
L 957.808636 179.398176 
L 1008.535909 165.649454 
L 1059.263182 178.995927 
L 1109.990455 162.610656 
L 1160.717727 131.375517 
L 1211.445 74.083663 
" clip-path="url(#p578ff1a3ce)" style="fill: none; stroke: #00a4bb; stroke-width: 1.5; stroke-linecap: square"/>
   </g>
   <g id="line2d_26">
    <path d="M 95.445 478.44 
L 146.172273 410.677125 
L 196.899545 434.21897 
L 247.626818 456.840093 
L 298.354091 431.331026 
L 349.081364 423.281062 
L 399.808636 406.882625 
L 450.535909 393.074941 
L 501.263182 373.632578 
L 551.990455 348.281741 
L 602.717727 294.80553 
L 653.445 304.365801 
L 704.172273 277.9572 
L 754.899545 282.266892 
L 805.626818 304.248985 
L 856.354091 247.744179 
L 907.081364 204.608767 
L 957.808636 174.577791 
L 1008.535909 161.503531 
L 1059.263182 170.769651 
L 1109.990455 155.424595 
L 1160.717727 121.475854 
L 1211.445 64.143013 
" clip-path="url(#p578ff1a3ce)" style="fill: none; stroke: #00aaa0; stroke-width: 1.5; stroke-linecap: square"/>
   </g>
   <g id="line2d_27">
    <path d="M 95.445 478.44 
L 146.172273 410.677125 
L 196.899545 434.21897 
L 247.626818 456.840093 
L 298.354091 431.331026 
L 349.081364 423.281062 
L 399.808636 406.882625 
L 450.535909 393.074941 
L 501.263182 373.632578 
L 551.990455 348.281741 
L 602.717727 294.80553 
L 653.445 304.365801 
L 704.172273 277.9572 
L 754.899545 282.266892 
L 805.626818 304.248985 
L 856.354091 247.744179 
L 907.081364 204.608767 
L 957.808636 174.577791 
L 1008.535909 161.503531 
L 1059.263182 170.769651 
L 1109.990455 155.424595 
L 1160.717727 121.475854 
L 1211.445 54.866109 
" clip-path="url(#p578ff1a3ce)" style="fill: none; stroke: #00aa88; stroke-width: 1.5; stroke-linecap: square"/>
   </g>
   <g id="line2d_28">
    <path d="M 95.445 478.44 
L 146.172273 410.677125 
L 196.899545 434.21897 
L 247.626818 456.840093 
L 298.354091 431.331026 
L 349.081364 423.281062 
L 399.808636 406.882625 
L 450.535909 393.074941 
L 501.263182 373.632578 
L 551.990455 348.281741 
L 602.717727 293.364309 
L 653.445 300.201623 
L 704.172273 272.326518 
L 754.899545 273.98633 
L 805.626818 293.301546 
L 856.354091 229.222408 
L 907.081364 204.608767 
L 957.808636 174.577791 
L 1008.535909 160.681508 
L 1059.263182 170.769651 
L 1109.990455 149.274529 
L 1160.717727 116.32121 
L 1211.445 48.433271 
" clip-path="url(#p578ff1a3ce)" style="fill: none; stroke: #009f33; stroke-width: 1.5; stroke-linecap: square"/>
   </g>
   <g id="line2d_29">
    <path d="M 95.445 478.44 
L 146.172273 410.677125 
L 196.899545 434.21897 
L 247.626818 456.840093 
L 298.354091 431.331026 
L 349.081364 423.281062 
L 399.808636 406.882625 
L 450.535909 393.074941 
L 501.263182 373.632578 
L 551.990455 348.281741 
L 602.717727 293.364309 
L 653.445 300.201623 
L 704.172273 272.326518 
L 754.899545 273.98633 
L 805.626818 293.301546 
L 856.354091 229.222408 
L 907.081364 204.608767 
L 957.808636 174.577791 
L 1008.535909 160.681508 
L 1059.263182 168.792147 
L 1109.990455 149.274529 
L 1160.717727 116.32121 
L 1211.445 42.178795 
" clip-path="url(#p578ff1a3ce)" style="fill: none; stroke: #00a400; stroke-width: 1.5; stroke-linecap: square"/>
   </g>
   <g id="line2d_30">
    <path d="M 95.445 478.44 
L 146.172273 410.677125 
L 196.899545 401.526801 
L 247.626818 442.340676 
L 298.354091 431.331026 
L 349.081364 423.281062 
L 399.808636 406.882625 
L 450.535909 393.074941 
L 501.263182 373.632578 
L 551.990455 348.281741 
L 602.717727 292.375215 
L 653.445 300.201623 
L 704.172273 272.326518 
L 754.899545 271.395292 
L 805.626818 293.120123 
L 856.354091 229.222408 
L 907.081364 204.608767 
L 957.808636 171.113773 
L 1008.535909 146.53524 
L 1059.263182 161.813011 
L 1109.990455 134.469366 
L 1160.717727 108.799385 
L 1211.445 36.361414 
" clip-path="url(#p578ff1a3ce)" style="fill: none; stroke: #00bc00; stroke-width: 1.5; stroke-linecap: square"/>
   </g>
   <g id="line2d_31">
    <path d="M 95.445 478.44 
L 146.172273 410.677125 
L 196.899545 401.526801 
L 247.626818 442.340676 
L 298.354091 431.331026 
L 349.081364 423.281062 
L 399.808636 406.882625 
L 450.535909 393.074941 
L 501.263182 373.632578 
L 551.990455 348.281741 
L 602.717727 292.375215 
L 653.445 300.201623 
L 704.172273 272.326518 
L 754.899545 271.395292 
L 805.626818 293.120123 
L 856.354091 229.222408 
L 907.081364 204.608767 
L 957.808636 171.113773 
L 1008.535909 146.53524 
L 1059.263182 161.813011 
L 1109.990455 134.469366 
L 1160.717727 108.799385 
L 1211.445 31.234493 
" clip-path="url(#p578ff1a3ce)" style="fill: none; stroke: #00d200; stroke-width: 1.5; stroke-linecap: square"/>
   </g>
   <g id="line2d_32">
    <path d="M 95.445 478.44 
L 146.172273 410.677125 
L 196.899545 401.526801 
L 247.626818 442.340676 
L 298.354091 431.331026 
L 349.081364 423.281062 
L 399.808636 406.882625 
L 450.535909 393.074941 
L 501.263182 373.632578 
L 551.990455 348.281741 
L 602.717727 292.375215 
L 653.445 300.201623 
L 704.172273 272.326518 
L 754.899545 271.395292 
L 805.626818 293.120123 
L 856.354091 229.222408 
L 907.081364 204.608767 
L 957.808636 171.113773 
L 1008.535909 146.53524 
L 1059.263182 161.813011 
L 1109.990455 125.623659 
L 1160.717727 95.015851 
L 1211.445 29.64 
" clip-path="url(#p578ff1a3ce)" style="fill: none; stroke: #00ea00; stroke-width: 1.5; stroke-linecap: square"/>
   </g>
   <g id="line2d_33">
    <path d="M 95.445 478.44 
L 146.172273 410.677125 
L 196.899545 401.526801 
L 247.626818 442.340676 
L 298.354091 431.331026 
L 349.081364 423.281062 
L 399.808636 406.882625 
L 450.535909 393.074941 
L 501.263182 373.632578 
L 551.990455 348.281741 
L 602.717727 292.375215 
L 653.445 299.688124 
L 704.172273 272.326518 
L 754.899545 271.395292 
L 805.626818 293.120123 
L 856.354091 229.222408 
L 907.081364 203.695211 
L 957.808636 171.113773 
L 1008.535909 146.53524 
L 1059.263182 161.813011 
L 1109.990455 120.813657 
L 1160.717727 95.015851 
L 1211.445 29.64 
" clip-path="url(#p578ff1a3ce)" style="fill: none; stroke: #00ff00; stroke-width: 1.5; stroke-linecap: square"/>
   </g>
   <g id="line2d_34">
    <path d="M 95.445 478.44 
L 146.172273 410.677125 
L 196.899545 401.526801 
L 247.626818 442.340676 
L 298.354091 431.331026 
L 349.081364 423.281062 
L 399.808636 406.882625 
L 450.535909 393.074941 
L 501.263182 373.632578 
L 551.990455 348.281741 
L 602.717727 292.375215 
L 653.445 299.688124 
L 704.172273 272.326518 
L 754.899545 271.395292 
L 805.626818 293.120123 
L 856.354091 229.222408 
L 907.081364 203.695211 
L 957.808636 171.113773 
L 1008.535909 146.53524 
L 1059.263182 161.813011 
L 1109.990455 120.813657 
L 1160.717727 92.589961 
L 1211.445 29.64 
" clip-path="url(#p578ff1a3ce)" style="fill: none; stroke: #84ff00; stroke-width: 1.5; stroke-linecap: square"/>
   </g>
   <g id="line2d_35">
    <path d="M 95.445 478.44 
L 146.172273 410.677125 
L 196.899545 401.526801 
L 247.626818 442.340676 
L 298.354091 431.331026 
L 349.081364 423.281062 
L 399.808636 406.882625 
L 450.535909 393.074941 
L 501.263182 373.632578 
L 551.990455 348.281741 
L 602.717727 292.375215 
L 653.445 299.688124 
L 704.172273 272.326518 
L 754.899545 271.395292 
L 805.626818 293.120123 
L 856.354091 229.222408 
L 907.081364 203.695211 
L 957.808636 171.113773 
L 1008.535909 146.53524 
L 1059.263182 161.813011 
L 1109.990455 120.813657 
L 1160.717727 92.589961 
L 1211.445 29.64 
" clip-path="url(#p578ff1a3ce)" style="fill: none; stroke: #ccf900; stroke-width: 1.5; stroke-linecap: square"/>
   </g>
   <g id="line2d_36">
    <path d="M 95.445 478.44 
L 146.172273 410.677125 
L 196.899545 401.526801 
L 247.626818 442.340676 
L 298.354091 431.331026 
L 349.081364 423.281062 
L 399.808636 406.882625 
L 450.535909 393.074941 
L 501.263182 373.632578 
L 551.990455 348.281741 
L 602.717727 292.375215 
L 653.445 299.688124 
L 704.172273 272.326518 
L 754.899545 271.395292 
L 805.626818 293.120123 
L 856.354091 229.222408 
L 907.081364 203.695211 
L 957.808636 171.113773 
L 1008.535909 146.53524 
L 1059.263182 161.813011 
L 1109.990455 120.813657 
L 1160.717727 92.589961 
L 1211.445 29.64 
" clip-path="url(#p578ff1a3ce)" style="fill: none; stroke: #efed00; stroke-width: 1.5; stroke-linecap: square"/>
   </g>
   <g id="line2d_37">
    <path d="M 95.445 478.44 
L 146.172273 410.677125 
L 196.899545 401.526801 
L 247.626818 442.340676 
L 298.354091 431.331026 
L 349.081364 423.281062 
L 399.808636 406.882625 
L 450.535909 393.074941 
L 501.263182 373.632578 
L 551.990455 348.281741 
L 602.717727 292.375215 
L 653.445 299.688124 
L 704.172273 272.326518 
L 754.899545 271.395292 
L 805.626818 293.120123 
L 856.354091 229.222408 
L 907.081364 203.695211 
L 957.808636 171.113773 
L 1008.535909 146.53524 
L 1059.263182 161.813011 
L 1109.990455 120.813657 
L 1160.717727 92.589961 
L 1211.445 29.64 
" clip-path="url(#p578ff1a3ce)" style="fill: none; stroke: #f9d700; stroke-width: 1.5; stroke-linecap: square"/>
   </g>
   <g id="line2d_38">
    <path d="M 95.445 478.44 
L 146.172273 410.677125 
L 196.899545 401.526801 
L 247.626818 442.340676 
L 298.354091 431.331026 
L 349.081364 423.281062 
L 399.808636 406.882625 
L 450.535909 393.074941 
L 501.263182 373.632578 
L 551.990455 348.281741 
L 602.717727 292.375215 
L 653.445 299.688124 
L 704.172273 272.326518 
L 754.899545 271.395292 
L 805.626818 293.120123 
L 856.354091 229.222408 
L 907.081364 203.695211 
L 957.808636 171.113773 
L 1008.535909 146.53524 
L 1059.263182 161.813011 
L 1109.990455 120.813657 
L 1160.717727 92.589961 
L 1211.445 29.64 
" clip-path="url(#p578ff1a3ce)" style="fill: none; stroke: #ffb900; stroke-width: 1.5; stroke-linecap: square"/>
   </g>
   <g id="line2d_39">
    <path d="M 95.445 478.44 
L 146.172273 410.677125 
L 196.899545 401.526801 
L 247.626818 442.340676 
L 298.354091 431.331026 
L 349.081364 423.281062 
L 399.808636 406.882625 
L 450.535909 393.074941 
L 501.263182 373.632578 
L 551.990455 348.281741 
L 602.717727 292.375215 
L 653.445 299.688124 
L 704.172273 262.100619 
L 754.899545 268.910073 
L 805.626818 291.599449 
L 856.354091 224.71202 
L 907.081364 203.483986 
L 957.808636 169.67493 
L 1008.535909 141.756321 
L 1059.263182 161.813011 
L 1109.990455 120.813657 
L 1160.717727 90.013967 
L 1211.445 29.64 
" clip-path="url(#p578ff1a3ce)" style="fill: none; stroke: #ff9900; stroke-width: 1.5; stroke-linecap: square"/>
   </g>
   <g id="line2d_40">
    <path d="M 95.445 478.44 
L 146.172273 410.677125 
L 196.899545 401.526801 
L 247.626818 442.340676 
L 298.354091 431.331026 
L 349.081364 423.281062 
L 399.808636 406.882625 
L 450.535909 393.074941 
L 501.263182 373.632578 
L 551.990455 348.281741 
L 602.717727 292.375215 
L 653.445 299.688124 
L 704.172273 262.100619 
L 754.899545 268.910073 
L 805.626818 291.599449 
L 856.354091 224.71202 
L 907.081364 203.483986 
L 957.808636 169.67493 
L 1008.535909 141.756321 
L 1059.263182 161.813011 
L 1109.990455 120.813657 
L 1160.717727 90.013967 
L 1211.445 29.64 
" clip-path="url(#p578ff1a3ce)" style="fill: none; stroke: #ff2d00; stroke-width: 1.5; stroke-linecap: square"/>
   </g>
   <g id="line2d_41">
    <path d="M 95.445 478.44 
L 146.172273 410.677125 
L 196.899545 401.526801 
L 247.626818 442.340676 
L 298.354091 431.331026 
L 349.081364 423.281062 
L 399.808636 406.882625 
L 450.535909 393.074941 
L 501.263182 373.632578 
L 551.990455 348.281741 
L 602.717727 292.375215 
L 653.445 299.688124 
L 704.172273 262.100619 
L 754.899545 268.910073 
L 805.626818 291.599449 
L 856.354091 224.71202 
L 907.081364 203.483986 
L 957.808636 169.67493 
L 1008.535909 141.756321 
L 1059.263182 161.813011 
L 1109.990455 120.813657 
L 1160.717727 90.013967 
L 1211.445 29.64 
" clip-path="url(#p578ff1a3ce)" style="fill: none; stroke: #f40000; stroke-width: 1.5; stroke-linecap: square"/>
   </g>
   <g id="line2d_42">
    <path d="M 95.445 478.44 
L 146.172273 399.711736 
L 196.899545 399.696586 
L 247.626818 442.340676 
L 298.354091 431.331026 
L 349.081364 418.510913 
L 399.808636 392.040043 
L 450.535909 388.532558 
L 501.263182 364.986344 
L 551.990455 332.232922 
L 602.717727 277.553181 
L 653.445 282.232713 
L 704.172273 246.644864 
L 754.899545 253.874995 
L 805.626818 272.666987 
L 856.354091 206.535791 
L 907.081364 190.561055 
L 957.808636 155.910214 
L 1008.535909 129.601373 
L 1059.263182 147.017542 
L 1109.990455 120.813657 
L 1160.717727 90.013967 
L 1211.445 29.64 
" clip-path="url(#p578ff1a3ce)" style="fill: none; stroke: #dc0000; stroke-width: 1.5; stroke-linecap: square"/>
   </g>
   <g id="line2d_43">
    <path d="M 95.445 478.44 
L 146.172273 399.711736 
L 196.899545 399.696586 
L 247.626818 442.340676 
L 298.354091 431.331026 
L 349.081364 418.510913 
L 399.808636 392.040043 
L 450.535909 388.532558 
L 501.263182 364.986344 
L 551.990455 332.232922 
L 602.717727 277.553181 
L 653.445 282.232713 
L 704.172273 246.644864 
L 754.899545 253.874995 
L 805.626818 272.666987 
L 856.354091 206.535791 
L 907.081364 190.561055 
L 957.808636 155.910214 
L 1008.535909 129.601373 
L 1059.263182 147.017542 
L 1109.990455 120.813657 
L 1160.717727 90.013967 
L 1211.445 29.64 
" clip-path="url(#p578ff1a3ce)" style="fill: none; stroke: #d20000; stroke-width: 1.5; stroke-linecap: square"/>
   </g>
   <g id="line2d_44">
    <path d="M 95.445 478.44 
L 146.172273 399.711736 
L 196.899545 399.696586 
L 247.626818 442.340676 
L 298.354091 431.331026 
L 349.081364 418.510913 
L 399.808636 392.040043 
L 450.535909 388.532558 
L 501.263182 364.986344 
L 551.990455 332.232922 
L 602.717727 277.553181 
L 653.445 282.232713 
L 704.172273 246.644864 
L 754.899545 253.874995 
L 805.626818 272.666987 
L 856.354091 206.535791 
L 907.081364 179.772682 
L 957.808636 152.731579 
L 1008.535909 129.601373 
L 1059.263182 143.489281 
L 1109.990455 120.813657 
L 1160.717727 90.013967 
L 1211.445 29.64 
" clip-path="url(#p578ff1a3ce)" style="fill: none; stroke: #cc4c4c; stroke-width: 1.5; stroke-linecap: square"/>
   </g>
   <g id="line2d_45">
    <path d="M 95.445 478.44 
L 146.172273 399.711736 
L 196.899545 399.696586 
L 247.626818 442.340676 
L 298.354091 431.331026 
L 349.081364 418.510913 
L 399.808636 392.040043 
L 450.535909 388.532558 
L 501.263182 364.986344 
L 551.990455 332.232922 
L 602.717727 277.553181 
L 653.445 282.232713 
L 704.172273 246.644864 
L 754.899545 253.874995 
L 805.626818 272.666987 
L 856.354091 199.768417 
L 907.081364 179.772682 
L 957.808636 152.731579 
L 1008.535909 129.601373 
L 1059.263182 143.489281 
L 1109.990455 109.963938 
L 1160.717727 83.57425 
L 1211.445 29.64 
" clip-path="url(#p578ff1a3ce)" style="fill: none; stroke: #cccccc; stroke-width: 1.5; stroke-linecap: square"/>
   </g>
   <g id="patch_3">
    <path d="M 39.645 478.44 
L 39.645 7.2 
" style="fill: none; stroke: #000000; stroke-width: 0.8; stroke-linejoin: miter; stroke-linecap: square"/>
   </g>
   <g id="patch_4">
    <path d="M 1267.245 478.44 
L 1267.245 7.2 
" style="fill: none; stroke: #000000; stroke-width: 0.8; stroke-linejoin: miter; stroke-linecap: square"/>
   </g>
   <g id="patch_5">
    <path d="M 39.645 478.44 
L 1267.245 478.44 
" style="fill: none; stroke: #000000; stroke-width: 0.8; stroke-linejoin: miter; stroke-linecap: square"/>
   </g>
   <g id="patch_6">
    <path d="M 39.645 7.2 
L 1267.245 7.2 
" style="fill: none; stroke: #000000; stroke-width: 0.8; stroke-linejoin: miter; stroke-linecap: square"/>
   </g>
  </g>
 </g>
 <defs>
  <clipPath id="p578ff1a3ce">
   <rect x="39.645" y="7.2" width="1227.6" height="471.24"/>
  </clipPath>
 </defs>
</svg>
