<?xml version="1.0" encoding="utf-8" standalone="no"?>
<!DOCTYPE svg PUBLIC "-//W3C//DTD SVG 1.1//EN"
  "http://www.w3.org/Graphics/SVG/1.1/DTD/svg11.dtd">
<svg xmlns:xlink="http://www.w3.org/1999/xlink" width="1284.625pt" height="508.125pt" viewBox="0 0 1284.625 508.125" xmlns="http://www.w3.org/2000/svg" version="1.1">
 <metadata>
  <rdf:RDF xmlns:dc="http://purl.org/dc/elements/1.1/" xmlns:cc="http://creativecommons.org/ns#" xmlns:rdf="http://www.w3.org/1999/02/22-rdf-syntax-ns#">
   <cc:Work>
    <dc:type rdf:resource="http://purl.org/dc/dcmitype/StillImage"/>
    <dc:date>2024-05-03T01:07:10.932334</dc:date>
    <dc:format>image/svg+xml</dc:format>
    <dc:creator>
     <cc:Agent>
      <dc:title>Matplotlib v3.7.0, https://matplotlib.org/</dc:title>
     </cc:Agent>
    </dc:creator>
   </cc:Work>
  </rdf:RDF>
 </metadata>
 <defs>
  <style type="text/css">*{stroke-linejoin: round; stroke-linecap: butt}</style>
 </defs>
 <g id="figure_1">
  <g id="patch_1">
   <path d="M 0 508.125 
L 1284.625 508.125 
L 1284.625 -0 
L 0 -0 
z
" style="fill: #ffffff"/>
  </g>
  <g id="axes_1">
   <g id="patch_2">
    <path d="M 49.825 478.44 
L 1277.425 478.44 
L 1277.425 7.2 
L 49.825 7.2 
z
" style="fill: #ffffff"/>
   </g>
   <g id="PolyCollection_1">
    <defs>
     <path id="m950594326b" d="M 105.625 -29.685 
L 105.625 -29.685 
L 156.352273 -29.685 
L 207.079545 -29.685 
L 257.806818 -29.685 
L 308.534091 -29.685 
L 359.261364 -29.685 
L 409.988636 -29.685 
L 460.715909 -29.685 
L 511.443182 -29.685 
L 562.170455 -29.685 
L 612.897727 -29.685 
L 663.625 -29.685 
L 714.352273 -29.685 
L 765.079545 -29.685 
L 815.806818 -29.685 
L 866.534091 -29.685 
L 917.261364 -29.685 
L 967.988636 -29.685 
L 1018.715909 -29.685 
L 1069.443182 -29.685 
L 1120.170455 -29.685 
L 1170.897727 -29.685 
L 1221.625 -29.685 
L 1221.625 -124.610702 
L 1221.625 -124.610702 
L 1170.897727 -126.32619 
L 1120.170455 -126.615995 
L 1069.443182 -126.009551 
L 1018.715909 -127.046279 
L 967.988636 -134.438534 
L 917.261364 -137.398548 
L 866.534091 -138.924098 
L 815.806818 -136.25241 
L 765.079545 -133.411891 
L 714.352273 -134.455495 
L 663.625 -137.71837 
L 612.897727 -139.530232 
L 562.170455 -136.36266 
L 511.443182 -135.066096 
L 460.715909 -135.830387 
L 409.988636 -133.923399 
L 359.261364 -128.818619 
L 308.534091 -123.205549 
L 257.806818 -123.278651 
L 207.079545 -117.135879 
L 156.352273 -113.58614 
L 105.625 -29.685 
z
" style="stroke: #000000"/>
    </defs>
    <g clip-path="url(#pc6f3fe1870)">
     <use xlink:href="#m950594326b" x="0" y="508.125" style="stroke: #000000"/>
    </g>
   </g>
   <g id="PolyCollection_2">
    <defs>
     <path id="m147baf89a2" d="M 105.625 -29.685 
L 105.625 -29.685 
L 156.352273 -113.58614 
L 207.079545 -117.135879 
L 257.806818 -123.278651 
L 308.534091 -123.205549 
L 359.261364 -128.818619 
L 409.988636 -133.923399 
L 460.715909 -135.830387 
L 511.443182 -135.066096 
L 562.170455 -136.36266 
L 612.897727 -139.530232 
L 663.625 -137.71837 
L 714.352273 -134.455495 
L 765.079545 -133.411891 
L 815.806818 -136.25241 
L 866.534091 -138.924098 
L 917.261364 -137.398548 
L 967.988636 -134.438534 
L 1018.715909 -127.046279 
L 1069.443182 -126.009551 
L 1120.170455 -126.615995 
L 1170.897727 -126.32619 
L 1221.625 -124.610702 
L 1221.625 -167.98572 
L 1221.625 -167.98572 
L 1170.897727 -173.053356 
L 1120.170455 -172.102575 
L 1069.443182 -168.603581 
L 1018.715909 -172.564918 
L 967.988636 -180.490655 
L 917.261364 -180.251789 
L 866.534091 -174.655792 
L 815.806818 -175.764747 
L 765.079545 -174.190454 
L 714.352273 -170.876291 
L 663.625 -179.02101 
L 612.897727 -180.643886 
L 562.170455 -162.390809 
L 511.443182 -162.122443 
L 460.715909 -162.790982 
L 409.988636 -155.226379 
L 359.261364 -151.760153 
L 308.534091 -142.798967 
L 257.806818 -132.262418 
L 207.079545 -131.793199 
L 156.352273 -136.846467 
L 105.625 -29.685 
z
" style="stroke: #41004b"/>
    </defs>
    <g clip-path="url(#pc6f3fe1870)">
     <use xlink:href="#m147baf89a2" x="0" y="508.125" style="fill: #41004b; stroke: #41004b"/>
    </g>
   </g>
   <g id="PolyCollection_3">
    <defs>
     <path id="m1cc301340c" d="M 105.625 -29.685 
L 105.625 -29.685 
L 156.352273 -136.846467 
L 207.079545 -131.793199 
L 257.806818 -132.262418 
L 308.534091 -142.798967 
L 359.261364 -151.760153 
L 409.988636 -155.226379 
L 460.715909 -162.790982 
L 511.443182 -162.122443 
L 562.170455 -162.390809 
L 612.897727 -180.643886 
L 663.625 -179.02101 
L 714.352273 -170.876291 
L 765.079545 -174.190454 
L 815.806818 -175.764747 
L 866.534091 -174.655792 
L 917.261364 -180.251789 
L 967.988636 -180.490655 
L 1018.715909 -172.564918 
L 1069.443182 -168.603581 
L 1120.170455 -172.102575 
L 1170.897727 -173.053356 
L 1221.625 -167.98572 
L 1221.625 -200.026437 
L 1221.625 -200.026437 
L 1170.897727 -209.088083 
L 1120.170455 -211.100778 
L 1069.443182 -199.920924 
L 1018.715909 -188.035186 
L 967.988636 -196.00214 
L 917.261364 -196.730823 
L 866.534091 -177.37395 
L 815.806818 -195.173769 
L 765.079545 -195.642035 
L 714.352273 -186.957224 
L 663.625 -199.87884 
L 612.897727 -189.929223 
L 562.170455 -171.98182 
L 511.443182 -174.975124 
L 460.715909 -175.118648 
L 409.988636 -172.526365 
L 359.261364 -169.935648 
L 308.534091 -157.554835 
L 257.806818 -132.262418 
L 207.079545 -131.793199 
L 156.352273 -136.846467 
L 105.625 -29.685 
z
" style="stroke: #7a008b"/>
    </defs>
    <g clip-path="url(#pc6f3fe1870)">
     <use xlink:href="#m1cc301340c" x="0" y="508.125" style="fill: #7a008b; stroke: #7a008b"/>
    </g>
   </g>
   <g id="PolyCollection_4">
    <defs>
     <path id="mefcddc5a58" d="M 105.625 -29.685 
L 105.625 -29.685 
L 156.352273 -136.846467 
L 207.079545 -131.793199 
L 257.806818 -132.262418 
L 308.534091 -157.554835 
L 359.261364 -169.935648 
L 409.988636 -172.526365 
L 460.715909 -175.118648 
L 511.443182 -174.975124 
L 562.170455 -171.98182 
L 612.897727 -189.929223 
L 663.625 -199.87884 
L 714.352273 -186.957224 
L 765.079545 -195.642035 
L 815.806818 -195.173769 
L 866.534091 -177.37395 
L 917.261364 -196.730823 
L 967.988636 -196.00214 
L 1018.715909 -188.035186 
L 1069.443182 -199.920924 
L 1120.170455 -211.100778 
L 1170.897727 -209.088083 
L 1221.625 -200.026437 
L 1221.625 -229.178297 
L 1221.625 -229.178297 
L 1170.897727 -232.459597 
L 1120.170455 -228.524159 
L 1069.443182 -214.445116 
L 1018.715909 -202.156573 
L 967.988636 -200.7112 
L 917.261364 -202.416785 
L 866.534091 -180.235668 
L 815.806818 -198.302412 
L 765.079545 -197.080614 
L 714.352273 -186.957224 
L 663.625 -205.915427 
L 612.897727 -199.034078 
L 562.170455 -175.145377 
L 511.443182 -174.975124 
L 460.715909 -175.118648 
L 409.988636 -172.526365 
L 359.261364 -169.935648 
L 308.534091 -157.554835 
L 257.806818 -132.262418 
L 207.079545 -131.793199 
L 156.352273 -136.846467 
L 105.625 -29.685 
z
" style="stroke: #850096"/>
    </defs>
    <g clip-path="url(#pc6f3fe1870)">
     <use xlink:href="#mefcddc5a58" x="0" y="508.125" style="fill: #850096; stroke: #850096"/>
    </g>
   </g>
   <g id="PolyCollection_5">
    <defs>
     <path id="m947c91158f" d="M 105.625 -29.685 
L 105.625 -29.685 
L 156.352273 -136.846467 
L 207.079545 -131.793199 
L 257.806818 -132.262418 
L 308.534091 -157.554835 
L 359.261364 -169.935648 
L 409.988636 -172.526365 
L 460.715909 -175.118648 
L 511.443182 -174.975124 
L 562.170455 -175.145377 
L 612.897727 -199.034078 
L 663.625 -205.915427 
L 714.352273 -186.957224 
L 765.079545 -197.080614 
L 815.806818 -198.302412 
L 866.534091 -180.235668 
L 917.261364 -202.416785 
L 967.988636 -200.7112 
L 1018.715909 -202.156573 
L 1069.443182 -214.445116 
L 1120.170455 -228.524159 
L 1170.897727 -232.459597 
L 1221.625 -229.178297 
L 1221.625 -255.936787 
L 1221.625 -255.936787 
L 1170.897727 -256.677606 
L 1120.170455 -252.861856 
L 1069.443182 -240.138634 
L 1018.715909 -220.621094 
L 967.988636 -208.255986 
L 917.261364 -213.949126 
L 866.534091 -192.137906 
L 815.806818 -210.27863 
L 765.079545 -207.204941 
L 714.352273 -196.665541 
L 663.625 -216.670644 
L 612.897727 -199.034078 
L 562.170455 -175.145377 
L 511.443182 -174.975124 
L 460.715909 -175.118648 
L 409.988636 -172.526365 
L 359.261364 -169.935648 
L 308.534091 -157.554835 
L 257.806818 -132.262418 
L 207.079545 -131.793199 
L 156.352273 -136.846467 
L 105.625 -29.685 
z
" style="stroke: #4d00a0"/>
    </defs>
    <g clip-path="url(#pc6f3fe1870)">
     <use xlink:href="#m947c91158f" x="0" y="508.125" style="fill: #4d00a0; stroke: #4d00a0"/>
    </g>
   </g>
   <g id="PolyCollection_6">
    <defs>
     <path id="m3b242c59e7" d="M 105.625 -29.685 
L 105.625 -29.685 
L 156.352273 -136.846467 
L 207.079545 -131.793199 
L 257.806818 -132.262418 
L 308.534091 -157.554835 
L 359.261364 -169.935648 
L 409.988636 -172.526365 
L 460.715909 -175.118648 
L 511.443182 -174.975124 
L 562.170455 -175.145377 
L 612.897727 -199.034078 
L 663.625 -216.670644 
L 714.352273 -196.665541 
L 765.079545 -207.204941 
L 815.806818 -210.27863 
L 866.534091 -192.137906 
L 917.261364 -213.949126 
L 967.988636 -208.255986 
L 1018.715909 -220.621094 
L 1069.443182 -240.138634 
L 1120.170455 -252.861856 
L 1170.897727 -256.677606 
L 1221.625 -255.936787 
L 1221.625 -279.165583 
L 1221.625 -279.165583 
L 1170.897727 -256.677606 
L 1120.170455 -252.861856 
L 1069.443182 -240.138634 
L 1018.715909 -220.621094 
L 967.988636 -208.255986 
L 917.261364 -221.227634 
L 866.534091 -192.137906 
L 815.806818 -210.27863 
L 765.079545 -207.204941 
L 714.352273 -196.665541 
L 663.625 -216.670644 
L 612.897727 -199.034078 
L 562.170455 -175.145377 
L 511.443182 -174.975124 
L 460.715909 -175.118648 
L 409.988636 -172.526365 
L 359.261364 -169.935648 
L 308.534091 -157.554835 
L 257.806818 -132.262418 
L 207.079545 -131.793199 
L 156.352273 -136.846467 
L 105.625 -29.685 
z
" style="stroke: #0300aa"/>
    </defs>
    <g clip-path="url(#pc6f3fe1870)">
     <use xlink:href="#m3b242c59e7" x="0" y="508.125" style="fill: #0300aa; stroke: #0300aa"/>
    </g>
   </g>
   <g id="PolyCollection_7">
    <defs>
     <path id="m8936badd70" d="M 105.625 -29.685 
L 105.625 -29.685 
L 156.352273 -136.846467 
L 207.079545 -131.793199 
L 257.806818 -132.262418 
L 308.534091 -157.554835 
L 359.261364 -169.935648 
L 409.988636 -172.526365 
L 460.715909 -175.118648 
L 511.443182 -174.975124 
L 562.170455 -175.145377 
L 612.897727 -199.034078 
L 663.625 -216.670644 
L 714.352273 -196.665541 
L 765.079545 -207.204941 
L 815.806818 -210.27863 
L 866.534091 -192.137906 
L 917.261364 -221.227634 
L 967.988636 -208.255986 
L 1018.715909 -220.621094 
L 1069.443182 -240.138634 
L 1120.170455 -252.861856 
L 1170.897727 -256.677606 
L 1221.625 -279.165583 
L 1221.625 -301.545939 
L 1221.625 -301.545939 
L 1170.897727 -283.081847 
L 1120.170455 -279.564752 
L 1069.443182 -256.504249 
L 1018.715909 -237.154593 
L 967.988636 -218.462535 
L 917.261364 -227.473042 
L 866.534091 -202.998452 
L 815.806818 -225.702463 
L 765.079545 -221.275404 
L 714.352273 -206.975913 
L 663.625 -225.00224 
L 612.897727 -209.621409 
L 562.170455 -186.95655 
L 511.443182 -184.937767 
L 460.715909 -188.593218 
L 409.988636 -185.521327 
L 359.261364 -169.935648 
L 308.534091 -157.554835 
L 257.806818 -132.262418 
L 207.079545 -131.793199 
L 156.352273 -136.846467 
L 105.625 -29.685 
z
" style="stroke: #0000c9"/>
    </defs>
    <g clip-path="url(#pc6f3fe1870)">
     <use xlink:href="#m8936badd70" x="0" y="508.125" style="fill: #0000c9; stroke: #0000c9"/>
    </g>
   </g>
   <g id="PolyCollection_8">
    <defs>
     <path id="mb6d7cacc09" d="M 105.625 -29.685 
L 105.625 -29.685 
L 156.352273 -136.846467 
L 207.079545 -131.793199 
L 257.806818 -132.262418 
L 308.534091 -157.554835 
L 359.261364 -169.935648 
L 409.988636 -185.521327 
L 460.715909 -188.593218 
L 511.443182 -184.937767 
L 562.170455 -186.95655 
L 612.897727 -209.621409 
L 663.625 -225.00224 
L 714.352273 -206.975913 
L 765.079545 -221.275404 
L 815.806818 -225.702463 
L 866.534091 -202.998452 
L 917.261364 -227.473042 
L 967.988636 -218.462535 
L 1018.715909 -237.154593 
L 1069.443182 -256.504249 
L 1120.170455 -279.564752 
L 1170.897727 -283.081847 
L 1221.625 -301.545939 
L 1221.625 -322.087198 
L 1221.625 -322.087198 
L 1170.897727 -306.638203 
L 1120.170455 -308.63147 
L 1069.443182 -278.131888 
L 1018.715909 -257.417724 
L 967.988636 -242.311396 
L 917.261364 -247.272739 
L 866.534091 -216.202588 
L 815.806818 -243.48245 
L 765.079545 -230.397227 
L 714.352273 -211.285085 
L 663.625 -235.787768 
L 612.897727 -214.646701 
L 562.170455 -187.975963 
L 511.443182 -190.015321 
L 460.715909 -198.641109 
L 409.988636 -195.758503 
L 359.261364 -174.115123 
L 308.534091 -157.554835 
L 257.806818 -132.262418 
L 207.079545 -131.793199 
L 156.352273 -136.846467 
L 105.625 -29.685 
z
" style="stroke: #001cdd"/>
    </defs>
    <g clip-path="url(#pc6f3fe1870)">
     <use xlink:href="#mb6d7cacc09" x="0" y="508.125" style="fill: #001cdd; stroke: #001cdd"/>
    </g>
   </g>
   <g id="PolyCollection_9">
    <defs>
     <path id="m49a7d0bfcc" d="M 105.625 -29.685 
L 105.625 -29.685 
L 156.352273 -136.846467 
L 207.079545 -131.793199 
L 257.806818 -132.262418 
L 308.534091 -157.554835 
L 359.261364 -174.115123 
L 409.988636 -195.758503 
L 460.715909 -198.641109 
L 511.443182 -190.015321 
L 562.170455 -187.975963 
L 612.897727 -214.646701 
L 663.625 -235.787768 
L 714.352273 -211.285085 
L 765.079545 -230.397227 
L 815.806818 -243.48245 
L 866.534091 -216.202588 
L 917.261364 -247.272739 
L 967.988636 -242.311396 
L 1018.715909 -257.417724 
L 1069.443182 -278.131888 
L 1120.170455 -308.63147 
L 1170.897727 -306.638203 
L 1221.625 -322.087198 
L 1221.625 -341.853798 
L 1221.625 -341.853798 
L 1170.897727 -325.250177 
L 1120.170455 -326.2847 
L 1069.443182 -289.896174 
L 1018.715909 -262.164308 
L 967.988636 -253.697733 
L 917.261364 -260.323034 
L 866.534091 -225.995102 
L 815.806818 -246.419913 
L 765.079545 -230.397227 
L 714.352273 -211.285085 
L 663.625 -235.85558 
L 612.897727 -214.646701 
L 562.170455 -195.434744 
L 511.443182 -199.380984 
L 460.715909 -210.267945 
L 409.988636 -202.547055 
L 359.261364 -177.832253 
L 308.534091 -162.01961 
L 257.806818 -132.262418 
L 207.079545 -131.793199 
L 156.352273 -136.846467 
L 105.625 -29.685 
z
" style="stroke: #0067dd"/>
    </defs>
    <g clip-path="url(#pc6f3fe1870)">
     <use xlink:href="#m49a7d0bfcc" x="0" y="508.125" style="fill: #0067dd; stroke: #0067dd"/>
    </g>
   </g>
   <g id="PolyCollection_10">
    <defs>
     <path id="m5366bfd45b" d="M 105.625 -29.685 
L 105.625 -29.685 
L 156.352273 -136.846467 
L 207.079545 -131.793199 
L 257.806818 -132.262418 
L 308.534091 -162.01961 
L 359.261364 -177.832253 
L 409.988636 -202.547055 
L 460.715909 -210.267945 
L 511.443182 -199.380984 
L 562.170455 -195.434744 
L 612.897727 -214.646701 
L 663.625 -235.85558 
L 714.352273 -211.285085 
L 765.079545 -230.397227 
L 815.806818 -246.419913 
L 866.534091 -225.995102 
L 917.261364 -260.323034 
L 967.988636 -253.697733 
L 1018.715909 -262.164308 
L 1069.443182 -289.896174 
L 1120.170455 -326.2847 
L 1170.897727 -325.250177 
L 1221.625 -341.853798 
L 1221.625 -359.959965 
L 1221.625 -359.959965 
L 1170.897727 -340.738114 
L 1120.170455 -340.352549 
L 1069.443182 -296.929471 
L 1018.715909 -269.923892 
L 967.988636 -264.007596 
L 917.261364 -271.719427 
L 866.534091 -237.583819 
L 815.806818 -252.04151 
L 765.079545 -236.445498 
L 714.352273 -216.903304 
L 663.625 -235.85558 
L 612.897727 -214.646701 
L 562.170455 -195.434744 
L 511.443182 -199.380984 
L 460.715909 -210.267945 
L 409.988636 -202.547055 
L 359.261364 -177.832253 
L 308.534091 -162.01961 
L 257.806818 -132.262418 
L 207.079545 -131.793199 
L 156.352273 -136.846467 
L 105.625 -29.685 
z
" style="stroke: #0085dd"/>
    </defs>
    <g clip-path="url(#pc6f3fe1870)">
     <use xlink:href="#m5366bfd45b" x="0" y="508.125" style="fill: #0085dd; stroke: #0085dd"/>
    </g>
   </g>
   <g id="PolyCollection_11">
    <defs>
     <path id="m8f9ec756c9" d="M 105.625 -29.685 
L 105.625 -29.685 
L 156.352273 -136.846467 
L 207.079545 -131.793199 
L 257.806818 -132.262418 
L 308.534091 -162.01961 
L 359.261364 -177.832253 
L 409.988636 -202.547055 
L 460.715909 -210.267945 
L 511.443182 -199.380984 
L 562.170455 -195.434744 
L 612.897727 -214.646701 
L 663.625 -235.85558 
L 714.352273 -216.903304 
L 765.079545 -236.445498 
L 815.806818 -252.04151 
L 866.534091 -237.583819 
L 917.261364 -271.719427 
L 967.988636 -264.007596 
L 1018.715909 -269.923892 
L 1069.443182 -296.929471 
L 1120.170455 -340.352549 
L 1170.897727 -340.738114 
L 1221.625 -359.959965 
L 1221.625 -376.438368 
L 1221.625 -376.438368 
L 1170.897727 -352.678751 
L 1120.170455 -349.764519 
L 1069.443182 -304.68716 
L 1018.715909 -278.651002 
L 967.988636 -266.635858 
L 917.261364 -274.425126 
L 866.534091 -248.34772 
L 815.806818 -259.696608 
L 765.079545 -239.865655 
L 714.352273 -222.462997 
L 663.625 -240.050066 
L 612.897727 -214.646701 
L 562.170455 -195.434744 
L 511.443182 -201.014703 
L 460.715909 -216.662613 
L 409.988636 -213.071844 
L 359.261364 -187.269457 
L 308.534091 -174.582942 
L 257.806818 -132.262418 
L 207.079545 -131.793199 
L 156.352273 -136.846467 
L 105.625 -29.685 
z
" style="stroke: #009adb"/>
    </defs>
    <g clip-path="url(#pc6f3fe1870)">
     <use xlink:href="#m8f9ec756c9" x="0" y="508.125" style="fill: #009adb; stroke: #009adb"/>
    </g>
   </g>
   <g id="PolyCollection_12">
    <defs>
     <path id="m7bbdc1a08f" d="M 105.625 -29.685 
L 105.625 -29.685 
L 156.352273 -136.846467 
L 207.079545 -131.793199 
L 257.806818 -132.262418 
L 308.534091 -174.582942 
L 359.261364 -187.269457 
L 409.988636 -213.071844 
L 460.715909 -216.662613 
L 511.443182 -201.014703 
L 562.170455 -195.434744 
L 612.897727 -214.646701 
L 663.625 -240.050066 
L 714.352273 -222.462997 
L 765.079545 -239.865655 
L 815.806818 -259.696608 
L 866.534091 -248.34772 
L 917.261364 -274.425126 
L 967.988636 -266.635858 
L 1018.715909 -278.651002 
L 1069.443182 -304.68716 
L 1120.170455 -349.764519 
L 1170.897727 -352.678751 
L 1221.625 -376.438368 
L 1221.625 -391.363765 
L 1221.625 -391.363765 
L 1170.897727 -369.3444 
L 1120.170455 -372.277802 
L 1069.443182 -333.581883 
L 1018.715909 -299.947837 
L 967.988636 -288.470597 
L 917.261364 -295.300045 
L 866.534091 -261.546505 
L 815.806818 -279.600918 
L 765.079545 -255.597883 
L 714.352273 -235.145787 
L 663.625 -256.235683 
L 612.897727 -226.187307 
L 562.170455 -201.402079 
L 511.443182 -207.199659 
L 460.715909 -233.197821 
L 409.988636 -228.421406 
L 359.261364 -204.293845 
L 308.534091 -187.706822 
L 257.806818 -132.262418 
L 207.079545 -131.793199 
L 156.352273 -140.422577 
L 105.625 -29.685 
z
" style="stroke: #00a4bb"/>
    </defs>
    <g clip-path="url(#pc6f3fe1870)">
     <use xlink:href="#m7bbdc1a08f" x="0" y="508.125" style="fill: #00a4bb; stroke: #00a4bb"/>
    </g>
   </g>
   <g id="PolyCollection_13">
    <defs>
     <path id="m7f257ab514" d="M 105.625 -29.685 
L 105.625 -29.685 
L 156.352273 -140.422577 
L 207.079545 -131.793199 
L 257.806818 -132.262418 
L 308.534091 -187.706822 
L 359.261364 -204.293845 
L 409.988636 -228.421406 
L 460.715909 -233.197821 
L 511.443182 -207.199659 
L 562.170455 -201.402079 
L 612.897727 -226.187307 
L 663.625 -256.235683 
L 714.352273 -235.145787 
L 765.079545 -255.597883 
L 815.806818 -279.600918 
L 866.534091 -261.546505 
L 917.261364 -295.300045 
L 967.988636 -288.470597 
L 1018.715909 -299.947837 
L 1069.443182 -333.581883 
L 1120.170455 -372.277802 
L 1170.897727 -369.3444 
L 1221.625 -391.363765 
L 1221.625 -405.363929 
L 1221.625 -405.363929 
L 1170.897727 -380.287668 
L 1120.170455 -384.315625 
L 1069.443182 -336.662525 
L 1018.715909 -299.947837 
L 967.988636 -288.470597 
L 917.261364 -295.300045 
L 866.534091 -261.546505 
L 815.806818 -279.600918 
L 765.079545 -255.597883 
L 714.352273 -235.145787 
L 663.625 -256.235683 
L 612.897727 -226.187307 
L 562.170455 -201.402079 
L 511.443182 -207.199659 
L 460.715909 -233.197821 
L 409.988636 -228.421406 
L 359.261364 -204.293845 
L 308.534091 -187.706822 
L 257.806818 -132.262418 
L 207.079545 -131.793199 
L 156.352273 -140.422577 
L 105.625 -29.685 
z
" style="stroke: #00aaa0"/>
    </defs>
    <g clip-path="url(#pc6f3fe1870)">
     <use xlink:href="#m7f257ab514" x="0" y="508.125" style="fill: #00aaa0; stroke: #00aaa0"/>
    </g>
   </g>
   <g id="PolyCollection_14">
    <defs>
     <path id="mbe1b93ee5e" d="M 105.625 -29.685 
L 105.625 -29.685 
L 156.352273 -140.422577 
L 207.079545 -131.793199 
L 257.806818 -132.262418 
L 308.534091 -187.706822 
L 359.261364 -204.293845 
L 409.988636 -228.421406 
L 460.715909 -233.197821 
L 511.443182 -207.199659 
L 562.170455 -201.402079 
L 612.897727 -226.187307 
L 663.625 -256.235683 
L 714.352273 -235.145787 
L 765.079545 -255.597883 
L 815.806818 -279.600918 
L 866.534091 -261.546505 
L 917.261364 -295.300045 
L 967.988636 -288.470597 
L 1018.715909 -299.947837 
L 1069.443182 -336.662525 
L 1120.170455 -384.315625 
L 1170.897727 -380.287668 
L 1221.625 -405.363929 
L 1221.625 -416.930797 
L 1221.625 -416.930797 
L 1170.897727 -380.287668 
L 1120.170455 -384.315625 
L 1069.443182 -336.662525 
L 1018.715909 -299.947837 
L 967.988636 -288.470597 
L 917.261364 -295.300045 
L 866.534091 -261.546505 
L 815.806818 -279.600918 
L 765.079545 -255.597883 
L 714.352273 -235.145787 
L 663.625 -256.235683 
L 612.897727 -226.187307 
L 562.170455 -201.402079 
L 511.443182 -207.199659 
L 460.715909 -233.197821 
L 409.988636 -228.421406 
L 359.261364 -204.293845 
L 308.534091 -187.706822 
L 257.806818 -132.262418 
L 207.079545 -131.793199 
L 156.352273 -140.422577 
L 105.625 -29.685 
z
" style="stroke: #00aa8d"/>
    </defs>
    <g clip-path="url(#pc6f3fe1870)">
     <use xlink:href="#mbe1b93ee5e" x="0" y="508.125" style="fill: #00aa8d; stroke: #00aa8d"/>
    </g>
   </g>
   <g id="PolyCollection_15">
    <defs>
     <path id="md7eeaaa3f8" d="M 105.625 -29.685 
L 105.625 -29.685 
L 156.352273 -140.422577 
L 207.079545 -131.793199 
L 257.806818 -132.262418 
L 308.534091 -187.706822 
L 359.261364 -204.293845 
L 409.988636 -228.421406 
L 460.715909 -233.197821 
L 511.443182 -207.199659 
L 562.170455 -201.402079 
L 612.897727 -226.187307 
L 663.625 -256.235683 
L 714.352273 -235.145787 
L 765.079545 -255.597883 
L 815.806818 -279.600918 
L 866.534091 -261.546505 
L 917.261364 -295.300045 
L 967.988636 -288.470597 
L 1018.715909 -299.947837 
L 1069.443182 -336.662525 
L 1120.170455 -384.315625 
L 1170.897727 -380.287668 
L 1221.625 -416.930797 
L 1221.625 -427.472268 
L 1221.625 -427.472268 
L 1170.897727 -394.382024 
L 1120.170455 -399.481866 
L 1069.443182 -350.043391 
L 1018.715909 -308.825542 
L 967.988636 -288.470597 
L 917.261364 -295.300045 
L 866.534091 -263.255378 
L 815.806818 -279.600918 
L 765.079545 -255.597883 
L 714.352273 -235.145787 
L 663.625 -256.235683 
L 612.897727 -226.187307 
L 562.170455 -201.402079 
L 511.443182 -207.199659 
L 460.715909 -233.197821 
L 409.988636 -228.421406 
L 359.261364 -204.293845 
L 308.534091 -187.706822 
L 257.806818 -132.262418 
L 207.079545 -131.793199 
L 156.352273 -140.422577 
L 105.625 -29.685 
z
" style="stroke: #00a248"/>
    </defs>
    <g clip-path="url(#pc6f3fe1870)">
     <use xlink:href="#md7eeaaa3f8" x="0" y="508.125" style="fill: #00a248; stroke: #00a248"/>
    </g>
   </g>
   <g id="PolyCollection_16">
    <defs>
     <path id="me048ffbce5" d="M 105.625 -29.685 
L 105.625 -29.685 
L 156.352273 -140.422577 
L 207.079545 -131.793199 
L 257.806818 -132.262418 
L 308.534091 -187.706822 
L 359.261364 -204.293845 
L 409.988636 -228.421406 
L 460.715909 -233.197821 
L 511.443182 -207.199659 
L 562.170455 -201.402079 
L 612.897727 -226.187307 
L 663.625 -256.235683 
L 714.352273 -235.145787 
L 765.079545 -255.597883 
L 815.806818 -279.600918 
L 866.534091 -263.255378 
L 917.261364 -295.300045 
L 967.988636 -288.470597 
L 1018.715909 -308.825542 
L 1069.443182 -350.043391 
L 1120.170455 -399.481866 
L 1170.897727 -394.382024 
L 1221.625 -427.472268 
L 1221.625 -435.861204 
L 1221.625 -435.861204 
L 1170.897727 -399.701444 
L 1120.170455 -405.145315 
L 1069.443182 -355.024336 
L 1018.715909 -311.718889 
L 967.988636 -290.963621 
L 917.261364 -298.957415 
L 866.534091 -264.095797 
L 815.806818 -285.002923 
L 765.079545 -255.597883 
L 714.352273 -235.145787 
L 663.625 -256.235683 
L 612.897727 -226.187307 
L 562.170455 -201.402079 
L 511.443182 -207.199659 
L 460.715909 -233.197821 
L 409.988636 -228.421406 
L 359.261364 -204.293845 
L 308.534091 -187.706822 
L 257.806818 -132.262418 
L 207.079545 -131.793199 
L 156.352273 -140.422577 
L 105.625 -29.685 
z
" style="stroke: #009c00"/>
    </defs>
    <g clip-path="url(#pc6f3fe1870)">
     <use xlink:href="#me048ffbce5" x="0" y="508.125" style="fill: #009c00; stroke: #009c00"/>
    </g>
   </g>
   <g id="PolyCollection_17">
    <defs>
     <path id="m2b60d614ab" d="M 105.625 -29.685 
L 105.625 -29.685 
L 156.352273 -140.422577 
L 207.079545 -131.793199 
L 257.806818 -132.262418 
L 308.534091 -187.706822 
L 359.261364 -204.293845 
L 409.988636 -228.421406 
L 460.715909 -233.197821 
L 511.443182 -207.199659 
L 562.170455 -201.402079 
L 612.897727 -226.187307 
L 663.625 -256.235683 
L 714.352273 -235.145787 
L 765.079545 -255.597883 
L 815.806818 -285.002923 
L 866.534091 -264.095797 
L 917.261364 -298.957415 
L 967.988636 -290.963621 
L 1018.715909 -311.718889 
L 1069.443182 -355.024336 
L 1120.170455 -405.145315 
L 1170.897727 -399.701444 
L 1221.625 -435.861204 
L 1221.625 -442.209313 
L 1221.625 -442.209313 
L 1170.897727 -410.93588 
L 1120.170455 -406.08037 
L 1069.443182 -355.024336 
L 1018.715909 -311.718889 
L 967.988636 -290.963621 
L 917.261364 -298.957415 
L 866.534091 -264.095797 
L 815.806818 -285.002923 
L 765.079545 -255.597883 
L 714.352273 -235.145787 
L 663.625 -256.235683 
L 612.897727 -226.8268 
L 562.170455 -201.402079 
L 511.443182 -207.199659 
L 460.715909 -233.197821 
L 409.988636 -228.421406 
L 359.261364 -204.293845 
L 308.534091 -187.706822 
L 257.806818 -132.262418 
L 207.079545 -131.793199 
L 156.352273 -140.422577 
L 105.625 -29.685 
z
" style="stroke: #00b200"/>
    </defs>
    <g clip-path="url(#pc6f3fe1870)">
     <use xlink:href="#m2b60d614ab" x="0" y="508.125" style="fill: #00b200; stroke: #00b200"/>
    </g>
   </g>
   <g id="PolyCollection_18">
    <defs>
     <path id="m65ec381290" d="M 105.625 -29.685 
L 105.625 -29.685 
L 156.352273 -140.422577 
L 207.079545 -131.793199 
L 257.806818 -132.262418 
L 308.534091 -187.706822 
L 359.261364 -204.293845 
L 409.988636 -228.421406 
L 460.715909 -233.197821 
L 511.443182 -207.199659 
L 562.170455 -201.402079 
L 612.897727 -226.8268 
L 663.625 -256.235683 
L 714.352273 -235.145787 
L 765.079545 -255.597883 
L 815.806818 -285.002923 
L 866.534091 -264.095797 
L 917.261364 -298.957415 
L 967.988636 -290.963621 
L 1018.715909 -311.718889 
L 1069.443182 -355.024336 
L 1120.170455 -406.08037 
L 1170.897727 -410.93588 
L 1221.625 -442.209313 
L 1221.625 -446.41492 
L 1221.625 -446.41492 
L 1170.897727 -410.93588 
L 1120.170455 -406.08037 
L 1069.443182 -356.136783 
L 1018.715909 -311.718889 
L 967.988636 -290.963621 
L 917.261364 -298.957415 
L 866.534091 -264.095797 
L 815.806818 -285.002923 
L 765.079545 -255.597883 
L 714.352273 -235.145787 
L 663.625 -256.235683 
L 612.897727 -226.8268 
L 562.170455 -201.402079 
L 511.443182 -207.199659 
L 460.715909 -233.197821 
L 409.988636 -228.421406 
L 359.261364 -204.293845 
L 308.534091 -187.706822 
L 257.806818 -132.262418 
L 207.079545 -131.793199 
L 156.352273 -140.422577 
L 105.625 -29.685 
z
" style="stroke: #00c400"/>
    </defs>
    <g clip-path="url(#pc6f3fe1870)">
     <use xlink:href="#m65ec381290" x="0" y="508.125" style="fill: #00c400; stroke: #00c400"/>
    </g>
   </g>
   <g id="PolyCollection_19">
    <defs>
     <path id="m6f64b1d75c" d="M 105.625 -29.685 
L 105.625 -29.685 
L 156.352273 -140.422577 
L 207.079545 -131.793199 
L 257.806818 -132.262418 
L 308.534091 -187.706822 
L 359.261364 -204.293845 
L 409.988636 -228.421406 
L 460.715909 -233.197821 
L 511.443182 -207.199659 
L 562.170455 -201.402079 
L 612.897727 -226.8268 
L 663.625 -256.235683 
L 714.352273 -235.145787 
L 765.079545 -255.597883 
L 815.806818 -285.002923 
L 866.534091 -264.095797 
L 917.261364 -298.957415 
L 967.988636 -290.963621 
L 1018.715909 -311.718889 
L 1069.443182 -356.136783 
L 1120.170455 -406.08037 
L 1170.897727 -410.93588 
L 1221.625 -446.41492 
L 1221.625 -449.706702 
L 1221.625 -449.706702 
L 1170.897727 -410.93588 
L 1120.170455 -406.08037 
L 1069.443182 -356.136783 
L 1018.715909 -311.718889 
L 967.988636 -290.963621 
L 917.261364 -298.957415 
L 866.534091 -264.095797 
L 815.806818 -285.002923 
L 765.079545 -255.597883 
L 714.352273 -235.145787 
L 663.625 -256.235683 
L 612.897727 -226.8268 
L 562.170455 -201.402079 
L 511.443182 -207.199659 
L 460.715909 -233.197821 
L 409.988636 -228.421406 
L 359.261364 -204.293845 
L 308.534091 -187.706822 
L 257.806818 -132.262418 
L 207.079545 -131.793199 
L 156.352273 -140.422577 
L 105.625 -29.685 
z
" style="stroke: #00da00"/>
    </defs>
    <g clip-path="url(#pc6f3fe1870)">
     <use xlink:href="#m6f64b1d75c" x="0" y="508.125" style="fill: #00da00; stroke: #00da00"/>
    </g>
   </g>
   <g id="PolyCollection_20">
    <defs>
     <path id="ma7de0a0690" d="M 105.625 -29.685 
L 105.625 -29.685 
L 156.352273 -140.422577 
L 207.079545 -131.793199 
L 257.806818 -132.262418 
L 308.534091 -187.706822 
L 359.261364 -204.293845 
L 409.988636 -228.421406 
L 460.715909 -233.197821 
L 511.443182 -207.199659 
L 562.170455 -201.402079 
L 612.897727 -226.8268 
L 663.625 -256.235683 
L 714.352273 -235.145787 
L 765.079545 -255.597883 
L 815.806818 -285.002923 
L 866.534091 -264.095797 
L 917.261364 -298.957415 
L 967.988636 -290.963621 
L 1018.715909 -311.718889 
L 1069.443182 -356.136783 
L 1120.170455 -406.08037 
L 1170.897727 -410.93588 
L 1221.625 -449.706702 
L 1221.625 -452.97473 
L 1221.625 -452.97473 
L 1170.897727 -412.276184 
L 1120.170455 -406.08037 
L 1069.443182 -356.136783 
L 1018.715909 -311.718889 
L 967.988636 -290.963621 
L 917.261364 -298.957415 
L 866.534091 -264.095797 
L 815.806818 -285.002923 
L 765.079545 -255.597883 
L 714.352273 -235.145787 
L 663.625 -256.235683 
L 612.897727 -226.8268 
L 562.170455 -201.402079 
L 511.443182 -207.199659 
L 460.715909 -233.197821 
L 409.988636 -228.421406 
L 359.261364 -204.293845 
L 308.534091 -187.706822 
L 257.806818 -132.262418 
L 207.079545 -131.793199 
L 156.352273 -140.422577 
L 105.625 -29.685 
z
" style="stroke: #00ef00"/>
    </defs>
    <g clip-path="url(#pc6f3fe1870)">
     <use xlink:href="#ma7de0a0690" x="0" y="508.125" style="fill: #00ef00; stroke: #00ef00"/>
    </g>
   </g>
   <g id="PolyCollection_21">
    <defs>
     <path id="mac8bdbb237" d="M 105.625 -29.685 
L 105.625 -29.685 
L 156.352273 -140.422577 
L 207.079545 -131.793199 
L 257.806818 -132.262418 
L 308.534091 -187.706822 
L 359.261364 -204.293845 
L 409.988636 -228.421406 
L 460.715909 -233.197821 
L 511.443182 -207.199659 
L 562.170455 -201.402079 
L 612.897727 -226.8268 
L 663.625 -256.235683 
L 714.352273 -235.145787 
L 765.079545 -255.597883 
L 815.806818 -285.002923 
L 866.534091 -264.095797 
L 917.261364 -298.957415 
L 967.988636 -290.963621 
L 1018.715909 -311.718889 
L 1069.443182 -356.136783 
L 1120.170455 -406.08037 
L 1170.897727 -412.276184 
L 1221.625 -452.97473 
L 1221.625 -456.000196 
L 1221.625 -456.000196 
L 1170.897727 -426.708543 
L 1120.170455 -423.524999 
L 1069.443182 -363.717323 
L 1018.715909 -311.718889 
L 967.988636 -290.963621 
L 917.261364 -298.957415 
L 866.534091 -264.095797 
L 815.806818 -285.002923 
L 765.079545 -255.807573 
L 714.352273 -235.145787 
L 663.625 -256.235683 
L 612.897727 -226.8268 
L 562.170455 -201.402079 
L 511.443182 -207.199659 
L 460.715909 -233.197821 
L 409.988636 -228.421406 
L 359.261364 -204.293845 
L 308.534091 -192.069791 
L 257.806818 -132.262418 
L 207.079545 -131.793199 
L 156.352273 -140.422577 
L 105.625 -29.685 
z
" style="stroke: #1dff00"/>
    </defs>
    <g clip-path="url(#pc6f3fe1870)">
     <use xlink:href="#mac8bdbb237" x="0" y="508.125" style="fill: #1dff00; stroke: #1dff00"/>
    </g>
   </g>
   <g id="PolyCollection_22">
    <defs>
     <path id="mdb73839ed8" d="M 105.625 -29.685 
L 105.625 -29.685 
L 156.352273 -140.422577 
L 207.079545 -131.793199 
L 257.806818 -132.262418 
L 308.534091 -192.069791 
L 359.261364 -204.293845 
L 409.988636 -228.421406 
L 460.715909 -233.197821 
L 511.443182 -207.199659 
L 562.170455 -201.402079 
L 612.897727 -226.8268 
L 663.625 -256.235683 
L 714.352273 -235.145787 
L 765.079545 -255.807573 
L 815.806818 -285.002923 
L 866.534091 -264.095797 
L 917.261364 -298.957415 
L 967.988636 -290.963621 
L 1018.715909 -311.718889 
L 1069.443182 -363.717323 
L 1120.170455 -423.524999 
L 1170.897727 -426.708543 
L 1221.625 -456.000196 
L 1221.625 -458.97476 
L 1221.625 -458.97476 
L 1170.897727 -427.502528 
L 1120.170455 -424.249545 
L 1069.443182 -367.235278 
L 1018.715909 -314.480254 
L 967.988636 -293.064208 
L 917.261364 -303.570692 
L 866.534091 -264.095797 
L 815.806818 -285.002923 
L 765.079545 -255.807573 
L 714.352273 -235.145787 
L 663.625 -256.235683 
L 612.897727 -226.8268 
L 562.170455 -201.402079 
L 511.443182 -207.199659 
L 460.715909 -233.197821 
L 409.988636 -228.421406 
L 359.261364 -204.293845 
L 308.534091 -192.069791 
L 257.806818 -132.262418 
L 207.079545 -131.793199 
L 156.352273 -140.422577 
L 105.625 -29.685 
z
" style="stroke: #84ff00"/>
    </defs>
    <g clip-path="url(#pc6f3fe1870)">
     <use xlink:href="#mdb73839ed8" x="0" y="508.125" style="fill: #84ff00; stroke: #84ff00"/>
    </g>
   </g>
   <g id="PolyCollection_23">
    <defs>
     <path id="m9a5addcda5" d="M 105.625 -29.685 
L 105.625 -29.685 
L 156.352273 -140.422577 
L 207.079545 -131.793199 
L 257.806818 -132.262418 
L 308.534091 -192.069791 
L 359.261364 -204.293845 
L 409.988636 -228.421406 
L 460.715909 -233.197821 
L 511.443182 -207.199659 
L 562.170455 -201.402079 
L 612.897727 -226.8268 
L 663.625 -256.235683 
L 714.352273 -235.145787 
L 765.079545 -255.807573 
L 815.806818 -285.002923 
L 866.534091 -264.095797 
L 917.261364 -303.570692 
L 967.988636 -293.064208 
L 1018.715909 -314.480254 
L 1069.443182 -367.235278 
L 1120.170455 -424.249545 
L 1170.897727 -427.502528 
L 1221.625 -458.97476 
L 1221.625 -461.441015 
L 1221.625 -461.441015 
L 1170.897727 -428.370815 
L 1120.170455 -424.249545 
L 1069.443182 -370.597723 
L 1018.715909 -316.866865 
L 967.988636 -293.064208 
L 917.261364 -303.570692 
L 866.534091 -264.095797 
L 815.806818 -285.002923 
L 765.079545 -255.807573 
L 714.352273 -235.145787 
L 663.625 -256.235683 
L 612.897727 -226.8268 
L 562.170455 -201.402079 
L 511.443182 -207.199659 
L 460.715909 -233.197821 
L 409.988636 -228.421406 
L 359.261364 -204.293845 
L 308.534091 -192.069791 
L 257.806818 -132.262418 
L 207.079545 -131.793199 
L 156.352273 -140.422577 
L 105.625 -29.685 
z
" style="stroke: #ccf900"/>
    </defs>
    <g clip-path="url(#pc6f3fe1870)">
     <use xlink:href="#m9a5addcda5" x="0" y="508.125" style="fill: #ccf900; stroke: #ccf900"/>
    </g>
   </g>
   <g id="PolyCollection_24">
    <defs>
     <path id="m0b1ee74047" d="M 105.625 -29.685 
L 105.625 -29.685 
L 156.352273 -140.422577 
L 207.079545 -131.793199 
L 257.806818 -132.262418 
L 308.534091 -192.069791 
L 359.261364 -204.293845 
L 409.988636 -228.421406 
L 460.715909 -233.197821 
L 511.443182 -207.199659 
L 562.170455 -201.402079 
L 612.897727 -226.8268 
L 663.625 -256.235683 
L 714.352273 -235.145787 
L 765.079545 -255.807573 
L 815.806818 -285.002923 
L 866.534091 -264.095797 
L 917.261364 -303.570692 
L 967.988636 -293.064208 
L 1018.715909 -316.866865 
L 1069.443182 -370.597723 
L 1120.170455 -424.249545 
L 1170.897727 -428.370815 
L 1221.625 -461.441015 
L 1221.625 -462.933693 
L 1221.625 -462.933693 
L 1170.897727 -432.475312 
L 1120.170455 -427.338314 
L 1069.443182 -373.40216 
L 1018.715909 -323.431065 
L 967.988636 -300.854273 
L 917.261364 -310.403547 
L 866.534091 -265.530361 
L 815.806818 -285.002923 
L 765.079545 -255.807573 
L 714.352273 -235.145787 
L 663.625 -258.23497 
L 612.897727 -226.8268 
L 562.170455 -201.402079 
L 511.443182 -207.199659 
L 460.715909 -233.197821 
L 409.988636 -228.421406 
L 359.261364 -204.293845 
L 308.534091 -192.069791 
L 257.806818 -132.262418 
L 207.079545 -131.793199 
L 156.352273 -140.422577 
L 105.625 -29.685 
z
" style="stroke: #ecef00"/>
    </defs>
    <g clip-path="url(#pc6f3fe1870)">
     <use xlink:href="#m0b1ee74047" x="0" y="508.125" style="fill: #ecef00; stroke: #ecef00"/>
    </g>
   </g>
   <g id="PolyCollection_25">
    <defs>
     <path id="mb723b6119f" d="M 105.625 -29.685 
L 105.625 -29.685 
L 156.352273 -140.422577 
L 207.079545 -131.793199 
L 257.806818 -132.262418 
L 308.534091 -192.069791 
L 359.261364 -204.293845 
L 409.988636 -228.421406 
L 460.715909 -233.197821 
L 511.443182 -207.199659 
L 562.170455 -201.402079 
L 612.897727 -226.8268 
L 663.625 -258.23497 
L 714.352273 -235.145787 
L 765.079545 -255.807573 
L 815.806818 -285.002923 
L 866.534091 -265.530361 
L 917.261364 -310.403547 
L 967.988636 -300.854273 
L 1018.715909 -323.431065 
L 1069.443182 -373.40216 
L 1120.170455 -427.338314 
L 1170.897727 -432.475312 
L 1221.625 -462.933693 
L 1221.625 -464.028293 
L 1221.625 -464.028293 
L 1170.897727 -443.89471 
L 1120.170455 -443.454799 
L 1069.443182 -385.022564 
L 1018.715909 -326.678986 
L 967.988636 -306.069025 
L 917.261364 -312.181751 
L 866.534091 -265.530361 
L 815.806818 -286.149904 
L 765.079545 -259.494764 
L 714.352273 -240.174783 
L 663.625 -274.292949 
L 612.897727 -232.801839 
L 562.170455 -201.402079 
L 511.443182 -207.199659 
L 460.715909 -233.197821 
L 409.988636 -232.344796 
L 359.261364 -210.573057 
L 308.534091 -192.069791 
L 257.806818 -132.262418 
L 207.079545 -131.793199 
L 156.352273 -140.422577 
L 105.625 -29.685 
z
" style="stroke: #f8da00"/>
    </defs>
    <g clip-path="url(#pc6f3fe1870)">
     <use xlink:href="#mb723b6119f" x="0" y="508.125" style="fill: #f8da00; stroke: #f8da00"/>
    </g>
   </g>
   <g id="PolyCollection_26">
    <defs>
     <path id="m9314c08b36" d="M 105.625 -29.685 
L 105.625 -29.685 
L 156.352273 -140.422577 
L 207.079545 -131.793199 
L 257.806818 -132.262418 
L 308.534091 -192.069791 
L 359.261364 -210.573057 
L 409.988636 -232.344796 
L 460.715909 -233.197821 
L 511.443182 -207.199659 
L 562.170455 -201.402079 
L 612.897727 -232.801839 
L 663.625 -274.292949 
L 714.352273 -240.174783 
L 765.079545 -259.494764 
L 815.806818 -286.149904 
L 866.534091 -265.530361 
L 917.261364 -312.181751 
L 967.988636 -306.069025 
L 1018.715909 -326.678986 
L 1069.443182 -385.022564 
L 1120.170455 -443.454799 
L 1170.897727 -443.89471 
L 1221.625 -464.028293 
L 1221.625 -464.028293 
L 1221.625 -464.028293 
L 1170.897727 -443.89471 
L 1120.170455 -443.454799 
L 1069.443182 -385.022564 
L 1018.715909 -326.678986 
L 967.988636 -306.069025 
L 917.261364 -312.181751 
L 866.534091 -265.530361 
L 815.806818 -286.149904 
L 765.079545 -259.494764 
L 714.352273 -240.174783 
L 663.625 -274.292949 
L 612.897727 -232.801839 
L 562.170455 -201.402079 
L 511.443182 -207.199659 
L 460.715909 -233.197821 
L 409.988636 -232.344796 
L 359.261364 -210.573057 
L 308.534091 -192.069791 
L 257.806818 -132.262418 
L 207.079545 -131.793199 
L 156.352273 -140.422577 
L 105.625 -29.685 
z
" style="stroke: #ffc500"/>
    </defs>
    <g clip-path="url(#pc6f3fe1870)">
     <use xlink:href="#m9314c08b36" x="0" y="508.125" style="fill: #ffc500; stroke: #ffc500"/>
    </g>
   </g>
   <g id="PolyCollection_27">
    <defs>
     <path id="m9ad3f48532" d="M 105.625 -29.685 
L 105.625 -29.685 
L 156.352273 -140.422577 
L 207.079545 -131.793199 
L 257.806818 -132.262418 
L 308.534091 -192.069791 
L 359.261364 -210.573057 
L 409.988636 -232.344796 
L 460.715909 -233.197821 
L 511.443182 -207.199659 
L 562.170455 -201.402079 
L 612.897727 -232.801839 
L 663.625 -274.292949 
L 714.352273 -240.174783 
L 765.079545 -259.494764 
L 815.806818 -286.149904 
L 866.534091 -265.530361 
L 917.261364 -312.181751 
L 967.988636 -306.069025 
L 1018.715909 -326.678986 
L 1069.443182 -385.022564 
L 1120.170455 -443.454799 
L 1170.897727 -443.89471 
L 1221.625 -464.028293 
L 1221.625 -464.028293 
L 1221.625 -464.028293 
L 1170.897727 -443.89471 
L 1120.170455 -443.454799 
L 1069.443182 -388.248421 
L 1018.715909 -335.923982 
L 967.988636 -322.20838 
L 917.261364 -327.74492 
L 866.534091 -266.285511 
L 815.806818 -286.149904 
L 765.079545 -259.494764 
L 714.352273 -240.174783 
L 663.625 -274.292949 
L 612.897727 -232.801839 
L 562.170455 -201.402079 
L 511.443182 -207.199659 
L 460.715909 -233.197821 
L 409.988636 -232.344796 
L 359.261364 -210.573057 
L 308.534091 -192.069791 
L 257.806818 -132.262418 
L 207.079545 -131.793199 
L 156.352273 -140.422577 
L 105.625 -29.685 
z
" style="stroke: #ffa500"/>
    </defs>
    <g clip-path="url(#pc6f3fe1870)">
     <use xlink:href="#m9ad3f48532" x="0" y="508.125" style="fill: #ffa500; stroke: #ffa500"/>
    </g>
   </g>
   <g id="PolyCollection_28">
    <defs>
     <path id="me69ab7a763" d="M 105.625 -29.685 
L 105.625 -29.685 
L 156.352273 -140.422577 
L 207.079545 -131.793199 
L 257.806818 -132.262418 
L 308.534091 -192.069791 
L 359.261364 -210.573057 
L 409.988636 -232.344796 
L 460.715909 -233.197821 
L 511.443182 -207.199659 
L 562.170455 -201.402079 
L 612.897727 -232.801839 
L 663.625 -274.292949 
L 714.352273 -240.174783 
L 765.079545 -259.494764 
L 815.806818 -286.149904 
L 866.534091 -266.285511 
L 917.261364 -327.74492 
L 967.988636 -322.20838 
L 1018.715909 -335.923982 
L 1069.443182 -388.248421 
L 1120.170455 -443.454799 
L 1170.897727 -443.89471 
L 1221.625 -464.028293 
L 1221.625 -464.028293 
L 1221.625 -464.028293 
L 1170.897727 -443.89471 
L 1120.170455 -443.454799 
L 1069.443182 -388.248421 
L 1018.715909 -335.923982 
L 967.988636 -322.20838 
L 917.261364 -327.74492 
L 866.534091 -266.285511 
L 815.806818 -286.149904 
L 765.079545 -259.494764 
L 714.352273 -240.174783 
L 663.625 -274.292949 
L 612.897727 -232.801839 
L 562.170455 -201.402079 
L 511.443182 -207.199659 
L 460.715909 -233.197821 
L 409.988636 -232.344796 
L 359.261364 -210.573057 
L 308.534091 -192.069791 
L 257.806818 -132.262418 
L 207.079545 -131.793199 
L 156.352273 -140.422577 
L 105.625 -29.685 
z
" style="stroke: #ff5d00"/>
    </defs>
    <g clip-path="url(#pc6f3fe1870)">
     <use xlink:href="#me69ab7a763" x="0" y="508.125" style="fill: #ff5d00; stroke: #ff5d00"/>
    </g>
   </g>
   <g id="PolyCollection_29">
    <defs>
     <path id="m27f7fabd3e" d="M 105.625 -29.685 
L 105.625 -29.685 
L 156.352273 -140.422577 
L 207.079545 -131.793199 
L 257.806818 -132.262418 
L 308.534091 -192.069791 
L 359.261364 -210.573057 
L 409.988636 -232.344796 
L 460.715909 -233.197821 
L 511.443182 -207.199659 
L 562.170455 -201.402079 
L 612.897727 -232.801839 
L 663.625 -274.292949 
L 714.352273 -240.174783 
L 765.079545 -259.494764 
L 815.806818 -286.149904 
L 866.534091 -266.285511 
L 917.261364 -327.74492 
L 967.988636 -322.20838 
L 1018.715909 -335.923982 
L 1069.443182 -388.248421 
L 1120.170455 -443.454799 
L 1170.897727 -443.89471 
L 1221.625 -464.028293 
L 1221.625 -464.028293 
L 1221.625 -464.028293 
L 1170.897727 -472.650559 
L 1120.170455 -472.821292 
L 1069.443182 -415.423553 
L 1018.715909 -335.923982 
L 967.988636 -352.784527 
L 917.261364 -360.602256 
L 866.534091 -288.646293 
L 815.806818 -286.149904 
L 765.079545 -278.082322 
L 714.352273 -247.925861 
L 663.625 -279.709766 
L 612.897727 -244.793366 
L 562.170455 -201.402079 
L 511.443182 -215.922523 
L 460.715909 -243.267821 
L 409.988636 -246.357354 
L 359.261364 -225.964614 
L 308.534091 -192.069791 
L 257.806818 -132.262418 
L 207.079545 -131.793199 
L 156.352273 -140.422577 
L 105.625 -29.685 
z
" style="stroke: #fe0000"/>
    </defs>
    <g clip-path="url(#pc6f3fe1870)">
     <use xlink:href="#m27f7fabd3e" x="0" y="508.125" style="fill: #fe0000; stroke: #fe0000"/>
    </g>
   </g>
   <g id="PolyCollection_30">
    <defs>
     <path id="maea86128bd" d="M 105.625 -29.685 
L 105.625 -29.685 
L 156.352273 -140.422577 
L 207.079545 -131.793199 
L 257.806818 -132.262418 
L 308.534091 -192.069791 
L 359.261364 -225.964614 
L 409.988636 -246.357354 
L 460.715909 -243.267821 
L 511.443182 -215.922523 
L 562.170455 -201.402079 
L 612.897727 -244.793366 
L 663.625 -279.709766 
L 714.352273 -247.925861 
L 765.079545 -278.082322 
L 815.806818 -286.149904 
L 866.534091 -288.646293 
L 917.261364 -360.602256 
L 967.988636 -352.784527 
L 1018.715909 -335.923982 
L 1069.443182 -415.423553 
L 1120.170455 -472.821292 
L 1170.897727 -472.650559 
L 1221.625 -464.028293 
L 1221.625 -464.028293 
L 1221.625 -464.028293 
L 1170.897727 -472.650559 
L 1120.170455 -472.821292 
L 1069.443182 -415.423553 
L 1018.715909 -335.923982 
L 967.988636 -352.784527 
L 917.261364 -360.602256 
L 866.534091 -288.646293 
L 815.806818 -286.149904 
L 765.079545 -278.082322 
L 714.352273 -247.925861 
L 663.625 -279.709766 
L 612.897727 -244.793366 
L 562.170455 -201.402079 
L 511.443182 -215.922523 
L 460.715909 -243.267821 
L 409.988636 -246.357354 
L 359.261364 -225.964614 
L 308.534091 -192.069791 
L 257.806818 -132.262418 
L 207.079545 -131.793199 
L 156.352273 -140.422577 
L 105.625 -29.685 
z
" style="stroke: #ec0000"/>
    </defs>
    <g clip-path="url(#pc6f3fe1870)">
     <use xlink:href="#maea86128bd" x="0" y="508.125" style="fill: #ec0000; stroke: #ec0000"/>
    </g>
   </g>
   <g id="PolyCollection_31">
    <defs>
     <path id="m98cf38ec14" d="M 105.625 -29.685 
L 105.625 -29.685 
L 156.352273 -140.422577 
L 207.079545 -131.793199 
L 257.806818 -132.262418 
L 308.534091 -192.069791 
L 359.261364 -225.964614 
L 409.988636 -246.357354 
L 460.715909 -243.267821 
L 511.443182 -215.922523 
L 562.170455 -201.402079 
L 612.897727 -244.793366 
L 663.625 -279.709766 
L 714.352273 -247.925861 
L 765.079545 -278.082322 
L 815.806818 -286.149904 
L 866.534091 -288.646293 
L 917.261364 -360.602256 
L 967.988636 -352.784527 
L 1018.715909 -335.923982 
L 1069.443182 -415.423553 
L 1120.170455 -472.821292 
L 1170.897727 -472.650559 
L 1221.625 -464.028293 
L 1221.625 -464.028293 
L 1221.625 -464.028293 
L 1170.897727 -472.650559 
L 1120.170455 -472.821292 
L 1069.443182 -419.513876 
L 1018.715909 -341.742038 
L 967.988636 -352.784527 
L 917.261364 -360.602256 
L 866.534091 -291.287907 
L 815.806818 -286.149904 
L 765.079545 -278.082322 
L 714.352273 -247.925861 
L 663.625 -279.709766 
L 612.897727 -244.793366 
L 562.170455 -201.402079 
L 511.443182 -215.922523 
L 460.715909 -243.267821 
L 409.988636 -246.357354 
L 359.261364 -225.964614 
L 308.534091 -192.069791 
L 257.806818 -132.262418 
L 207.079545 -131.793199 
L 156.352273 -140.422577 
L 105.625 -29.685 
z
" style="stroke: #da0000"/>
    </defs>
    <g clip-path="url(#pc6f3fe1870)">
     <use xlink:href="#m98cf38ec14" x="0" y="508.125" style="fill: #da0000; stroke: #da0000"/>
    </g>
   </g>
   <g id="PolyCollection_32">
    <defs>
     <path id="mb422dd1b33" d="M 105.625 -29.685 
L 105.625 -29.685 
L 156.352273 -140.422577 
L 207.079545 -131.793199 
L 257.806818 -132.262418 
L 308.534091 -192.069791 
L 359.261364 -225.964614 
L 409.988636 -246.357354 
L 460.715909 -243.267821 
L 511.443182 -215.922523 
L 562.170455 -201.402079 
L 612.897727 -244.793366 
L 663.625 -279.709766 
L 714.352273 -247.925861 
L 765.079545 -278.082322 
L 815.806818 -286.149904 
L 866.534091 -291.287907 
L 917.261364 -360.602256 
L 967.988636 -352.784527 
L 1018.715909 -341.742038 
L 1069.443182 -419.513876 
L 1120.170455 -472.821292 
L 1170.897727 -472.650559 
L 1221.625 -464.028293 
L 1221.625 -464.028293 
L 1221.625 -464.028293 
L 1170.897727 -472.650559 
L 1120.170455 -472.821292 
L 1069.443182 -419.938332 
L 1018.715909 -341.742038 
L 967.988636 -356.677561 
L 917.261364 -364.238781 
L 866.534091 -291.287907 
L 815.806818 -286.149904 
L 765.079545 -278.082322 
L 714.352273 -247.925861 
L 663.625 -279.709766 
L 612.897727 -244.793366 
L 562.170455 -201.402079 
L 511.443182 -215.922523 
L 460.715909 -243.267821 
L 409.988636 -246.357354 
L 359.261364 -225.964614 
L 308.534091 -192.069791 
L 257.806818 -132.262418 
L 207.079545 -131.793199 
L 156.352273 -140.422577 
L 105.625 -29.685 
z
" style="stroke: #cf0000"/>
    </defs>
    <g clip-path="url(#pc6f3fe1870)">
     <use xlink:href="#mb422dd1b33" x="0" y="508.125" style="fill: #cf0000; stroke: #cf0000"/>
    </g>
   </g>
   <g id="PolyCollection_33">
    <defs>
     <path id="m3888e50b37" d="M 105.625 -29.685 
L 105.625 -29.685 
L 156.352273 -140.422577 
L 207.079545 -131.793199 
L 257.806818 -132.262418 
L 308.534091 -192.069791 
L 359.261364 -225.964614 
L 409.988636 -246.357354 
L 460.715909 -243.267821 
L 511.443182 -215.922523 
L 562.170455 -201.402079 
L 612.897727 -244.793366 
L 663.625 -279.709766 
L 714.352273 -247.925861 
L 765.079545 -278.082322 
L 815.806818 -286.149904 
L 866.534091 -291.287907 
L 917.261364 -364.238781 
L 967.988636 -356.677561 
L 1018.715909 -341.742038 
L 1069.443182 -419.938332 
L 1120.170455 -472.821292 
L 1170.897727 -472.650559 
L 1221.625 -464.028293 
L 1221.625 -464.028293 
L 1221.625 -464.028293 
L 1170.897727 -472.650559 
L 1120.170455 -472.821292 
L 1069.443182 -419.938332 
L 1018.715909 -341.742038 
L 967.988636 -356.677561 
L 917.261364 -364.238781 
L 866.534091 -291.287907 
L 815.806818 -286.149904 
L 765.079545 -278.082322 
L 714.352273 -247.925861 
L 663.625 -279.709766 
L 612.897727 -244.793366 
L 562.170455 -201.402079 
L 511.443182 -215.922523 
L 460.715909 -243.267821 
L 409.988636 -246.357354 
L 359.261364 -225.964614 
L 308.534091 -192.069791 
L 257.806818 -132.262418 
L 207.079545 -131.793199 
L 156.352273 -140.422577 
L 105.625 -29.685 
z
" style="stroke: #cc5c5c"/>
    </defs>
    <g clip-path="url(#pc6f3fe1870)">
     <use xlink:href="#m3888e50b37" x="0" y="508.125" style="fill: #cc5c5c; stroke: #cc5c5c"/>
    </g>
   </g>
   <g id="PolyCollection_34">
    <defs>
     <path id="m924a465217" d="M 105.625 -29.685 
L 105.625 -29.685 
L 156.352273 -140.422577 
L 207.079545 -131.793199 
L 257.806818 -132.262418 
L 308.534091 -192.069791 
L 359.261364 -225.964614 
L 409.988636 -246.357354 
L 460.715909 -243.267821 
L 511.443182 -215.922523 
L 562.170455 -201.402079 
L 612.897727 -244.793366 
L 663.625 -279.709766 
L 714.352273 -247.925861 
L 765.079545 -278.082322 
L 815.806818 -286.149904 
L 866.534091 -291.287907 
L 917.261364 -364.238781 
L 967.988636 -356.677561 
L 1018.715909 -341.742038 
L 1069.443182 -419.938332 
L 1120.170455 -472.821292 
L 1170.897727 -472.650559 
L 1221.625 -464.028293 
L 1221.625 -464.028293 
L 1221.625 -464.028293 
L 1170.897727 -477.136071 
L 1120.170455 -478.485 
L 1069.443182 -419.938332 
L 1018.715909 -341.742038 
L 967.988636 -356.677561 
L 917.261364 -364.238781 
L 866.534091 -291.287907 
L 815.806818 -286.149904 
L 765.079545 -278.082322 
L 714.352273 -247.925861 
L 663.625 -279.709766 
L 612.897727 -244.793366 
L 562.170455 -201.402079 
L 511.443182 -215.922523 
L 460.715909 -243.267821 
L 409.988636 -246.357354 
L 359.261364 -225.964614 
L 308.534091 -192.069791 
L 257.806818 -132.262418 
L 207.079545 -131.793199 
L 156.352273 -140.422577 
L 105.625 -29.685 
z
" style="stroke: #cccccc"/>
    </defs>
    <g clip-path="url(#pc6f3fe1870)">
     <use xlink:href="#m924a465217" x="0" y="508.125" style="fill: #cccccc; stroke: #cccccc"/>
    </g>
   </g>
   <g id="matplotlib.axis_1">
    <g id="xtick_1">
     <g id="line2d_1">
      <defs>
       <path id="m46c6dd7444" d="M 0 0 
L 0 3.5 
" style="stroke: #000000; stroke-width: 0.8"/>
      </defs>
      <g>
       <use xlink:href="#m46c6dd7444" x="54.897727" y="478.44" style="stroke: #000000; stroke-width: 0.8"/>
      </g>
     </g>
     <g id="text_1">
      <!-- 1970 -->
      <g transform="translate(34.537727 497.5975) scale(0.16 -0.16)">
       <defs>
        <path id="DejaVuSans-31" d="M 794 531 
L 1825 531 
L 1825 4091 
L 703 3866 
L 703 4441 
L 1819 4666 
L 2450 4666 
L 2450 531 
L 3481 531 
L 3481 0 
L 794 0 
L 794 531 
z
" transform="scale(0.015625)"/>
        <path id="DejaVuSans-39" d="M 703 97 
L 703 672 
Q 941 559 1184 500 
Q 1428 441 1663 441 
Q 2288 441 2617 861 
Q 2947 1281 2994 2138 
Q 2813 1869 2534 1725 
Q 2256 1581 1919 1581 
Q 1219 1581 811 2004 
Q 403 2428 403 3163 
Q 403 3881 828 4315 
Q 1253 4750 1959 4750 
Q 2769 4750 3195 4129 
Q 3622 3509 3622 2328 
Q 3622 1225 3098 567 
Q 2575 -91 1691 -91 
Q 1453 -91 1209 -44 
Q 966 3 703 97 
z
M 1959 2075 
Q 2384 2075 2632 2365 
Q 2881 2656 2881 3163 
Q 2881 3666 2632 3958 
Q 2384 4250 1959 4250 
Q 1534 4250 1286 3958 
Q 1038 3666 1038 3163 
Q 1038 2656 1286 2365 
Q 1534 2075 1959 2075 
z
" transform="scale(0.015625)"/>
        <path id="DejaVuSans-37" d="M 525 4666 
L 3525 4666 
L 3525 4397 
L 1831 0 
L 1172 0 
L 2766 4134 
L 525 4134 
L 525 4666 
z
" transform="scale(0.015625)"/>
        <path id="DejaVuSans-30" d="M 2034 4250 
Q 1547 4250 1301 3770 
Q 1056 3291 1056 2328 
Q 1056 1369 1301 889 
Q 1547 409 2034 409 
Q 2525 409 2770 889 
Q 3016 1369 3016 2328 
Q 3016 3291 2770 3770 
Q 2525 4250 2034 4250 
z
M 2034 4750 
Q 2819 4750 3233 4129 
Q 3647 3509 3647 2328 
Q 3647 1150 3233 529 
Q 2819 -91 2034 -91 
Q 1250 -91 836 529 
Q 422 1150 422 2328 
Q 422 3509 836 4129 
Q 1250 4750 2034 4750 
z
" transform="scale(0.015625)"/>
       </defs>
       <use xlink:href="#DejaVuSans-31"/>
       <use xlink:href="#DejaVuSans-39" x="63.623047"/>
       <use xlink:href="#DejaVuSans-37" x="127.246094"/>
       <use xlink:href="#DejaVuSans-30" x="190.869141"/>
      </g>
     </g>
    </g>
    <g id="xtick_2">
     <g id="line2d_2">
      <g>
       <use xlink:href="#m46c6dd7444" x="308.534091" y="478.44" style="stroke: #000000; stroke-width: 0.8"/>
      </g>
     </g>
     <g id="text_2">
      <!-- 1980 -->
      <g transform="translate(288.174091 497.5975) scale(0.16 -0.16)">
       <defs>
        <path id="DejaVuSans-38" d="M 2034 2216 
Q 1584 2216 1326 1975 
Q 1069 1734 1069 1313 
Q 1069 891 1326 650 
Q 1584 409 2034 409 
Q 2484 409 2743 651 
Q 3003 894 3003 1313 
Q 3003 1734 2745 1975 
Q 2488 2216 2034 2216 
z
M 1403 2484 
Q 997 2584 770 2862 
Q 544 3141 544 3541 
Q 544 4100 942 4425 
Q 1341 4750 2034 4750 
Q 2731 4750 3128 4425 
Q 3525 4100 3525 3541 
Q 3525 3141 3298 2862 
Q 3072 2584 2669 2484 
Q 3125 2378 3379 2068 
Q 3634 1759 3634 1313 
Q 3634 634 3220 271 
Q 2806 -91 2034 -91 
Q 1263 -91 848 271 
Q 434 634 434 1313 
Q 434 1759 690 2068 
Q 947 2378 1403 2484 
z
M 1172 3481 
Q 1172 3119 1398 2916 
Q 1625 2713 2034 2713 
Q 2441 2713 2670 2916 
Q 2900 3119 2900 3481 
Q 2900 3844 2670 4047 
Q 2441 4250 2034 4250 
Q 1625 4250 1398 4047 
Q 1172 3844 1172 3481 
z
" transform="scale(0.015625)"/>
       </defs>
       <use xlink:href="#DejaVuSans-31"/>
       <use xlink:href="#DejaVuSans-39" x="63.623047"/>
       <use xlink:href="#DejaVuSans-38" x="127.246094"/>
       <use xlink:href="#DejaVuSans-30" x="190.869141"/>
      </g>
     </g>
    </g>
    <g id="xtick_3">
     <g id="line2d_3">
      <g>
       <use xlink:href="#m46c6dd7444" x="562.170455" y="478.44" style="stroke: #000000; stroke-width: 0.8"/>
      </g>
     </g>
     <g id="text_3">
      <!-- 1990 -->
      <g transform="translate(541.810455 497.5975) scale(0.16 -0.16)">
       <use xlink:href="#DejaVuSans-31"/>
       <use xlink:href="#DejaVuSans-39" x="63.623047"/>
       <use xlink:href="#DejaVuSans-39" x="127.246094"/>
       <use xlink:href="#DejaVuSans-30" x="190.869141"/>
      </g>
     </g>
    </g>
    <g id="xtick_4">
     <g id="line2d_4">
      <g>
       <use xlink:href="#m46c6dd7444" x="815.806818" y="478.44" style="stroke: #000000; stroke-width: 0.8"/>
      </g>
     </g>
     <g id="text_4">
      <!-- 2000 -->
      <g transform="translate(795.446818 497.5975) scale(0.16 -0.16)">
       <defs>
        <path id="DejaVuSans-32" d="M 1228 531 
L 3431 531 
L 3431 0 
L 469 0 
L 469 531 
Q 828 903 1448 1529 
Q 2069 2156 2228 2338 
Q 2531 2678 2651 2914 
Q 2772 3150 2772 3378 
Q 2772 3750 2511 3984 
Q 2250 4219 1831 4219 
Q 1534 4219 1204 4116 
Q 875 4013 500 3803 
L 500 4441 
Q 881 4594 1212 4672 
Q 1544 4750 1819 4750 
Q 2544 4750 2975 4387 
Q 3406 4025 3406 3419 
Q 3406 3131 3298 2873 
Q 3191 2616 2906 2266 
Q 2828 2175 2409 1742 
Q 1991 1309 1228 531 
z
" transform="scale(0.015625)"/>
       </defs>
       <use xlink:href="#DejaVuSans-32"/>
       <use xlink:href="#DejaVuSans-30" x="63.623047"/>
       <use xlink:href="#DejaVuSans-30" x="127.246094"/>
       <use xlink:href="#DejaVuSans-30" x="190.869141"/>
      </g>
     </g>
    </g>
    <g id="xtick_5">
     <g id="line2d_5">
      <g>
       <use xlink:href="#m46c6dd7444" x="1069.443182" y="478.44" style="stroke: #000000; stroke-width: 0.8"/>
      </g>
     </g>
     <g id="text_5">
      <!-- 2010 -->
      <g transform="translate(1049.083182 497.5975) scale(0.16 -0.16)">
       <use xlink:href="#DejaVuSans-32"/>
       <use xlink:href="#DejaVuSans-30" x="63.623047"/>
       <use xlink:href="#DejaVuSans-31" x="127.246094"/>
       <use xlink:href="#DejaVuSans-30" x="190.869141"/>
      </g>
     </g>
    </g>
   </g>
   <g id="matplotlib.axis_2">
    <g id="ytick_1">
     <g id="line2d_6">
      <defs>
       <path id="mf43cc555ed" d="M 0 0 
L -3.5 0 
" style="stroke: #000000; stroke-width: 0.8"/>
      </defs>
      <g>
       <use xlink:href="#mf43cc555ed" x="49.825" y="478.44" style="stroke: #000000; stroke-width: 0.8"/>
      </g>
     </g>
     <g id="text_6">
      <!-- 0.00 -->
      <g transform="translate(7.2 484.51875) scale(0.16 -0.16)">
       <defs>
        <path id="DejaVuSans-2e" d="M 684 794 
L 1344 794 
L 1344 0 
L 684 0 
L 684 794 
z
" transform="scale(0.015625)"/>
       </defs>
       <use xlink:href="#DejaVuSans-30"/>
       <use xlink:href="#DejaVuSans-2e" x="63.623047"/>
       <use xlink:href="#DejaVuSans-30" x="95.410156"/>
       <use xlink:href="#DejaVuSans-30" x="159.033203"/>
      </g>
     </g>
    </g>
    <g id="ytick_2">
     <g id="line2d_7">
      <g>
       <use xlink:href="#mf43cc555ed" x="49.825" y="420.635001" style="stroke: #000000; stroke-width: 0.8"/>
      </g>
     </g>
     <g id="text_7">
      <!-- 0.25 -->
      <g transform="translate(7.2 426.713751) scale(0.16 -0.16)">
       <defs>
        <path id="DejaVuSans-35" d="M 691 4666 
L 3169 4666 
L 3169 4134 
L 1269 4134 
L 1269 2991 
Q 1406 3038 1543 3061 
Q 1681 3084 1819 3084 
Q 2600 3084 3056 2656 
Q 3513 2228 3513 1497 
Q 3513 744 3044 326 
Q 2575 -91 1722 -91 
Q 1428 -91 1123 -41 
Q 819 9 494 109 
L 494 744 
Q 775 591 1075 516 
Q 1375 441 1709 441 
Q 2250 441 2565 725 
Q 2881 1009 2881 1497 
Q 2881 1984 2565 2268 
Q 2250 2553 1709 2553 
Q 1456 2553 1204 2497 
Q 953 2441 691 2322 
L 691 4666 
z
" transform="scale(0.015625)"/>
       </defs>
       <use xlink:href="#DejaVuSans-30"/>
       <use xlink:href="#DejaVuSans-2e" x="63.623047"/>
       <use xlink:href="#DejaVuSans-32" x="95.410156"/>
       <use xlink:href="#DejaVuSans-35" x="159.033203"/>
      </g>
     </g>
    </g>
    <g id="ytick_3">
     <g id="line2d_8">
      <g>
       <use xlink:href="#mf43cc555ed" x="49.825" y="362.830001" style="stroke: #000000; stroke-width: 0.8"/>
      </g>
     </g>
     <g id="text_8">
      <!-- 0.50 -->
      <g transform="translate(7.2 368.908751) scale(0.16 -0.16)">
       <use xlink:href="#DejaVuSans-30"/>
       <use xlink:href="#DejaVuSans-2e" x="63.623047"/>
       <use xlink:href="#DejaVuSans-35" x="95.410156"/>
       <use xlink:href="#DejaVuSans-30" x="159.033203"/>
      </g>
     </g>
    </g>
    <g id="ytick_4">
     <g id="line2d_9">
      <g>
       <use xlink:href="#mf43cc555ed" x="49.825" y="305.025002" style="stroke: #000000; stroke-width: 0.8"/>
      </g>
     </g>
     <g id="text_9">
      <!-- 0.75 -->
      <g transform="translate(7.2 311.103752) scale(0.16 -0.16)">
       <use xlink:href="#DejaVuSans-30"/>
       <use xlink:href="#DejaVuSans-2e" x="63.623047"/>
       <use xlink:href="#DejaVuSans-37" x="95.410156"/>
       <use xlink:href="#DejaVuSans-35" x="159.033203"/>
      </g>
     </g>
    </g>
    <g id="ytick_5">
     <g id="line2d_10">
      <g>
       <use xlink:href="#mf43cc555ed" x="49.825" y="247.220002" style="stroke: #000000; stroke-width: 0.8"/>
      </g>
     </g>
     <g id="text_10">
      <!-- 1.00 -->
      <g transform="translate(7.2 253.298752) scale(0.16 -0.16)">
       <use xlink:href="#DejaVuSans-31"/>
       <use xlink:href="#DejaVuSans-2e" x="63.623047"/>
       <use xlink:href="#DejaVuSans-30" x="95.410156"/>
       <use xlink:href="#DejaVuSans-30" x="159.033203"/>
      </g>
     </g>
    </g>
    <g id="ytick_6">
     <g id="line2d_11">
      <g>
       <use xlink:href="#mf43cc555ed" x="49.825" y="189.415003" style="stroke: #000000; stroke-width: 0.8"/>
      </g>
     </g>
     <g id="text_11">
      <!-- 1.25 -->
      <g transform="translate(7.2 195.493753) scale(0.16 -0.16)">
       <use xlink:href="#DejaVuSans-31"/>
       <use xlink:href="#DejaVuSans-2e" x="63.623047"/>
       <use xlink:href="#DejaVuSans-32" x="95.410156"/>
       <use xlink:href="#DejaVuSans-35" x="159.033203"/>
      </g>
     </g>
    </g>
    <g id="ytick_7">
     <g id="line2d_12">
      <g>
       <use xlink:href="#mf43cc555ed" x="49.825" y="131.610003" style="stroke: #000000; stroke-width: 0.8"/>
      </g>
     </g>
     <g id="text_12">
      <!-- 1.50 -->
      <g transform="translate(7.2 137.688753) scale(0.16 -0.16)">
       <use xlink:href="#DejaVuSans-31"/>
       <use xlink:href="#DejaVuSans-2e" x="63.623047"/>
       <use xlink:href="#DejaVuSans-35" x="95.410156"/>
       <use xlink:href="#DejaVuSans-30" x="159.033203"/>
      </g>
     </g>
    </g>
    <g id="ytick_8">
     <g id="line2d_13">
      <g>
       <use xlink:href="#mf43cc555ed" x="49.825" y="73.805004" style="stroke: #000000; stroke-width: 0.8"/>
      </g>
     </g>
     <g id="text_13">
      <!-- 1.75 -->
      <g transform="translate(7.2 79.883754) scale(0.16 -0.16)">
       <use xlink:href="#DejaVuSans-31"/>
       <use xlink:href="#DejaVuSans-2e" x="63.623047"/>
       <use xlink:href="#DejaVuSans-37" x="95.410156"/>
       <use xlink:href="#DejaVuSans-35" x="159.033203"/>
      </g>
     </g>
    </g>
    <g id="ytick_9">
     <g id="line2d_14">
      <g>
       <use xlink:href="#mf43cc555ed" x="49.825" y="16.000005" style="stroke: #000000; stroke-width: 0.8"/>
      </g>
     </g>
     <g id="text_14">
      <!-- 2.00 -->
      <g transform="translate(7.2 22.078755) scale(0.16 -0.16)">
       <use xlink:href="#DejaVuSans-32"/>
       <use xlink:href="#DejaVuSans-2e" x="63.623047"/>
       <use xlink:href="#DejaVuSans-30" x="95.410156"/>
       <use xlink:href="#DejaVuSans-30" x="159.033203"/>
      </g>
     </g>
    </g>
   </g>
   <g id="line2d_15">
    <path d="M 105.625 478.44 
L 156.352273 394.53886 
L 207.079545 390.989121 
L 257.806818 384.846349 
L 308.534091 384.919451 
L 359.261364 379.306381 
L 409.988636 374.201601 
L 460.715909 372.294613 
L 511.443182 373.058904 
L 562.170455 371.76234 
L 612.897727 368.594768 
L 663.625 370.40663 
L 714.352273 373.669505 
L 765.079545 374.713109 
L 815.806818 371.87259 
L 866.534091 369.200902 
L 917.261364 370.726452 
L 967.988636 373.686466 
L 1018.715909 381.078721 
L 1069.443182 382.115449 
L 1120.170455 381.509005 
L 1170.897727 381.79881 
L 1221.625 383.514298 
" clip-path="url(#pc6f3fe1870)" style="fill: none; stroke: #000000; stroke-width: 1.5; stroke-linecap: square"/>
   </g>
   <g id="line2d_16">
    <path d="M 105.625 478.44 
L 156.352273 371.278533 
L 207.079545 376.331801 
L 257.806818 375.862582 
L 308.534091 365.326033 
L 359.261364 356.364847 
L 409.988636 352.898621 
L 460.715909 345.334018 
L 511.443182 346.002557 
L 562.170455 345.734191 
L 612.897727 327.481114 
L 663.625 329.10399 
L 714.352273 337.248709 
L 765.079545 333.934546 
L 815.806818 332.360253 
L 866.534091 333.469208 
L 917.261364 327.873211 
L 967.988636 327.634345 
L 1018.715909 335.560082 
L 1069.443182 339.521419 
L 1120.170455 336.022425 
L 1170.897727 335.071644 
L 1221.625 340.13928 
" clip-path="url(#pc6f3fe1870)" style="fill: none; stroke: #41004b; stroke-width: 1.5; stroke-linecap: square"/>
   </g>
   <g id="line2d_17">
    <path d="M 105.625 478.44 
L 156.352273 371.278533 
L 207.079545 376.331801 
L 257.806818 375.862582 
L 308.534091 350.570165 
L 359.261364 338.189352 
L 409.988636 335.598635 
L 460.715909 333.006352 
L 511.443182 333.149876 
L 562.170455 336.14318 
L 612.897727 318.195777 
L 663.625 308.24616 
L 714.352273 321.167776 
L 765.079545 312.482965 
L 815.806818 312.951231 
L 866.534091 330.75105 
L 917.261364 311.394177 
L 967.988636 312.12286 
L 1018.715909 320.089814 
L 1069.443182 308.204076 
L 1120.170455 297.024222 
L 1170.897727 299.036917 
L 1221.625 308.098563 
" clip-path="url(#pc6f3fe1870)" style="fill: none; stroke: #7a008b; stroke-width: 1.5; stroke-linecap: square"/>
   </g>
   <g id="line2d_18">
    <path d="M 105.625 478.44 
L 156.352273 371.278533 
L 207.079545 376.331801 
L 257.806818 375.862582 
L 308.534091 350.570165 
L 359.261364 338.189352 
L 409.988636 335.598635 
L 460.715909 333.006352 
L 511.443182 333.149876 
L 562.170455 332.979623 
L 612.897727 309.090922 
L 663.625 302.209573 
L 714.352273 321.167776 
L 765.079545 311.044386 
L 815.806818 309.822588 
L 866.534091 327.889332 
L 917.261364 305.708215 
L 967.988636 307.4138 
L 1018.715909 305.968427 
L 1069.443182 293.679884 
L 1120.170455 279.600841 
L 1170.897727 275.665403 
L 1221.625 278.946703 
" clip-path="url(#pc6f3fe1870)" style="fill: none; stroke: #850096; stroke-width: 1.5; stroke-linecap: square"/>
   </g>
   <g id="line2d_19">
    <path d="M 105.625 478.44 
L 156.352273 371.278533 
L 207.079545 376.331801 
L 257.806818 375.862582 
L 308.534091 350.570165 
L 359.261364 338.189352 
L 409.988636 335.598635 
L 460.715909 333.006352 
L 511.443182 333.149876 
L 562.170455 332.979623 
L 612.897727 309.090922 
L 663.625 291.454356 
L 714.352273 311.459459 
L 765.079545 300.920059 
L 815.806818 297.84637 
L 866.534091 315.987094 
L 917.261364 294.175874 
L 967.988636 299.869014 
L 1018.715909 287.503906 
L 1069.443182 267.986366 
L 1120.170455 255.263144 
L 1170.897727 251.447394 
L 1221.625 252.188213 
" clip-path="url(#pc6f3fe1870)" style="fill: none; stroke: #4d00a0; stroke-width: 1.5; stroke-linecap: square"/>
   </g>
   <g id="line2d_20">
    <path d="M 105.625 478.44 
L 156.352273 371.278533 
L 207.079545 376.331801 
L 257.806818 375.862582 
L 308.534091 350.570165 
L 359.261364 338.189352 
L 409.988636 335.598635 
L 460.715909 333.006352 
L 511.443182 333.149876 
L 562.170455 332.979623 
L 612.897727 309.090922 
L 663.625 291.454356 
L 714.352273 311.459459 
L 765.079545 300.920059 
L 815.806818 297.84637 
L 866.534091 315.987094 
L 917.261364 286.897366 
L 967.988636 299.869014 
L 1018.715909 287.503906 
L 1069.443182 267.986366 
L 1120.170455 255.263144 
L 1170.897727 251.447394 
L 1221.625 228.959417 
" clip-path="url(#pc6f3fe1870)" style="fill: none; stroke: #0300aa; stroke-width: 1.5; stroke-linecap: square"/>
   </g>
   <g id="line2d_21">
    <path d="M 105.625 478.44 
L 156.352273 371.278533 
L 207.079545 376.331801 
L 257.806818 375.862582 
L 308.534091 350.570165 
L 359.261364 338.189352 
L 409.988636 322.603673 
L 460.715909 319.531782 
L 511.443182 323.187233 
L 562.170455 321.16845 
L 612.897727 298.503591 
L 663.625 283.12276 
L 714.352273 301.149087 
L 765.079545 286.849596 
L 815.806818 282.422537 
L 866.534091 305.126548 
L 917.261364 280.651958 
L 967.988636 289.662465 
L 1018.715909 270.970407 
L 1069.443182 251.620751 
L 1120.170455 228.560248 
L 1170.897727 225.043153 
L 1221.625 206.579061 
" clip-path="url(#pc6f3fe1870)" style="fill: none; stroke: #0000c9; stroke-width: 1.5; stroke-linecap: square"/>
   </g>
   <g id="line2d_22">
    <path d="M 105.625 478.44 
L 156.352273 371.278533 
L 207.079545 376.331801 
L 257.806818 375.862582 
L 308.534091 350.570165 
L 359.261364 334.009877 
L 409.988636 312.366497 
L 460.715909 309.483891 
L 511.443182 318.109679 
L 562.170455 320.149037 
L 612.897727 293.478299 
L 663.625 272.337232 
L 714.352273 296.839915 
L 765.079545 277.727773 
L 815.806818 264.64255 
L 866.534091 291.922412 
L 917.261364 260.852261 
L 967.988636 265.813604 
L 1018.715909 250.707276 
L 1069.443182 229.993112 
L 1120.170455 199.49353 
L 1170.897727 201.486797 
L 1221.625 186.037802 
" clip-path="url(#pc6f3fe1870)" style="fill: none; stroke: #001cdd; stroke-width: 1.5; stroke-linecap: square"/>
   </g>
   <g id="line2d_23">
    <path d="M 105.625 478.44 
L 156.352273 371.278533 
L 207.079545 376.331801 
L 257.806818 375.862582 
L 308.534091 346.10539 
L 359.261364 330.292747 
L 409.988636 305.577945 
L 460.715909 297.857055 
L 511.443182 308.744016 
L 562.170455 312.690256 
L 612.897727 293.478299 
L 663.625 272.26942 
L 714.352273 296.839915 
L 765.079545 277.727773 
L 815.806818 261.705087 
L 866.534091 282.129898 
L 917.261364 247.801966 
L 967.988636 254.427267 
L 1018.715909 245.960692 
L 1069.443182 218.228826 
L 1120.170455 181.8403 
L 1170.897727 182.874823 
L 1221.625 166.271202 
" clip-path="url(#pc6f3fe1870)" style="fill: none; stroke: #0067dd; stroke-width: 1.5; stroke-linecap: square"/>
   </g>
   <g id="line2d_24">
    <path d="M 105.625 478.44 
L 156.352273 371.278533 
L 207.079545 376.331801 
L 257.806818 375.862582 
L 308.534091 346.10539 
L 359.261364 330.292747 
L 409.988636 305.577945 
L 460.715909 297.857055 
L 511.443182 308.744016 
L 562.170455 312.690256 
L 612.897727 293.478299 
L 663.625 272.26942 
L 714.352273 291.221696 
L 765.079545 271.679502 
L 815.806818 256.08349 
L 866.534091 270.541181 
L 917.261364 236.405573 
L 967.988636 244.117404 
L 1018.715909 238.201108 
L 1069.443182 211.195529 
L 1120.170455 167.772451 
L 1170.897727 167.386886 
L 1221.625 148.165035 
" clip-path="url(#pc6f3fe1870)" style="fill: none; stroke: #0085dd; stroke-width: 1.5; stroke-linecap: square"/>
   </g>
   <g id="line2d_25">
    <path d="M 105.625 478.44 
L 156.352273 371.278533 
L 207.079545 376.331801 
L 257.806818 375.862582 
L 308.534091 333.542058 
L 359.261364 320.855543 
L 409.988636 295.053156 
L 460.715909 291.462387 
L 511.443182 307.110297 
L 562.170455 312.690256 
L 612.897727 293.478299 
L 663.625 268.074934 
L 714.352273 285.662003 
L 765.079545 268.259345 
L 815.806818 248.428392 
L 866.534091 259.77728 
L 917.261364 233.699874 
L 967.988636 241.489142 
L 1018.715909 229.473998 
L 1069.443182 203.43784 
L 1120.170455 158.360481 
L 1170.897727 155.446249 
L 1221.625 131.686632 
" clip-path="url(#pc6f3fe1870)" style="fill: none; stroke: #009adb; stroke-width: 1.5; stroke-linecap: square"/>
   </g>
   <g id="line2d_26">
    <path d="M 105.625 478.44 
L 156.352273 367.702423 
L 207.079545 376.331801 
L 257.806818 375.862582 
L 308.534091 320.418178 
L 359.261364 303.831155 
L 409.988636 279.703594 
L 460.715909 274.927179 
L 511.443182 300.925341 
L 562.170455 306.722921 
L 612.897727 281.937693 
L 663.625 251.889317 
L 714.352273 272.979213 
L 765.079545 252.527117 
L 815.806818 228.524082 
L 866.534091 246.578495 
L 917.261364 212.824955 
L 967.988636 219.654403 
L 1018.715909 208.177163 
L 1069.443182 174.543117 
L 1120.170455 135.847198 
L 1170.897727 138.7806 
L 1221.625 116.761235 
" clip-path="url(#pc6f3fe1870)" style="fill: none; stroke: #00a4bb; stroke-width: 1.5; stroke-linecap: square"/>
   </g>
   <g id="line2d_27">
    <path d="M 105.625 478.44 
L 156.352273 367.702423 
L 207.079545 376.331801 
L 257.806818 375.862582 
L 308.534091 320.418178 
L 359.261364 303.831155 
L 409.988636 279.703594 
L 460.715909 274.927179 
L 511.443182 300.925341 
L 562.170455 306.722921 
L 612.897727 281.937693 
L 663.625 251.889317 
L 714.352273 272.979213 
L 765.079545 252.527117 
L 815.806818 228.524082 
L 866.534091 246.578495 
L 917.261364 212.824955 
L 967.988636 219.654403 
L 1018.715909 208.177163 
L 1069.443182 171.462475 
L 1120.170455 123.809375 
L 1170.897727 127.837332 
L 1221.625 102.761071 
" clip-path="url(#pc6f3fe1870)" style="fill: none; stroke: #00aaa0; stroke-width: 1.5; stroke-linecap: square"/>
   </g>
   <g id="line2d_28">
    <path d="M 105.625 478.44 
L 156.352273 367.702423 
L 207.079545 376.331801 
L 257.806818 375.862582 
L 308.534091 320.418178 
L 359.261364 303.831155 
L 409.988636 279.703594 
L 460.715909 274.927179 
L 511.443182 300.925341 
L 562.170455 306.722921 
L 612.897727 281.937693 
L 663.625 251.889317 
L 714.352273 272.979213 
L 765.079545 252.527117 
L 815.806818 228.524082 
L 866.534091 246.578495 
L 917.261364 212.824955 
L 967.988636 219.654403 
L 1018.715909 208.177163 
L 1069.443182 171.462475 
L 1120.170455 123.809375 
L 1170.897727 127.837332 
L 1221.625 91.194203 
" clip-path="url(#pc6f3fe1870)" style="fill: none; stroke: #00aa8d; stroke-width: 1.5; stroke-linecap: square"/>
   </g>
   <g id="line2d_29">
    <path d="M 105.625 478.44 
L 156.352273 367.702423 
L 207.079545 376.331801 
L 257.806818 375.862582 
L 308.534091 320.418178 
L 359.261364 303.831155 
L 409.988636 279.703594 
L 460.715909 274.927179 
L 511.443182 300.925341 
L 562.170455 306.722921 
L 612.897727 281.937693 
L 663.625 251.889317 
L 714.352273 272.979213 
L 765.079545 252.527117 
L 815.806818 228.524082 
L 866.534091 244.869622 
L 917.261364 212.824955 
L 967.988636 219.654403 
L 1018.715909 199.299458 
L 1069.443182 158.081609 
L 1120.170455 108.643134 
L 1170.897727 113.742976 
L 1221.625 80.652732 
" clip-path="url(#pc6f3fe1870)" style="fill: none; stroke: #00a248; stroke-width: 1.5; stroke-linecap: square"/>
   </g>
   <g id="line2d_30">
    <path d="M 105.625 478.44 
L 156.352273 367.702423 
L 207.079545 376.331801 
L 257.806818 375.862582 
L 308.534091 320.418178 
L 359.261364 303.831155 
L 409.988636 279.703594 
L 460.715909 274.927179 
L 511.443182 300.925341 
L 562.170455 306.722921 
L 612.897727 281.937693 
L 663.625 251.889317 
L 714.352273 272.979213 
L 765.079545 252.527117 
L 815.806818 223.122077 
L 866.534091 244.029203 
L 917.261364 209.167585 
L 967.988636 217.161379 
L 1018.715909 196.406111 
L 1069.443182 153.100664 
L 1120.170455 102.979685 
L 1170.897727 108.423556 
L 1221.625 72.263796 
" clip-path="url(#pc6f3fe1870)" style="fill: none; stroke: #009c00; stroke-width: 1.5; stroke-linecap: square"/>
   </g>
   <g id="line2d_31">
    <path d="M 105.625 478.44 
L 156.352273 367.702423 
L 207.079545 376.331801 
L 257.806818 375.862582 
L 308.534091 320.418178 
L 359.261364 303.831155 
L 409.988636 279.703594 
L 460.715909 274.927179 
L 511.443182 300.925341 
L 562.170455 306.722921 
L 612.897727 281.2982 
L 663.625 251.889317 
L 714.352273 272.979213 
L 765.079545 252.527117 
L 815.806818 223.122077 
L 866.534091 244.029203 
L 917.261364 209.167585 
L 967.988636 217.161379 
L 1018.715909 196.406111 
L 1069.443182 153.100664 
L 1120.170455 102.04463 
L 1170.897727 97.18912 
L 1221.625 65.915687 
" clip-path="url(#pc6f3fe1870)" style="fill: none; stroke: #00b200; stroke-width: 1.5; stroke-linecap: square"/>
   </g>
   <g id="line2d_32">
    <path d="M 105.625 478.44 
L 156.352273 367.702423 
L 207.079545 376.331801 
L 257.806818 375.862582 
L 308.534091 320.418178 
L 359.261364 303.831155 
L 409.988636 279.703594 
L 460.715909 274.927179 
L 511.443182 300.925341 
L 562.170455 306.722921 
L 612.897727 281.2982 
L 663.625 251.889317 
L 714.352273 272.979213 
L 765.079545 252.527117 
L 815.806818 223.122077 
L 866.534091 244.029203 
L 917.261364 209.167585 
L 967.988636 217.161379 
L 1018.715909 196.406111 
L 1069.443182 151.988217 
L 1120.170455 102.04463 
L 1170.897727 97.18912 
L 1221.625 61.71008 
" clip-path="url(#pc6f3fe1870)" style="fill: none; stroke: #00c400; stroke-width: 1.5; stroke-linecap: square"/>
   </g>
   <g id="line2d_33">
    <path d="M 105.625 478.44 
L 156.352273 367.702423 
L 207.079545 376.331801 
L 257.806818 375.862582 
L 308.534091 320.418178 
L 359.261364 303.831155 
L 409.988636 279.703594 
L 460.715909 274.927179 
L 511.443182 300.925341 
L 562.170455 306.722921 
L 612.897727 281.2982 
L 663.625 251.889317 
L 714.352273 272.979213 
L 765.079545 252.527117 
L 815.806818 223.122077 
L 866.534091 244.029203 
L 917.261364 209.167585 
L 967.988636 217.161379 
L 1018.715909 196.406111 
L 1069.443182 151.988217 
L 1120.170455 102.04463 
L 1170.897727 97.18912 
L 1221.625 58.418298 
" clip-path="url(#pc6f3fe1870)" style="fill: none; stroke: #00da00; stroke-width: 1.5; stroke-linecap: square"/>
   </g>
   <g id="line2d_34">
    <path d="M 105.625 478.44 
L 156.352273 367.702423 
L 207.079545 376.331801 
L 257.806818 375.862582 
L 308.534091 320.418178 
L 359.261364 303.831155 
L 409.988636 279.703594 
L 460.715909 274.927179 
L 511.443182 300.925341 
L 562.170455 306.722921 
L 612.897727 281.2982 
L 663.625 251.889317 
L 714.352273 272.979213 
L 765.079545 252.527117 
L 815.806818 223.122077 
L 866.534091 244.029203 
L 917.261364 209.167585 
L 967.988636 217.161379 
L 1018.715909 196.406111 
L 1069.443182 151.988217 
L 1120.170455 102.04463 
L 1170.897727 95.848816 
L 1221.625 55.15027 
" clip-path="url(#pc6f3fe1870)" style="fill: none; stroke: #00ef00; stroke-width: 1.5; stroke-linecap: square"/>
   </g>
   <g id="line2d_35">
    <path d="M 105.625 478.44 
L 156.352273 367.702423 
L 207.079545 376.331801 
L 257.806818 375.862582 
L 308.534091 316.055209 
L 359.261364 303.831155 
L 409.988636 279.703594 
L 460.715909 274.927179 
L 511.443182 300.925341 
L 562.170455 306.722921 
L 612.897727 281.2982 
L 663.625 251.889317 
L 714.352273 272.979213 
L 765.079545 252.317427 
L 815.806818 223.122077 
L 866.534091 244.029203 
L 917.261364 209.167585 
L 967.988636 217.161379 
L 1018.715909 196.406111 
L 1069.443182 144.407677 
L 1120.170455 84.600001 
L 1170.897727 81.416457 
L 1221.625 52.124804 
" clip-path="url(#pc6f3fe1870)" style="fill: none; stroke: #1dff00; stroke-width: 1.5; stroke-linecap: square"/>
   </g>
   <g id="line2d_36">
    <path d="M 105.625 478.44 
L 156.352273 367.702423 
L 207.079545 376.331801 
L 257.806818 375.862582 
L 308.534091 316.055209 
L 359.261364 303.831155 
L 409.988636 279.703594 
L 460.715909 274.927179 
L 511.443182 300.925341 
L 562.170455 306.722921 
L 612.897727 281.2982 
L 663.625 251.889317 
L 714.352273 272.979213 
L 765.079545 252.317427 
L 815.806818 223.122077 
L 866.534091 244.029203 
L 917.261364 204.554308 
L 967.988636 215.060792 
L 1018.715909 193.644746 
L 1069.443182 140.889722 
L 1120.170455 83.875455 
L 1170.897727 80.622472 
L 1221.625 49.15024 
" clip-path="url(#pc6f3fe1870)" style="fill: none; stroke: #84ff00; stroke-width: 1.5; stroke-linecap: square"/>
   </g>
   <g id="line2d_37">
    <path d="M 105.625 478.44 
L 156.352273 367.702423 
L 207.079545 376.331801 
L 257.806818 375.862582 
L 308.534091 316.055209 
L 359.261364 303.831155 
L 409.988636 279.703594 
L 460.715909 274.927179 
L 511.443182 300.925341 
L 562.170455 306.722921 
L 612.897727 281.2982 
L 663.625 251.889317 
L 714.352273 272.979213 
L 765.079545 252.317427 
L 815.806818 223.122077 
L 866.534091 244.029203 
L 917.261364 204.554308 
L 967.988636 215.060792 
L 1018.715909 191.258135 
L 1069.443182 137.527277 
L 1120.170455 83.875455 
L 1170.897727 79.754185 
L 1221.625 46.683985 
" clip-path="url(#pc6f3fe1870)" style="fill: none; stroke: #ccf900; stroke-width: 1.5; stroke-linecap: square"/>
   </g>
   <g id="line2d_38">
    <path d="M 105.625 478.44 
L 156.352273 367.702423 
L 207.079545 376.331801 
L 257.806818 375.862582 
L 308.534091 316.055209 
L 359.261364 303.831155 
L 409.988636 279.703594 
L 460.715909 274.927179 
L 511.443182 300.925341 
L 562.170455 306.722921 
L 612.897727 281.2982 
L 663.625 249.89003 
L 714.352273 272.979213 
L 765.079545 252.317427 
L 815.806818 223.122077 
L 866.534091 242.594639 
L 917.261364 197.721453 
L 967.988636 207.270727 
L 1018.715909 184.693935 
L 1069.443182 134.72284 
L 1120.170455 80.786686 
L 1170.897727 75.649688 
L 1221.625 45.191307 
" clip-path="url(#pc6f3fe1870)" style="fill: none; stroke: #ecef00; stroke-width: 1.5; stroke-linecap: square"/>
   </g>
   <g id="line2d_39">
    <path d="M 105.625 478.44 
L 156.352273 367.702423 
L 207.079545 376.331801 
L 257.806818 375.862582 
L 308.534091 316.055209 
L 359.261364 297.551943 
L 409.988636 275.780204 
L 460.715909 274.927179 
L 511.443182 300.925341 
L 562.170455 306.722921 
L 612.897727 275.323161 
L 663.625 233.832051 
L 714.352273 267.950217 
L 765.079545 248.630236 
L 815.806818 221.975096 
L 866.534091 242.594639 
L 917.261364 195.943249 
L 967.988636 202.055975 
L 1018.715909 181.446014 
L 1069.443182 123.102436 
L 1120.170455 64.670201 
L 1170.897727 64.23029 
L 1221.625 44.096707 
" clip-path="url(#pc6f3fe1870)" style="fill: none; stroke: #f8da00; stroke-width: 1.5; stroke-linecap: square"/>
   </g>
   <g id="line2d_40">
    <path d="M 105.625 478.44 
L 156.352273 367.702423 
L 207.079545 376.331801 
L 257.806818 375.862582 
L 308.534091 316.055209 
L 359.261364 297.551943 
L 409.988636 275.780204 
L 460.715909 274.927179 
L 511.443182 300.925341 
L 562.170455 306.722921 
L 612.897727 275.323161 
L 663.625 233.832051 
L 714.352273 267.950217 
L 765.079545 248.630236 
L 815.806818 221.975096 
L 866.534091 242.594639 
L 917.261364 195.943249 
L 967.988636 202.055975 
L 1018.715909 181.446014 
L 1069.443182 123.102436 
L 1120.170455 64.670201 
L 1170.897727 64.23029 
L 1221.625 44.096707 
" clip-path="url(#pc6f3fe1870)" style="fill: none; stroke: #ffc500; stroke-width: 1.5; stroke-linecap: square"/>
   </g>
   <g id="line2d_41">
    <path d="M 105.625 478.44 
L 156.352273 367.702423 
L 207.079545 376.331801 
L 257.806818 375.862582 
L 308.534091 316.055209 
L 359.261364 297.551943 
L 409.988636 275.780204 
L 460.715909 274.927179 
L 511.443182 300.925341 
L 562.170455 306.722921 
L 612.897727 275.323161 
L 663.625 233.832051 
L 714.352273 267.950217 
L 765.079545 248.630236 
L 815.806818 221.975096 
L 866.534091 241.839489 
L 917.261364 180.38008 
L 967.988636 185.91662 
L 1018.715909 172.201018 
L 1069.443182 119.876579 
L 1120.170455 64.670201 
L 1170.897727 64.23029 
L 1221.625 44.096707 
" clip-path="url(#pc6f3fe1870)" style="fill: none; stroke: #ffa500; stroke-width: 1.5; stroke-linecap: square"/>
   </g>
   <g id="line2d_42">
    <path d="M 105.625 478.44 
L 156.352273 367.702423 
L 207.079545 376.331801 
L 257.806818 375.862582 
L 308.534091 316.055209 
L 359.261364 297.551943 
L 409.988636 275.780204 
L 460.715909 274.927179 
L 511.443182 300.925341 
L 562.170455 306.722921 
L 612.897727 275.323161 
L 663.625 233.832051 
L 714.352273 267.950217 
L 765.079545 248.630236 
L 815.806818 221.975096 
L 866.534091 241.839489 
L 917.261364 180.38008 
L 967.988636 185.91662 
L 1018.715909 172.201018 
L 1069.443182 119.876579 
L 1120.170455 64.670201 
L 1170.897727 64.23029 
L 1221.625 44.096707 
" clip-path="url(#pc6f3fe1870)" style="fill: none; stroke: #ff5d00; stroke-width: 1.5; stroke-linecap: square"/>
   </g>
   <g id="line2d_43">
    <path d="M 105.625 478.44 
L 156.352273 367.702423 
L 207.079545 376.331801 
L 257.806818 375.862582 
L 308.534091 316.055209 
L 359.261364 282.160386 
L 409.988636 261.767646 
L 460.715909 264.857179 
L 511.443182 292.202477 
L 562.170455 306.722921 
L 612.897727 263.331634 
L 663.625 228.415234 
L 714.352273 260.199139 
L 765.079545 230.042678 
L 815.806818 221.975096 
L 866.534091 219.478707 
L 917.261364 147.522744 
L 967.988636 155.340473 
L 1018.715909 172.201018 
L 1069.443182 92.701447 
L 1120.170455 35.303708 
L 1170.897727 35.474441 
L 1221.625 44.096707 
" clip-path="url(#pc6f3fe1870)" style="fill: none; stroke: #fe0000; stroke-width: 1.5; stroke-linecap: square"/>
   </g>
   <g id="line2d_44">
    <path d="M 105.625 478.44 
L 156.352273 367.702423 
L 207.079545 376.331801 
L 257.806818 375.862582 
L 308.534091 316.055209 
L 359.261364 282.160386 
L 409.988636 261.767646 
L 460.715909 264.857179 
L 511.443182 292.202477 
L 562.170455 306.722921 
L 612.897727 263.331634 
L 663.625 228.415234 
L 714.352273 260.199139 
L 765.079545 230.042678 
L 815.806818 221.975096 
L 866.534091 219.478707 
L 917.261364 147.522744 
L 967.988636 155.340473 
L 1018.715909 172.201018 
L 1069.443182 92.701447 
L 1120.170455 35.303708 
L 1170.897727 35.474441 
L 1221.625 44.096707 
" clip-path="url(#pc6f3fe1870)" style="fill: none; stroke: #ec0000; stroke-width: 1.5; stroke-linecap: square"/>
   </g>
   <g id="line2d_45">
    <path d="M 105.625 478.44 
L 156.352273 367.702423 
L 207.079545 376.331801 
L 257.806818 375.862582 
L 308.534091 316.055209 
L 359.261364 282.160386 
L 409.988636 261.767646 
L 460.715909 264.857179 
L 511.443182 292.202477 
L 562.170455 306.722921 
L 612.897727 263.331634 
L 663.625 228.415234 
L 714.352273 260.199139 
L 765.079545 230.042678 
L 815.806818 221.975096 
L 866.534091 216.837093 
L 917.261364 147.522744 
L 967.988636 155.340473 
L 1018.715909 166.382962 
L 1069.443182 88.611124 
L 1120.170455 35.303708 
L 1170.897727 35.474441 
L 1221.625 44.096707 
" clip-path="url(#pc6f3fe1870)" style="fill: none; stroke: #da0000; stroke-width: 1.5; stroke-linecap: square"/>
   </g>
   <g id="line2d_46">
    <path d="M 105.625 478.44 
L 156.352273 367.702423 
L 207.079545 376.331801 
L 257.806818 375.862582 
L 308.534091 316.055209 
L 359.261364 282.160386 
L 409.988636 261.767646 
L 460.715909 264.857179 
L 511.443182 292.202477 
L 562.170455 306.722921 
L 612.897727 263.331634 
L 663.625 228.415234 
L 714.352273 260.199139 
L 765.079545 230.042678 
L 815.806818 221.975096 
L 866.534091 216.837093 
L 917.261364 143.886219 
L 967.988636 151.447439 
L 1018.715909 166.382962 
L 1069.443182 88.186668 
L 1120.170455 35.303708 
L 1170.897727 35.474441 
L 1221.625 44.096707 
" clip-path="url(#pc6f3fe1870)" style="fill: none; stroke: #cf0000; stroke-width: 1.5; stroke-linecap: square"/>
   </g>
   <g id="line2d_47">
    <path d="M 105.625 478.44 
L 156.352273 367.702423 
L 207.079545 376.331801 
L 257.806818 375.862582 
L 308.534091 316.055209 
L 359.261364 282.160386 
L 409.988636 261.767646 
L 460.715909 264.857179 
L 511.443182 292.202477 
L 562.170455 306.722921 
L 612.897727 263.331634 
L 663.625 228.415234 
L 714.352273 260.199139 
L 765.079545 230.042678 
L 815.806818 221.975096 
L 866.534091 216.837093 
L 917.261364 143.886219 
L 967.988636 151.447439 
L 1018.715909 166.382962 
L 1069.443182 88.186668 
L 1120.170455 35.303708 
L 1170.897727 35.474441 
L 1221.625 44.096707 
" clip-path="url(#pc6f3fe1870)" style="fill: none; stroke: #cc5c5c; stroke-width: 1.5; stroke-linecap: square"/>
   </g>
   <g id="line2d_48">
    <path d="M 105.625 478.44 
L 156.352273 367.702423 
L 207.079545 376.331801 
L 257.806818 375.862582 
L 308.534091 316.055209 
L 359.261364 282.160386 
L 409.988636 261.767646 
L 460.715909 264.857179 
L 511.443182 292.202477 
L 562.170455 306.722921 
L 612.897727 263.331634 
L 663.625 228.415234 
L 714.352273 260.199139 
L 765.079545 230.042678 
L 815.806818 221.975096 
L 866.534091 216.837093 
L 917.261364 143.886219 
L 967.988636 151.447439 
L 1018.715909 166.382962 
L 1069.443182 88.186668 
L 1120.170455 29.64 
L 1170.897727 30.988929 
L 1221.625 44.096707 
" clip-path="url(#pc6f3fe1870)" style="fill: none; stroke: #cccccc; stroke-width: 1.5; stroke-linecap: square"/>
   </g>
   <g id="patch_3">
    <path d="M 49.825 478.44 
L 49.825 7.2 
" style="fill: none; stroke: #000000; stroke-width: 0.8; stroke-linejoin: miter; stroke-linecap: square"/>
   </g>
   <g id="patch_4">
    <path d="M 1277.425 478.44 
L 1277.425 7.2 
" style="fill: none; stroke: #000000; stroke-width: 0.8; stroke-linejoin: miter; stroke-linecap: square"/>
   </g>
   <g id="patch_5">
    <path d="M 49.825 478.44 
L 1277.425 478.44 
" style="fill: none; stroke: #000000; stroke-width: 0.8; stroke-linejoin: miter; stroke-linecap: square"/>
   </g>
   <g id="patch_6">
    <path d="M 49.825 7.2 
L 1277.425 7.2 
" style="fill: none; stroke: #000000; stroke-width: 0.8; stroke-linejoin: miter; stroke-linecap: square"/>
   </g>
  </g>
 </g>
 <defs>
  <clipPath id="pc6f3fe1870">
   <rect x="49.825" y="7.2" width="1227.6" height="471.24"/>
  </clipPath>
 </defs>
</svg>
